<svg xmlns="http://www.w3.org/2000/svg" viewBox="0 0 627.58 521.86"><defs><style>.cls-1,.cls-2{fill:#b8db9e;}.cls-10,.cls-2{stroke:#fff;}.cls-10,.cls-12,.cls-2,.cls-4,.cls-8{stroke-miterlimit:10;}.cls-2{stroke-width:3.34px;}.cls-3{fill:#726c7a;}.cls-10,.cls-12,.cls-4,.cls-8{fill:none;}.cls-4{stroke:#726c7a;stroke-width:8px;}.cls-5{fill:#fff;}.cls-6{fill:#9ec4cd;}.cls-7{fill:#d4765d;}.cls-8{stroke:#ffd23e;stroke-width:2.8px;}.cls-9{fill:#ffd23e;}.cls-10{stroke-linecap:round;stroke-width:1.87px;}.cls-11{fill:#d4775e;}.cls-12{stroke:#d4765d;stroke-width:4px;}</style></defs><title>Asset 5</title><g id="Layer_2" data-name="Layer 2"><g id="Layer_1-2" data-name="Layer 1"><rect class="cls-1" x="242.55" y="457.3" width="112.54" height="64.56" rx="11.99" ry="11.99"/><rect class="cls-2" x="242.55" y="450.72" width="112.54" height="13.27"/><rect class="cls-2" x="240" y="428.52" width="112.54" height="13.27" transform="translate(-80.08 67.05) rotate(-11.39)"/><polygon class="cls-1" points="303.82 374.9 303.82 362.02 293.42 369.95 280.78 365.73 285.24 377.88 277.8 388.78 290.81 388.78 298.62 399.44 302.58 386.55 314.73 381.84 303.82 374.9"/><polygon class="cls-1" points="222.75 429.34 222.75 416.45 212.34 424.38 199.7 420.17 204.16 432.31 196.72 443.21 209.74 443.21 217.54 453.87 221.51 440.99 233.65 436.28 222.75 429.34"/><polygon class="cls-1" points="267.87 411.31 267.87 406.03 263.61 409.28 258.43 407.56 260.26 412.53 257.21 416.99 262.54 416.99 265.74 421.35 267.36 416.08 272.33 414.15 267.87 411.31"/><polygon class="cls-1" points="347.19 392.72 347.19 387.44 342.93 390.69 337.76 388.96 339.58 393.94 336.54 398.4 341.87 398.4 345.06 402.76 346.69 397.49 351.66 395.56 347.19 392.72"/><polygon class="cls-1" points="397.14 429.34 397.14 416.45 386.73 424.38 374.09 420.17 378.56 432.31 371.12 443.21 384.13 443.21 391.94 453.87 395.9 440.99 408.05 436.28 397.14 429.34"/><rect class="cls-3" x="214.8" y="54.28" width="121.72" height="73.26" rx="15.97" ry="15.97"/><path class="cls-3" d="M345.07,62H357.6a3.77,3.77,0,0,0,1.9-.52l14.41-8.42a3.77,3.77,0,0,1,5.68,3.26v44.72a3.77,3.77,0,0,1-5.69,3.25L358.24,95.1a3.77,3.77,0,0,0-1.92-.52H345.07a3.77,3.77,0,0,1-3.77-3.77v-25A3.77,3.77,0,0,1,345.07,62Z"/><circle class="cls-4" cx="234.79" cy="35.31" r="20.9"/><circle class="cls-3" cx="232.4" cy="26.18" r="2.88"/><circle class="cls-3" cx="241" cy="31.93" r="2.88"/><circle class="cls-3" cx="240.22" cy="41.09" r="2.88"/><circle class="cls-3" cx="229.53" cy="42.5" r="2.88"/><circle class="cls-3" cx="226.65" cy="34.09" r="2.88"/><circle class="cls-4" cx="285.92" cy="30.95" r="26.95"/><circle class="cls-3" cx="273.72" cy="28.29" r="3.45"/><circle class="cls-3" cx="283.06" cy="17.34" r="3.45"/><circle class="cls-3" cx="295.65" cy="24.84" r="3.45"/><circle class="cls-3" cx="294.25" cy="38.63" r="3.45"/><circle class="cls-3" cx="279.61" cy="41.22" r="3.45"/><polygon class="cls-5" points="229.12 104.75 276.9 67.99 325.21 104.75 297.3 104.75 297.3 141.72 256.71 141.72 256.71 104.86 229.12 104.75"/><path class="cls-6" d="M568.64,194.09c.74.42,1.46.87,2.21,1.24,9.1,4.52,12.38,11.12,9.59,20.91a179.24,179.24,0,0,1-6.75,18.15c-5.22,12.83-10.59,25.61-15.9,38.4-.18.44-.41.86-.73,1.52L550,257.25c-1.14-2.76-2.38-5.49-3.41-8.29a4.11,4.11,0,0,1,0-2.73q10.4-25.33,20.92-50.61c.2-.49.32-1,.47-1.53Z"/><path class="cls-7" d="M515.5,253.39l-1.15-.39c-1.9-.6-3.75-1.33-5.59-2.09l-.12-.07,6.71-32.31.4.14a56.88,56.88,0,0,0,5.84,2.13c1.46.42,2.94.76,4.42,1.07a45.49,45.49,0,0,0,5.51.77,43.84,43.84,0,0,0,17.92-2l3.53-1.22.42-.15c0,.12,0,.2,0,.29s0,.19-.06.28l-6.48,31.22a1.48,1.48,0,0,0,0,.2.48.48,0,0,1-.38.45L542.78,253a42.17,42.17,0,0,1-14.84,2.14,53,53,0,0,1-5.91-.48,3.59,3.59,0,0,0-.4,0Zm-4.64-6.44.6.24c1.71.66,3.43,1.28,5.19,1.77a48.76,48.76,0,0,0,6.9,1.33,50.39,50.39,0,0,0,5.39.4,46.52,46.52,0,0,0,8.3-.52,55.29,55.29,0,0,0,8.94-2.4c.23-.08.27-.23.31-.42l4.68-22.54c0-.1,0-.2,0-.34l-.43.13-2,.66a42.24,42.24,0,0,1-10.08,2.06,51.4,51.4,0,0,1-8.52-.09c-1.5-.15-3-.35-4.47-.6a32.42,32.42,0,0,1-4.64-1.05c-1.52-.49-3-1-4.53-1.56l-.83-.29Zm8.93,5c.07-.36.15-.72.22-1.08s0-.47-.32-.55c-.54-.14-1.08-.26-1.63-.37-.29-.06-.43,0-.5.33q-.24,1.11-.46,2.23a.4.4,0,0,0,.34.54c.53.13,1.06.25,1.59.36.32.06.45,0,.53-.35S519.71,252.31,519.78,251.93Zm9.52-27c.07-.36.15-.72.22-1.07s0-.48-.35-.54l-1.57-.23c-.34,0-.48,0-.55.38q-.24,1.09-.45,2.19c-.06.33,0,.46.35.51.53.09,1.07.17,1.61.25.3,0,.45-.07.52-.37S529.23,225.32,529.3,224.95Zm-3.79-.59c.07-.36.15-.72.22-1.08s0-.5-.36-.59l-1.5-.35c-.36-.08-.51,0-.58.37q-.23,1.07-.45,2.15c-.07.35,0,.48.35.57.51.13,1,.25,1.54.36.35.07.49,0,.57-.4S525.44,224.7,525.51,224.35Zm-1.94,28.22c.08-.37.16-.74.23-1.11s0-.44-.35-.5c-.53-.09-1.07-.17-1.61-.25-.31,0-.46.06-.52.37q-.24,1.11-.46,2.23c-.06.29,0,.45.33.5q.8.14,1.61.24c.34,0,.47-.06.54-.4S523.49,252.93,523.57,252.58ZM516,251.05c.07-.34.15-.69.21-1s0-.54-.38-.67-.93-.29-1.4-.42-.53-.08-.62.36q-.22,1-.42,2c-.09.44,0,.58.43.72l1.4.42c.33.1.48,0,.56-.33S516,251.41,516,251.05Zm3.33-28.36c-.08.37-.16.74-.23,1.12s0,.46.28.55q.81.27,1.63.51a.33.33,0,0,0,.47-.26q.26-1.17.49-2.35a.38.38,0,0,0-.28-.48c-.54-.18-1.08-.35-1.63-.51-.3-.09-.42,0-.5.3S519.45,222.32,519.37,222.69ZM510,248.93c-.08.37-.16.74-.23,1.11a.46.46,0,0,0,.29.6q.76.33,1.55.61c.3.11.43,0,.5-.28q.25-1.11.46-2.23a.45.45,0,0,0-.31-.58c-.5-.2-1-.4-1.51-.58-.33-.12-.45-.05-.52.28S510.1,248.57,510,248.93Zm5.73-27.61c-.08.37-.16.74-.23,1.11a.47.47,0,0,0,.33.61c.49.2,1,.39,1.48.57s.47.05.55-.31q.23-1.07.45-2.15a.47.47,0,0,0-.35-.64l-1.47-.58c-.32-.12-.45,0-.52.3S515.84,221,515.76,221.32ZM527.4,252.9c.08-.37.16-.74.23-1.11s0-.47-.39-.5l-1.54-.1c-.35,0-.5.08-.57.43q-.24,1.07-.45,2.15c-.07.37,0,.49.37.52.54.05,1.08.08,1.62.1.31,0,.43-.1.5-.41S527.33,253.26,527.4,252.9Zm5.74-27.64c.08-.37.16-.74.23-1.11s0-.43-.34-.46q-.83-.08-1.66-.12a.4.4,0,0,0-.49.37q-.25,1.13-.47,2.27c-.06.29,0,.42.32.45.55.05,1.11.09,1.66.12.32,0,.45-.11.52-.44S533.07,225.62,533.14,225.27Zm3.86,0c.07-.36.16-.71.22-1.07s0-.44-.38-.44l-1.58,0c-.34,0-.47.11-.54.43q-.24,1.11-.46,2.23c-.06.31,0,.44.36.44q.79,0,1.58,0c.37,0,.49-.13.57-.51S536.92,225.6,537,225.24Zm3.84-.28c.08-.38.17-.77.24-1.15s-.05-.39-.32-.36l-1.7.16a.51.51,0,0,0-.48.43c-.16.75-.32,1.51-.47,2.27-.06.3.05.42.34.39.54,0,1.08-.1,1.62-.15a.58.58,0,0,0,.55-.51C540.68,225.68,540.76,225.33,540.83,225Zm-12.08,27.91c-.08.37-.16.74-.23,1.11s0,.46.37.46q.79,0,1.58,0c.34,0,.47-.11.55-.43q.25-1.11.46-2.23c.06-.33,0-.44-.35-.44l-1.58,0c-.37,0-.5.12-.58.49S528.83,252.53,528.75,252.88Zm6.35-.32c.07-.36.15-.71.22-1.07s0-.45-.37-.43l-1.57.15a.53.53,0,0,0-.55.5q-.23,1.07-.45,2.15c-.07.37,0,.48.39.45s1-.09,1.53-.15a.56.56,0,0,0,.58-.52C535,253.28,535,252.92,535.1,252.56Zm1.32-.19c-.08.37-.16.74-.23,1.11s0,.41.35.37c.55-.09,1.09-.19,1.63-.3a.61.61,0,0,0,.5-.52c.15-.73.31-1.46.45-2.19.07-.34,0-.43-.36-.37l-1.56.28a.63.63,0,0,0-.57.55C536.57,251.65,536.5,252,536.42,252.37Zm8.21-28c.08-.38.17-.77.24-1.15s0-.39-.33-.34l-1.67.3a.55.55,0,0,0-.47.45c-.16.75-.32,1.51-.47,2.26-.06.3,0,.41.34.36.53-.08,1.06-.18,1.6-.28a.64.64,0,0,0,.55-.57C544.48,225,544.56,224.69,544.63,224.34Zm4-2.4a1.18,1.18,0,0,0-.3,0l-1.68.46a.62.62,0,0,0-.46.51c-.15.73-.31,1.46-.45,2.19-.07.36,0,.45.39.36s.94-.26,1.41-.37a.79.79,0,0,0,.64-.7c.13-.67.27-1.33.41-2C548.59,222.25,548.59,222.12,548.61,221.94Zm-8.41,29.67c-.07.36-.15.72-.22,1.07s0,.46.37.37l1.49-.4a.71.71,0,0,0,.55-.58c.15-.73.31-1.46.45-2.19.06-.32,0-.41-.34-.33l-1.57.42a.66.66,0,0,0-.52.56C540.36,250.9,540.28,251.26,540.21,251.62Zm3.71-1.09c-.08.38-.16.77-.24,1.15s0,.4.31.3c.54-.18,1.07-.38,1.6-.59a.67.67,0,0,0,.43-.51c.16-.77.32-1.54.48-2.31.05-.27,0-.35-.31-.26q-.81.28-1.6.58a.67.67,0,0,0-.44.54C544.08,249.81,544,250.16,543.92,250.52Zm8.33-29.84a2.2,2.2,0,0,0-.41.05l-1.41.51a.8.8,0,0,0-.58.66c-.13.69-.28,1.38-.42,2.07,0,.12,0,.23-.06.42a2,2,0,0,0,.42,0l1.45-.52a.8.8,0,0,0,.54-.65c.14-.7.29-1.4.43-2.1C552.23,221,552.23,220.85,552.25,220.68Z"/><path class="cls-7" d="M627.58,224.82l-6.71,32.32-.47-.29c-3.2-2.1-6.45-4.14-9.78-6a85.88,85.88,0,0,0-9.73-4.77,61.92,61.92,0,0,0-6.17-2.16,31.15,31.15,0,0,0-5-1.1c-1.13-.13-2.26-.23-3.4-.34l-1-.09c0-.32,6.51-31.84,6.69-32.34.62,0,1.25.08,1.88.14,1.05.11,2.11.2,3.15.36s2,.34,2.95.59a71.29,71.29,0,0,1,16.73,7c3.66,2,7.2,4.26,10.7,6.56Zm-2.09,3.87-.21-.15c-3.9-2.53-7.86-5-12-7.09a69.76,69.76,0,0,0-8-3.6c-1.51-.56-3-1.09-4.58-1.56a36,36,0,0,0-3.71-.93c-1.17-.23-2.36-.32-3.54-.47l-1.17-.12L587.52,238l1.15.12c1.33.18,2.67.29,4,.56a48.85,48.85,0,0,1,7.81,2.37,78.7,78.7,0,0,1,8.67,4c3.82,2,7.5,4.28,11.13,6.62l.4.25ZM592.95,241h0c.08-.4.17-.79.24-1.19s0-.4-.24-.44c-.58-.12-1.17-.24-1.76-.33a.36.36,0,0,0-.46.31q-.26,1.17-.49,2.35c0,.26,0,.38.31.43q.82.17,1.64.3c.32.05.45,0,.52-.35S592.87,241.38,592.95,241Zm9.5-26.74c.07-.36.16-.71.22-1.07s0-.5-.37-.6-1-.27-1.49-.39c-.34-.08-.48,0-.56.34q-.24,1.09-.45,2.19c-.07.36,0,.46.35.56l1.53.39c.35.08.46,0,.55-.34S602.37,214.64,602.44,214.28Zm-13.28,26.11c.08-.37.16-.74.23-1.11s0-.48-.38-.52c-.51-.06-1-.11-1.54-.15s-.51.08-.59.46q-.23,1.05-.44,2.11c-.07.37,0,.47.37.52.54.07,1.08.12,1.62.17.3,0,.44-.08.51-.4S589.09,240.75,589.16,240.39Zm7.55,1.5h0c.08-.37.16-.74.23-1.12a.41.41,0,0,0-.35-.55c-.51-.14-1-.28-1.53-.4-.34-.08-.47,0-.55.35q-.24,1.09-.45,2.19c-.07.34,0,.47.35.56l1.5.39c.37.09.5,0,.58-.36S596.64,242.25,596.71,241.89Zm-1.82-29.11c.08-.38.17-.77.24-1.15s0-.43-.32-.46q-.85-.1-1.7-.16a.39.39,0,0,0-.48.34q-.26,1.15-.48,2.31c-.05.26.05.4.3.43.56.07,1.13.13,1.7.17.32,0,.44-.08.51-.4S594.82,213.13,594.9,212.77Zm8.83,1.88c-.08.37-.16.74-.23,1.11s0,.47.31.57q.78.28,1.58.53c.3.09.43,0,.49-.3q.24-1.11.46-2.23a.44.44,0,0,0-.33-.57c-.51-.18-1-.35-1.54-.51-.33-.1-.44,0-.52.32S603.79,214.3,603.72,214.66Zm-3.35,28.43h0c.07-.36.15-.72.22-1.08s0-.5-.34-.63q-.74-.28-1.5-.52c-.32-.1-.47,0-.54.34q-.23,1.07-.45,2.15c-.07.34,0,.48.33.59l1.54.53c.29.1.44,0,.51-.28S600.29,243.46,600.37,243.09Zm-1.68-29.72c.07-.36.15-.72.22-1.07s0-.5-.38-.57-1-.18-1.52-.26c-.35-.05-.48,0-.56.37q-.24,1.09-.45,2.19c-.07.34,0,.47.38.54l1.56.27c.32.05.45,0,.52-.35S598.61,213.74,598.69,213.37Zm11,3.56c.08-.38.17-.77.24-1.15a.44.44,0,0,0-.27-.57c-.52-.23-1-.45-1.57-.66a.3.3,0,0,0-.46.24c-.17.78-.33,1.56-.49,2.35a.4.4,0,0,0,.23.47c.54.24,1.09.47,1.65.69.27.1.37,0,.43-.25S609.58,217.3,609.66,216.93Zm-8,26.66c-.07.36-.15.72-.22,1.07a.47.47,0,0,0,.32.61l1.46.61c.32.13.45.07.52-.27q.24-1.11.46-2.23a.44.44,0,0,0-.3-.58c-.49-.22-1-.43-1.5-.63-.31-.12-.44,0-.52.3S601.69,243.22,601.61,243.59Zm11.53-25c.08-.37.15-.74.23-1.11a.48.48,0,0,0-.25-.58c-.5-.26-1-.51-1.53-.75-.26-.12-.41,0-.47.25-.17.75-.32,1.51-.47,2.27a.47.47,0,0,0,.25.55c.52.27,1,.52,1.57.76.26.12.38,0,.44-.23S613.06,218.93,613.14,218.55Zm-5.74,27.62c.08-.37.16-.74.23-1.11a.48.48,0,0,0-.28-.6q-.72-.38-1.46-.72c-.32-.15-.45-.08-.52.26q-.24,1.09-.45,2.19a.5.5,0,0,0,.3.63l1.46.71c.29.14.42.07.49-.25S607.33,246.54,607.41,246.17Zm3.38,1.87c.08-.37.15-.74.23-1.11a.55.55,0,0,0-.27-.66c-.48-.27-1-.55-1.45-.81-.26-.14-.4-.06-.47.23-.16.74-.31,1.48-.47,2.23a.54.54,0,0,0,.3.64c.47.26.94.53,1.42.79.29.16.41.1.48-.24S610.72,248.39,610.79,248Zm3.54-28.83c-.07.34-.15.69-.21,1a.57.57,0,0,0,.33.74l1.35.74c.32.17.43.13.51-.23.16-.73.3-1.46.46-2.19a.57.57,0,0,0-.32-.68c-.46-.25-.92-.52-1.39-.76-.29-.15-.42-.09-.49.23S614.4,218.83,614.33,219.2Zm-.24,30.8c.08-.37.15-.74.23-1.11a.56.56,0,0,0-.28-.66c-.46-.29-.92-.57-1.38-.85-.28-.16-.42-.1-.49.22-.16.73-.3,1.46-.46,2.19a.59.59,0,0,0,.3.69l1.39.84c.27.16.39.1.46-.21S614,250.37,614.09,250Zm5.73-27.61c.08-.37.15-.74.23-1.11a.57.57,0,0,0-.27-.66c-.46-.29-.92-.57-1.38-.84-.29-.17-.43-.1-.49.21-.16.74-.31,1.48-.46,2.22a.56.56,0,0,0,.26.63c.47.3.94.59,1.42.87.28.16.4.1.47-.24S619.75,222.75,619.82,222.39Zm.69,31.88c.08-.37.15-.74.23-1.11a.62.62,0,0,0-.27-.7c-.45-.31-.89-.62-1.34-.91-.27-.18-.39-.13-.46.19-.17.75-.32,1.51-.47,2.26a.56.56,0,0,0,.24.61c.46.33.93.65,1.4,1,.24.16.37.1.43-.18S620.43,254.65,620.51,254.27Zm2.54-29.81c.08-.37.15-.74.23-1.11a.56.56,0,0,0-.25-.64c-.46-.31-.93-.61-1.4-.91-.25-.16-.38-.11-.44.17-.17.77-.33,1.54-.48,2.31a.53.53,0,0,0,.22.57c.48.33,1,.65,1.46,1,.23.14.34.08.41-.19S623,224.85,623.06,224.46Zm-5.73,27.61c.08-.37.15-.74.23-1.11a.54.54,0,0,0-.22-.61c-.47-.32-.94-.64-1.43-.94-.25-.15-.38-.09-.44.19-.17.75-.32,1.51-.47,2.27a.57.57,0,0,0,.26.63c.46.31.92.61,1.4.91.25.16.36.1.43-.18S617.24,252.45,617.32,252.07Zm7.21-28.26a2.39,2.39,0,0,0-.13.34c-.16.73-.3,1.46-.46,2.19a.62.62,0,0,0,.29.7l1.27.87c.33.22.44.17.52-.22.15-.7.29-1.41.44-2.11a.65.65,0,0,0-.28-.74l-1.28-.87A2.22,2.22,0,0,0,624.53,223.81Z"/><path class="cls-7" d="M440.33,221.52l.1-.46q3.25-15.67,6.5-31.35a.81.81,0,0,1,.58-.67,33.35,33.35,0,0,1,12.2-2.25,47.73,47.73,0,0,1,6.57.38,53.22,53.22,0,0,1,6.59,1.25A47.37,47.37,0,0,1,484.31,193l.49.29-6.71,32.33-.4-.22a45.25,45.25,0,0,0-7.12-3.25,52.45,52.45,0,0,0-8.81-2.27,48.63,48.63,0,0,0-11.29-.6,31.37,31.37,0,0,0-9.49,2.08l-.5.18Zm2.23-5h.15l.35-.11a32,32,0,0,1,8-1.6,47.86,47.86,0,0,1,12.1.66,52.82,52.82,0,0,1,8.29,2.17,46.24,46.24,0,0,1,5.95,2.61l.44.21,4.82-23.22-.41-.22a47.24,47.24,0,0,0-9.79-3.8,54.86,54.86,0,0,0-6.73-1.35,47.57,47.57,0,0,0-7.13-.43,34.67,34.67,0,0,0-10.82,1.77.64.64,0,0,0-.48.55Q445,205,442.65,216.13Zm18.18.76c-.07.36-.15.72-.22,1.08s0,.5.38.56l1.52.25c.35.05.49,0,.57-.41q.23-1.05.44-2.11c.08-.39,0-.53-.4-.59s-1-.17-1.53-.24c-.31,0-.46.05-.53.36S460.82,216.93,460.75,217.3Zm12-26.35c.08-.37.16-.74.23-1.12s0-.45-.26-.52c-.56-.15-1.13-.29-1.7-.41a.36.36,0,0,0-.48.32q-.25,1.15-.48,2.31a.35.35,0,0,0,.29.46q.81.21,1.62.4c.34.08.47,0,.55-.36S472.63,191.31,472.71,191ZM467,218.56c.07-.33.14-.66.21-1s0-.57-.41-.68-1-.24-1.47-.34-.49,0-.57.39q-.23,1.05-.44,2.11c-.07.38,0,.52.4.61l1.51.35c.34.07.46,0,.54-.36S466.9,218.91,467,218.56Zm7-27.3c-.07.36-.15.72-.22,1.07s0,.55.38.67l1.47.47c.31.1.46,0,.53-.31q.24-1.09.45-2.19c.07-.34,0-.48-.33-.59q-.75-.26-1.51-.48c-.37-.11-.48,0-.57.36S474.07,190.93,474,191.26Zm-3.35,28.42c.08-.37.16-.74.23-1.11s0-.45-.29-.55c-.54-.19-1.08-.36-1.62-.52a.33.33,0,0,0-.47.26q-.26,1.17-.49,2.35a.38.38,0,0,0,.28.47c.54.18,1.08.36,1.63.51.31.09.42,0,.49-.3S470.58,220,470.65,219.68Zm-4.17-30c-.08.37-.16.74-.23,1.11s0,.47.35.53c.52.1,1,.18,1.56.26.35.05.48,0,.55-.37q.24-1.09.45-2.19c.06-.32,0-.47-.34-.53q-.8-.15-1.6-.26c-.33,0-.45.07-.53.41S466.56,189.31,466.49,189.66Zm7.74,31.48c.08-.37.16-.74.23-1.12s0-.51-.36-.67-.95-.4-1.43-.59c-.32-.13-.47,0-.55.31q-.23,1.07-.45,2.15c-.07.35,0,.49.35.63l1.46.61c.31.12.44,0,.52-.29S474.16,221.48,474.23,221.13Zm3.41-28.59c-.07.36-.16.71-.22,1.07a.46.46,0,0,0,.32.61q.73.31,1.47.6c.35.14.47.07.55-.29q.23-1.07.45-2.15a.49.49,0,0,0-.33-.65q-.73-.31-1.47-.59c-.32-.12-.45,0-.53.28S477.71,192.17,477.64,192.54Zm-16.33-3.3c.07-.36.16-.71.22-1.07s0-.48-.4-.48-1,0-1.54,0c-.36,0-.5.12-.58.5q-.23,1.05-.44,2.11c-.08.38,0,.49.42.5h1.5c.38,0,.51-.09.6-.47S461.23,189.6,461.31,189.24Zm-5.75,27.68c.08-.37.16-.74.23-1.11s0-.48-.37-.5c-.54,0-1.08,0-1.62,0a.46.46,0,0,0-.5.43q-.24,1.11-.46,2.23c-.06.31,0,.43.36.43h1.58c.37,0,.5-.11.58-.49S455.49,217.25,455.56,216.92Zm1.36,0c-.07.36-.15.72-.22,1.07s0,.47.36.51l1.62.15a.4.4,0,0,0,.49-.37q.25-1.13.47-2.27c.06-.3,0-.43-.35-.47q-.79-.09-1.58-.14c-.37,0-.49.08-.57.43S457,216.56,456.92,216.92Zm5.73-27.61c-.08.38-.17.77-.24,1.15s0,.4.3.43q.85.09,1.7.14c.31,0,.42-.07.49-.37q.25-1.13.47-2.27c.06-.29-.05-.43-.36-.46-.54-.05-1.08-.1-1.62-.13-.32,0-.44.08-.51.39S462.73,188.94,462.65,189.31ZM481.2,194c-.08.38-.16.77-.24,1.15a.47.47,0,0,0,.28.6q.73.4,1.48.77c.26.13.4.08.46-.19.17-.77.33-1.54.48-2.31a.5.5,0,0,0-.27-.58c-.5-.27-1-.53-1.51-.78-.24-.12-.38,0-.44.23S481.28,193.64,481.2,194Zm-5.74,27.64c-.08.37-.16.74-.23,1.11a.48.48,0,0,0,.27.61q.73.39,1.48.76c.28.14.4.09.47-.21.17-.75.32-1.51.47-2.27a.5.5,0,0,0-.26-.59c-.5-.27-1-.54-1.51-.78-.27-.13-.39-.05-.46.25S475.54,221.28,475.46,221.65Zm-23.76-4.73c.08-.37.16-.74.23-1.11s0-.46-.37-.43c-.53,0-1,.09-1.57.13a.54.54,0,0,0-.53.47c-.15.74-.31,1.48-.46,2.22-.06.33,0,.43.35.41l1.61-.14c.32,0,.44-.15.51-.48S451.63,217.28,451.71,216.92Zm5.74-27.63h0c.08-.38.17-.77.24-1.15s0-.39-.32-.37c-.55,0-1.1.08-1.66.13a.52.52,0,0,0-.5.45c-.15.76-.32,1.51-.47,2.27-.06.3,0,.4.34.38l1.62-.13c.35,0,.46-.14.54-.5S457.37,189.65,457.44,189.29Zm-9.56,28c.08-.37.16-.74.23-1.12s0-.41-.34-.36c-.53.09-1.06.2-1.6.31a.6.6,0,0,0-.51.51c-.15.74-.31,1.49-.46,2.23-.06.32,0,.41.34.35l1.6-.3a.61.61,0,0,0,.52-.54C447.73,218,447.81,217.65,447.89,217.29Zm3.28-27.14c-.08.37-.16.74-.23,1.11s0,.4.35.34l1.59-.31a.58.58,0,0,0,.51-.5c.15-.74.31-1.48.46-2.22.06-.32,0-.42-.37-.37-.52.09-1,.19-1.55.3a.62.62,0,0,0-.53.54C451.33,189.41,451.24,189.78,451.17,190.15Zm-3.91,2.55a.81.81,0,0,0,.21,0c.58-.19,1.16-.37,1.73-.58a.67.67,0,0,0,.44-.54c.15-.73.31-1.46.45-2.19.07-.34,0-.43-.37-.33-.49.15-1,.32-1.46.49a.79.79,0,0,0-.55.64c-.15.72-.3,1.43-.44,2.15A1.89,1.89,0,0,0,447.26,192.69Zm-5.73,27.62a1.19,1.19,0,0,0,.25,0l1.69-.56a.67.67,0,0,0,.44-.54c.15-.73.31-1.46.45-2.19.07-.33,0-.43-.37-.33-.49.15-1,.32-1.46.48a.79.79,0,0,0-.55.64c-.14.72-.3,1.43-.44,2.15A2,2,0,0,0,441.52,220.31Z"/><path class="cls-7" d="M584.74,242.34l-2.49.15a116.24,116.24,0,0,0-16,2,65.75,65.75,0,0,0-14,4.38c-1.38.62-2.71,1.37-4.06,2.06l-1.11.55c0-.18,0-.28,0-.38.13-.64.26-1.27.4-1.91q3.07-14.77,6.13-29.55a.91.91,0,0,1,.55-.71c1.26-.63,2.49-1.32,3.76-1.93a57.2,57.2,0,0,1,9.24-3.45,89.41,89.41,0,0,1,14.63-2.79c3-.34,6.09-.57,9.15-.74h.4C591.44,210.32,585,241.59,584.74,242.34Zm4.41-27.72h-.38c-3.71.27-7.42.62-11.11,1.15a80.87,80.87,0,0,0-13.77,3.13,44.09,44.09,0,0,0-8.12,3.42c-.41.24-.82.48-1.25.67a.82.82,0,0,0-.5.67q-1.12,5.5-2.28,11l-2.33,11.23c0,.15-.05.3-.09.54.4-.21.73-.37,1-.55a39,39,0,0,1,6.27-2.89,75,75,0,0,1,13.66-3.57c4.52-.77,9.07-1.22,13.63-1.56l.4,0Zm-1.7-2.29c-.07.36-.15.72-.22,1.07s0,.5.4.51h1.5c.39,0,.53-.11.62-.5q.22-1,.43-2.07c.08-.41,0-.53-.42-.54s-1,0-1.5,0-.51.11-.59.48S587.52,212,587.45,212.33ZM584.23,240c.07-.36.16-.72.22-1.08s0-.46-.36-.47c-.53,0-1.06,0-1.58,0a.49.49,0,0,0-.57.46q-.24,1.09-.45,2.19c-.06.33,0,.43.39.44l1.5,0c.43,0,.55-.1.64-.52S584.16,240.32,584.23,240Zm-6.35.16c-.07.36-.15.71-.22,1.07s0,.49.41.47l1.5-.09c.38,0,.5-.13.58-.5q.23-1.07.45-2.14c.07-.37,0-.47-.4-.45s-1,.05-1.54.1a.51.51,0,0,0-.55.48C578,239.42,578,239.78,577.88,240.14Zm5.73-27.61c-.08.38-.17.77-.24,1.15s0,.4.34.39c.55,0,1.11-.06,1.66-.1a.48.48,0,0,0,.49-.45q.24-1.11.46-2.23c.06-.32,0-.44-.36-.42-.53,0-1.05.05-1.58.1-.36,0-.48.15-.57.52S583.69,212.18,583.62,212.52Zm-9.56,28c-.08.37-.16.74-.23,1.11s0,.43.34.4l1.61-.2a.58.58,0,0,0,.54-.52c.14-.72.3-1.43.44-2.15.07-.35,0-.46-.37-.43-.52.05-1,.13-1.57.19a.57.57,0,0,0-.54.51C574.21,239.86,574.13,240.22,574.06,240.57Zm5.74-27.63c-.08.38-.17.77-.24,1.15s0,.41.34.37c.55-.06,1.1-.13,1.65-.21a.54.54,0,0,0,.49-.46c.16-.74.31-1.48.46-2.23.06-.32,0-.43-.37-.4l-1.57.19a.59.59,0,0,0-.56.54C579.95,212.26,579.87,212.6,579.8,212.95Zm-7.56,1.47c-.08.38-.17.77-.24,1.15s0,.41.34.34l1.58-.36a.65.65,0,0,0,.53-.55c.15-.73.31-1.45.45-2.18.07-.34,0-.43-.36-.36l-1.54.35a.68.68,0,0,0-.55.57Zm-3.31,27.17c.08-.37.16-.74.23-1.11s0-.47-.4-.39l-1.46.33a.7.7,0,0,0-.58.6c-.14.7-.3,1.41-.43,2.11-.08.39,0,.47.4.39l1.46-.33a.69.69,0,0,0,.58-.59C568.78,242.25,568.86,241.92,568.93,241.59Zm9.52-28.39c.07-.36.15-.72.22-1.08s0-.46-.37-.4l-1.52.27a.63.63,0,0,0-.57.55c-.14.72-.3,1.43-.44,2.15-.07.37,0,.46.37.4l1.56-.28a.59.59,0,0,0,.52-.54C578.29,213.91,578.37,213.56,578.44,213.2Zm-5.74,27.63c.08-.37.16-.74.23-1.11s0-.44-.34-.39c-.53.08-1.06.19-1.59.29a.59.59,0,0,0-.51.5c-.15.74-.31,1.48-.46,2.22-.07.33,0,.42.37.36l1.55-.28a.59.59,0,0,0,.53-.52C572.55,241.54,572.63,241.19,572.71,240.83Zm-4.19-25.39c-.07.36-.15.72-.22,1.08s0,.47.4.36l1.45-.4a.72.72,0,0,0,.57-.61c.14-.7.29-1.41.43-2.11.08-.39,0-.47-.41-.36l-1.45.4a.73.73,0,0,0-.57.62C568.66,214.75,568.58,215.1,568.51,215.44Zm-5.73,27.61h0c-.08.38-.17.77-.24,1.15s0,.38.3.31c.56-.15,1.12-.3,1.68-.47a.61.61,0,0,0,.44-.49c.16-.74.32-1.48.46-2.23.07-.34,0-.42-.37-.33l-1.49.41a.73.73,0,0,0-.57.62C562.93,242.36,562.85,242.71,562.78,243.05Zm-3.67,1.15c-.08.37-.16.74-.23,1.11s0,.42.32.33c.53-.16,1.06-.33,1.59-.51a.66.66,0,0,0,.46-.52c.16-.76.32-1.51.47-2.27.06-.29,0-.38-.34-.29-.52.16-1,.33-1.55.5a.7.7,0,0,0-.51.58C559.27,243.49,559.19,243.84,559.11,244.2Zm5.73-27.6c-.08.37-.16.74-.23,1.11s0,.41.34.31l1.55-.49A.72.72,0,0,0,567,217c.15-.72.3-1.43.44-2.15.07-.37,0-.45-.38-.35l-1.47.47a.75.75,0,0,0-.55.64C565,215.91,564.91,216.26,564.84,216.6Zm-6.75,26.63a2,2,0,0,0-.38,0l-1.53.54a.75.75,0,0,0-.5.59c-.15.73-.31,1.46-.45,2.19a1.83,1.83,0,0,0,0,.37,3.46,3.46,0,0,0,.36-.08l1.41-.5a.84.84,0,0,0,.6-.7c.13-.68.28-1.35.42-2C558.07,243.55,558.07,243.43,558.1,243.23Zm2.85-23.88a3.49,3.49,0,0,0,.43-.08l1.41-.5a.81.81,0,0,0,.57-.67c.14-.69.29-1.38.42-2.07a3.46,3.46,0,0,0,0-.44,4.46,4.46,0,0,0-.44.1c-.45.15-.89.33-1.34.47a.87.87,0,0,0-.63.72c-.13.66-.27,1.32-.41,2C561,219,561,219.13,560.94,219.35Zm-9.25,29a1,1,0,0,0,.24,0c.5-.21,1-.44,1.49-.64A.88.88,0,0,0,554,247c.13-.68.28-1.35.42-2a3.51,3.51,0,0,0,0-.41.93.93,0,0,0-.28,0c-.49.2-1,.39-1.46.61a1,1,0,0,0-.56.75c-.14.7-.29,1.41-.43,2.11C551.71,248.14,551.7,248.23,551.69,248.39ZM560.2,217c-.1,0-.14-.05-.17,0a6.42,6.42,0,0,0-1.75.73.9.9,0,0,0-.38.6c-.15.73-.3,1.45-.45,2.18a1.87,1.87,0,0,0,0,.32,1,1,0,0,0,.19,0l1.56-.67a.83.83,0,0,0,.53-.66c.14-.69.29-1.38.43-2.06C560.18,217.25,560.18,217.13,560.2,217ZM551,246.2a3.81,3.81,0,0,0-.4.13l-1.35.66a.91.91,0,0,0-.54.7c-.13.69-.28,1.38-.42,2.07,0,.11,0,.23-.05.42a2.67,2.67,0,0,0,.42-.11l1.31-.64a1,1,0,0,0,.56-.74c.13-.69.28-1.38.42-2.07C551,246.52,551,246.41,551,246.2Zm5.72-27.58a1.6,1.6,0,0,0-.33.07l-1.46.71a.86.86,0,0,0-.48.66c-.14.72-.3,1.43-.44,2.15a3.16,3.16,0,0,0,0,.36,1.78,1.78,0,0,0,.34-.08l1.42-.7a.92.92,0,0,0,.51-.69c.14-.7.29-1.4.43-2.11C556.73,218.89,556.73,218.78,556.75,218.62Z"/><path class="cls-7" d="M478.45,225.79l6.7-32.28a1.86,1.86,0,0,1,.26.12c.89.61,1.8,1.21,2.68,1.84a23.15,23.15,0,0,1,4.46,4.42,81.42,81.42,0,0,0,7.18,8,56.28,56.28,0,0,0,8.68,6.94,62.17,62.17,0,0,0,6.11,3.3l.43.21-6.71,32.3a.84.84,0,0,1-.19,0,57.26,57.26,0,0,1-7.52-4.18A60.71,60.71,0,0,1,489.86,237c-1.53-1.7-3-3.46-4.45-5.24A26.07,26.07,0,0,0,479,226.2l-.48-.31A.72.72,0,0,1,478.45,225.79Zm34.31-3.35-.1-.08-.25-.13a51.59,51.59,0,0,1-12.82-8.92,76.9,76.9,0,0,1-7.77-8.47,25.77,25.77,0,0,0-6-5.68l-.4-.26-.1.5-4.62,22.26a1,1,0,0,0-.05.28.56.56,0,0,0,.1.28.89.89,0,0,0,.23.16,24.86,24.86,0,0,1,5.66,5.21c1.55,1.94,3.14,3.84,4.85,5.64a54.8,54.8,0,0,0,16.13,12.22l.39.18Zm-7.2,24.37c-.08.37-.16.74-.23,1.11a.52.52,0,0,0,.29.64c.48.25,1,.5,1.45.73.29.14.43.06.5-.25q.24-1.11.46-2.23a.49.49,0,0,0-.29-.61q-.74-.38-1.49-.74c-.27-.13-.4-.07-.47.22S505.64,246.44,505.56,246.81Zm8-26.49.23-1.11a.49.49,0,0,0-.26-.58c-.5-.26-1-.52-1.52-.77-.27-.13-.4-.06-.47.24-.16.74-.31,1.49-.47,2.23a.52.52,0,0,0,.27.62c.49.26,1,.51,1.49.74.29.14.42.07.49-.25S513.47,220.69,513.54,220.32Zm-5.59-3c-.07.36-.15.72-.22,1.07a.57.57,0,0,0,.26.67c.47.29.94.58,1.43.85.27.15.39.09.46-.22.16-.74.3-1.48.47-2.22a.55.55,0,0,0-.28-.65l-1.39-.83c-.29-.16-.41-.11-.48.22S508,216.92,508,217.29Zm-3.57,28.85c.07-.36.14-.72.23-1.07a.54.54,0,0,0-.27-.66c-.46-.28-.92-.56-1.39-.83-.29-.17-.42-.11-.49.21-.16.74-.31,1.48-.46,2.22a.56.56,0,0,0,.26.63c.47.29.94.58,1.42.85.27.15.4.09.47-.21S504.3,246.52,504.38,246.14Zm-3.28-2c.07-.36.14-.72.22-1.07a.64.64,0,0,0-.28-.74l-1.3-.9c-.3-.2-.41-.16-.49.21-.15.71-.3,1.43-.45,2.14a.66.66,0,0,0,.29.74c.42.29.84.59,1.27.88s.43.16.52-.23S501,244.51,501.11,244.17Zm5.74-27.63.23-1.11a.6.6,0,0,0-.27-.67c-.45-.32-.9-.64-1.36-.95-.24-.16-.37-.11-.43.18-.17.75-.32,1.51-.47,2.26a.6.6,0,0,0,.25.64c.45.32.9.64,1.36.95.26.17.39.11.46-.19S506.77,216.91,506.84,216.54Zm-19.28-18.65h0c.08-.37.15-.74.23-1.11a.59.59,0,0,0-.21-.65c-.46-.34-.92-.67-1.39-1-.24-.16-.37-.09-.43.19-.16.76-.31,1.51-.48,2.27a.54.54,0,0,0,.2.58q.72.53,1.46,1c.21.14.32.09.38-.16S487.48,198.27,487.56,197.88Zm-5.73,27.59c.07-.36.14-.72.23-1.07a.63.63,0,0,0-.25-.71c-.44-.31-.88-.63-1.33-.93-.27-.18-.39-.12-.46.19-.16.76-.32,1.51-.47,2.27a.53.53,0,0,0,.21.58c.47.34.94.68,1.43,1,.22.15.35.1.41-.16S481.75,225.86,481.83,225.48Zm19.91-12.71c-.07.34-.14.69-.22,1a.72.72,0,0,0,.27.79c.4.32.8.65,1.2,1s.4.18.47-.16c.16-.74.31-1.49.46-2.23a.63.63,0,0,0-.23-.65c-.43-.35-.86-.7-1.3-1-.25-.19-.36-.14-.44.18S501.82,212.39,501.74,212.76ZM496,240.37c-.07.36-.14.72-.22,1.07a.68.68,0,0,0,.25.73c.41.34.82.67,1.23,1s.4.18.48-.16c.16-.74.31-1.49.46-2.23a.65.65,0,0,0-.26-.68l-1.24-1c-.29-.23-.39-.19-.48.19S496.08,240,496,240.37Zm4.73-28.52.22-1.07a.75.75,0,0,0-.25-.77l-1.13-1c-.29-.26-.4-.23-.48.14-.15.71-.3,1.43-.45,2.15a.77.77,0,0,0,.24.77c.38.35.75.7,1.13,1s.4.22.48-.14S500.67,212.21,500.74,211.85Zm-7.22,24.52a1.79,1.79,0,0,0-.14.32c-.16.73-.31,1.46-.46,2.19a.75.75,0,0,0,.23.74c.39.37.79.74,1.19,1.1.23.21.36.17.43-.12.17-.75.32-1.51.47-2.27a.68.68,0,0,0-.21-.67l-1.28-1.18A1.2,1.2,0,0,0,493.52,236.37Zm-9.17-6.93a.94.94,0,0,0,.1-.18q.26-1.21.51-2.42a.69.69,0,0,0-.23-.66c-.38-.36-.76-.73-1.16-1.08s-.38-.19-.45.16c-.15.71-.29,1.43-.45,2.14a.76.76,0,0,0,.26.8l1.13,1A2.26,2.26,0,0,0,484.35,229.44ZM489,197.33a1.3,1.3,0,0,0-.11.22q-.25,1.17-.49,2.34a.66.66,0,0,0,.23.65l1.22,1.13a1.4,1.4,0,0,0,.28.15,1.64,1.64,0,0,0,.09-.23l.49-2.34a.71.71,0,0,0-.24-.69c-.37-.35-.75-.7-1.13-1A1.72,1.72,0,0,0,489,197.33Zm8.6,13.31a1.67,1.67,0,0,0,.11-.25l.49-2.35a.72.72,0,0,0-.21-.67l-1.15-1.21a1.15,1.15,0,0,0-.25-.15,1.28,1.28,0,0,0-.11.24q-.25,1.15-.48,2.31a.77.77,0,0,0,.22.71l1.09,1.15A2.32,2.32,0,0,0,497.57,210.63Zm-5.74,27.6a1,1,0,0,0,.1-.18l.51-2.43a.69.69,0,0,0-.2-.63l-1.18-1.24a1,1,0,0,0-.25-.13,1.73,1.73,0,0,0-.1.25c-.16.76-.31,1.51-.47,2.27a.8.8,0,0,0,.23.74l1.06,1.12A2.3,2.3,0,0,0,491.83,238.24Zm-2.62-2.82a1.32,1.32,0,0,0,.13-.26q.25-1.15.48-2.31a.8.8,0,0,0-.18-.68l-1.09-1.31a.9.9,0,0,0-.22-.14.6.6,0,0,0-.08.13c-.17.82-.35,1.64-.52,2.46a.76.76,0,0,0,.18.64l1.07,1.28A1.67,1.67,0,0,0,489.21,235.41ZM495,207.79a1.58,1.58,0,0,0,.12-.27q.24-1.13.47-2.26a.86.86,0,0,0-.2-.75l-1-1.21a2.19,2.19,0,0,0-.26-.22,1.25,1.25,0,0,0-.12.24q-.25,1.15-.48,2.3a.83.83,0,0,0,.18.72l1,1.22A2.09,2.09,0,0,0,495,207.79Zm-9,19.85a1.11,1.11,0,0,0-.11.21q-.25,1.19-.49,2.38a.82.82,0,0,0,.2.68l1,1.26a2.61,2.61,0,0,0,.24.24,1.24,1.24,0,0,0,.13-.25c.16-.77.34-1.53.47-2.31a.92.92,0,0,0-.11-.62c-.35-.51-.74-1-1.12-1.49C486.13,227.72,486.07,227.7,486,227.65Zm6.55-22.84a1.25,1.25,0,0,0,.11-.21c.17-.8.34-1.59.5-2.39a.82.82,0,0,0-.16-.65q-.49-.67-1-1.33a1.26,1.26,0,0,0-.26-.19,1.35,1.35,0,0,0-.1.22q-.25,1.17-.49,2.35a.82.82,0,0,0,.19.68l1,1.26A2.85,2.85,0,0,0,492.53,204.81Z"/><path class="cls-5" d="M510.86,246.95l4.82-23.22.83.29c1.51.52,3,1.08,4.53,1.56a32.42,32.42,0,0,0,4.64,1.05c1.48.24,3,.45,4.47.6a51.4,51.4,0,0,0,8.52.09,42.24,42.24,0,0,0,10.08-2.06l2-.66.43-.13c0,.14,0,.24,0,.34l-4.68,22.54c0,.19-.08.35-.31.42a55.29,55.29,0,0,1-8.94,2.4,46.52,46.52,0,0,1-8.3.52,50.39,50.39,0,0,1-5.39-.4,48.76,48.76,0,0,1-6.9-1.33c-1.76-.49-3.48-1.12-5.19-1.77Z"/><path class="cls-5" d="M519.78,251.93c-.08.37-.15.74-.23,1.11s-.21.41-.53.35c-.53-.11-1.06-.23-1.59-.36a.4.4,0,0,1-.34-.54q.22-1.12.46-2.23c.06-.29.21-.39.5-.33.54.11,1.09.23,1.63.37.31.08.38.23.32.55S519.86,251.58,519.78,251.93Z"/><path class="cls-5" d="M529.3,224.95c-.08.37-.15.74-.23,1.11s-.22.41-.52.37c-.54-.07-1.07-.15-1.61-.25-.33-.06-.41-.19-.35-.51q.21-1.1.45-2.19c.07-.33.21-.43.55-.38l1.57.23c.34.06.42.18.35.54S529.38,224.59,529.3,224.95Z"/><path class="cls-5" d="M525.51,224.35c-.07.35-.14.69-.22,1s-.22.47-.57.4c-.52-.11-1-.23-1.54-.36-.34-.09-.41-.22-.35-.57q.21-1.08.45-2.15c.08-.36.22-.45.58-.37l1.5.35c.35.09.44.21.36.59S525.59,224,525.51,224.35Z"/><path class="cls-5" d="M523.57,252.58c-.07.36-.14.72-.22,1.07s-.2.44-.54.4q-.81-.1-1.61-.24c-.29-.05-.39-.21-.33-.5q.22-1.12.46-2.23c.07-.31.22-.41.52-.37.54.07,1.07.15,1.61.25.35.06.41.16.35.5S523.64,252.2,523.57,252.58Z"/><path class="cls-5" d="M516,251.05c-.07.36-.14.72-.23,1.07s-.22.43-.56.33l-1.4-.42c-.44-.14-.52-.27-.43-.72q.21-1,.42-2c.09-.44.17-.49.62-.36s.94.27,1.4.42.46.25.38.67S516.11,250.71,516,251.05Z"/><path class="cls-5" d="M519.37,222.69c.08-.37.15-.74.23-1.11s.19-.39.5-.3c.55.16,1.09.33,1.63.51a.38.38,0,0,1,.28.48q-.23,1.18-.49,2.35a.33.33,0,0,1-.47.26q-.82-.23-1.63-.51c-.26-.09-.34-.26-.28-.55S519.29,223.06,519.37,222.69Z"/><path class="cls-5" d="M510,248.93c.07-.36.14-.72.22-1.07s.2-.4.52-.28c.51.18,1,.38,1.51.58a.45.45,0,0,1,.31.58q-.22,1.12-.46,2.23c-.07.31-.2.39-.5.28q-.78-.28-1.55-.61a.46.46,0,0,1-.29-.6C509.87,249.67,510,249.3,510,248.93Z"/><path class="cls-5" d="M515.76,221.32c.07-.36.14-.72.22-1.07s.21-.41.52-.3l1.47.58a.47.47,0,0,1,.35.64q-.21,1.08-.45,2.15c-.08.36-.2.43-.55.31s-1-.37-1.48-.57a.47.47,0,0,1-.33-.61C515.6,222.06,515.69,221.69,515.76,221.32Z"/><path class="cls-5" d="M527.4,252.9c-.07.36-.14.72-.22,1.07s-.19.42-.5.41c-.54,0-1.08-.05-1.62-.1-.36,0-.44-.15-.37-.52q.21-1.08.45-2.15c.08-.35.22-.45.57-.43l1.54.1c.36,0,.45.14.39.5S527.48,252.53,527.4,252.9Z"/><path class="cls-5" d="M533.14,225.27c-.07.36-.14.72-.22,1.07s-.2.46-.52.44c-.55,0-1.11-.07-1.66-.12-.28,0-.38-.16-.32-.45q.22-1.14.47-2.27a.4.4,0,0,1,.49-.37q.83,0,1.66.12c.33,0,.4.14.34.46S533.22,224.9,533.14,225.27Z"/><path class="cls-5" d="M537,225.24c-.07.36-.14.72-.22,1.07s-.2.49-.57.51q-.79,0-1.58,0c-.31,0-.42-.13-.36-.44q.22-1.12.46-2.23c.07-.32.21-.42.54-.43l1.58,0c.36,0,.44.09.38.44S537.07,224.89,537,225.24Z"/><path class="cls-5" d="M540.83,225c-.07.36-.15.72-.22,1.07a.58.58,0,0,1-.55.51c-.54.06-1.08.11-1.62.15-.29,0-.4-.1-.34-.39.15-.76.31-1.51.47-2.27a.51.51,0,0,1,.48-.43l1.7-.16c.27,0,.37.09.32.36S540.91,224.58,540.83,225Z"/><path class="cls-5" d="M528.75,252.88c.07-.34.14-.69.22-1s.21-.48.58-.49l1.58,0c.32,0,.41.11.35.44q-.22,1.12-.46,2.23c-.07.32-.2.42-.55.43q-.79,0-1.58,0c-.34,0-.43-.12-.37-.46S528.68,253.25,528.75,252.88Z"/><path class="cls-5" d="M535.1,252.56c-.07.36-.14.72-.22,1.07a.56.56,0,0,1-.58.52c-.51.06-1,.11-1.53.15s-.47-.08-.39-.45q.21-1.08.45-2.15a.53.53,0,0,1,.55-.5l1.57-.15c.35,0,.44.07.37.43S535.18,252.2,535.1,252.56Z"/><path class="cls-5" d="M536.42,252.37c.07-.36.15-.71.22-1.07a.63.63,0,0,1,.57-.55l1.56-.28c.33-.06.42,0,.36.37-.14.73-.3,1.46-.45,2.19a.61.61,0,0,1-.5.52c-.54.11-1.09.21-1.63.3-.3,0-.4-.06-.35-.37S536.35,252.74,536.42,252.37Z"/><path class="cls-5" d="M544.63,224.34c-.07.34-.15.69-.21,1a.64.64,0,0,1-.55.57c-.53.1-1.06.2-1.6.28-.3,0-.4-.06-.34-.36.15-.76.31-1.51.47-2.26a.55.55,0,0,1,.47-.45l1.67-.3c.28,0,.38.06.33.34S544.71,224,544.63,224.34Z"/><path class="cls-5" d="M548.61,221.94c0,.18,0,.31-.05.44-.13.66-.28,1.32-.41,2a.79.79,0,0,1-.64.7c-.47.11-.94.26-1.41.37s-.46,0-.39-.36c.15-.73.3-1.46.45-2.19a.62.62,0,0,1,.46-.51l1.68-.46A1.18,1.18,0,0,1,548.61,221.94Z"/><path class="cls-5" d="M540.21,251.62c.07-.36.16-.72.22-1.08a.66.66,0,0,1,.52-.56l1.57-.42c.31-.08.4,0,.34.33-.14.73-.3,1.46-.45,2.19a.71.71,0,0,1-.55.58l-1.49.4c-.36.09-.44,0-.37-.37S540.13,252,540.21,251.62Z"/><path class="cls-5" d="M543.92,250.52c.07-.36.16-.71.22-1.07a.67.67,0,0,1,.44-.54q.8-.31,1.6-.58c.27-.09.37,0,.31.26-.15.77-.32,1.54-.48,2.31a.67.67,0,0,1-.43.51c-.53.21-1.06.4-1.6.59-.28.1-.37,0-.31-.3S543.84,250.91,543.92,250.52Z"/><path class="cls-5" d="M552.25,220.68c0,.17,0,.27,0,.38-.14.7-.3,1.4-.43,2.1a.8.8,0,0,1-.54.65l-1.45.52a2,2,0,0,1-.42,0c0-.18,0-.3.06-.42.14-.69.29-1.37.42-2.07a.8.8,0,0,1,.58-.66l1.41-.51A2.2,2.2,0,0,1,552.25,220.68Z"/><path class="cls-5" d="M625.49,228.69l-4.82,23.22-.4-.25c-3.63-2.34-7.31-4.6-11.13-6.62a78.7,78.7,0,0,0-8.67-4,48.85,48.85,0,0,0-7.81-2.37c-1.31-.26-2.65-.38-4-.56l-1.15-.12,4.82-23.23,1.17.12c1.18.15,2.38.25,3.54.47a36,36,0,0,1,3.71.93c1.54.47,3.06,1,4.58,1.56a69.76,69.76,0,0,1,8,3.6c4.13,2.14,8.09,4.57,12,7.09Z"/><path class="cls-5" d="M592.95,241c-.07.36-.14.72-.22,1.07s-.2.41-.52.35q-.82-.14-1.64-.3c-.27-.05-.36-.17-.31-.43q.23-1.18.49-2.35a.36.36,0,0,1,.46-.31c.59.09,1.17.2,1.76.33.22,0,.28.19.24.44s-.16.8-.25,1.19Z"/><path class="cls-5" d="M602.44,214.28c-.07.36-.14.72-.22,1.07s-.19.43-.55.34l-1.53-.39c-.35-.1-.42-.2-.35-.56q.22-1.1.45-2.19c.07-.33.21-.42.56-.34.5.12,1,.25,1.49.39s.43.25.37.6S602.52,213.93,602.44,214.28Z"/><path class="cls-5" d="M589.16,240.39c-.07.36-.14.72-.22,1.07s-.21.42-.51.4c-.54,0-1.08-.1-1.62-.17-.37,0-.44-.15-.37-.52q.21-1.06.44-2.11c.08-.38.22-.49.59-.46s1,.09,1.54.15c.35,0,.45.18.38.52S589.24,240,589.16,240.39Z"/><path class="cls-5" d="M596.71,241.89c-.07.36-.14.72-.22,1.07s-.22.45-.58.36l-1.5-.39c-.34-.09-.42-.22-.35-.56q.22-1.1.45-2.19c.07-.34.2-.43.55-.35.51.12,1,.26,1.53.4a.41.41,0,0,1,.35.55c-.06.37-.15.74-.23,1.12Z"/><path class="cls-5" d="M594.9,212.77c-.07.36-.14.72-.22,1.07s-.19.42-.51.4c-.57,0-1.13-.1-1.7-.17-.25,0-.35-.18-.3-.43q.22-1.16.48-2.31a.39.39,0,0,1,.48-.34q.85.06,1.7.16c.27,0,.37.18.32.46S595,212.39,594.9,212.77Z"/><path class="cls-5" d="M603.72,214.66c.07-.36.14-.72.22-1.07s.19-.42.52-.32c.52.16,1,.33,1.54.51a.44.44,0,0,1,.33.57q-.22,1.12-.46,2.23c-.07.32-.19.4-.49.3q-.8-.24-1.58-.53c-.29-.11-.37-.26-.31-.57S603.64,215,603.72,214.66Z"/><path class="cls-5" d="M600.37,243.09c-.08.37-.15.75-.23,1.11s-.22.38-.51.28l-1.54-.53c-.32-.12-.39-.25-.33-.59q.21-1.08.45-2.15c.08-.35.22-.45.54-.34q.75.24,1.5.52c.34.12.41.27.34.63s-.15.72-.22,1.08Z"/><path class="cls-5" d="M598.69,213.37c-.08.37-.15.74-.23,1.11s-.2.41-.52.35l-1.56-.27c-.35-.07-.45-.2-.38-.54q.21-1.1.45-2.19c.07-.34.21-.42.56-.37.51.08,1,.16,1.52.26s.45.2.38.57S598.77,213,598.69,213.37Z"/><path class="cls-5" d="M609.66,216.93c-.08.37-.15.74-.23,1.11s-.17.35-.43.25c-.56-.21-1.1-.44-1.65-.69a.4.4,0,0,1-.23-.47c.16-.78.32-1.57.49-2.35a.3.3,0,0,1,.46-.24c.53.21,1.05.43,1.57.66a.44.44,0,0,1,.27.57C609.82,216.16,609.74,216.54,609.66,216.93Z"/><path class="cls-5" d="M601.61,243.59c.08-.37.15-.74.23-1.11s.2-.42.52-.3c.5.2,1,.41,1.5.63a.44.44,0,0,1,.3.58q-.22,1.12-.46,2.23c-.07.34-.2.4-.52.27l-1.46-.61a.47.47,0,0,1-.32-.61C601.46,244.31,601.54,244,601.61,243.59Z"/><path class="cls-5" d="M613.14,218.55c-.08.38-.15.77-.24,1.15s-.18.34-.44.23c-.53-.24-1.05-.5-1.57-.76a.47.47,0,0,1-.25-.55c.16-.76.31-1.51.47-2.27.06-.29.21-.37.47-.25.52.24,1,.49,1.53.75a.48.48,0,0,1,.25.58C613.29,217.81,613.22,218.18,613.14,218.55Z"/><path class="cls-5" d="M607.41,246.17c-.08.37-.15.74-.23,1.11s-.2.38-.49.25l-1.46-.71a.5.5,0,0,1-.3-.63q.22-1.1.45-2.19c.07-.34.2-.4.52-.26q.74.34,1.46.72a.48.48,0,0,1,.28.6C607.57,245.43,607.49,245.8,607.41,246.17Z"/><path class="cls-5" d="M610.79,248c-.07.36-.14.72-.23,1.07s-.19.39-.48.24c-.48-.25-.95-.52-1.42-.79a.54.54,0,0,1-.3-.64c.16-.74.3-1.49.47-2.23.06-.3.21-.37.47-.23.49.26,1,.53,1.45.81a.55.55,0,0,1,.27.66C610.94,247.29,610.87,247.67,610.79,248Z"/><path class="cls-5" d="M614.33,219.2c.08-.37.15-.74.23-1.11s.2-.38.49-.23c.47.25.92.51,1.39.76a.57.57,0,0,1,.32.68c-.15.73-.3,1.46-.46,2.19-.08.36-.19.4-.51.23l-1.35-.74a.57.57,0,0,1-.33-.74C614.18,219.89,614.25,219.55,614.33,219.2Z"/><path class="cls-5" d="M614.09,250c-.08.37-.15.74-.23,1.11s-.19.36-.46.21l-1.39-.84a.59.59,0,0,1-.3-.69c.16-.73.3-1.46.46-2.19.07-.32.21-.38.49-.22.47.27.92.56,1.38.85a.56.56,0,0,1,.28.66C614.24,249.26,614.17,249.63,614.09,250Z"/><path class="cls-5" d="M619.82,222.39c-.07.36-.14.72-.22,1.07s-.19.4-.47.24c-.48-.28-.95-.57-1.42-.87a.56.56,0,0,1-.26-.63c.15-.74.3-1.48.46-2.22.07-.32.21-.38.49-.21.47.27.93.56,1.38.84a.57.57,0,0,1,.27.66C620,221.65,619.9,222,619.82,222.39Z"/><path class="cls-5" d="M620.51,254.27c-.08.37-.15.74-.23,1.11s-.2.34-.43.18c-.47-.31-.94-.64-1.4-1a.56.56,0,0,1-.24-.61c.15-.76.3-1.51.47-2.26.07-.32.19-.36.46-.19.45.3.89.61,1.34.91a.62.62,0,0,1,.27.7C620.66,253.53,620.59,253.9,620.51,254.27Z"/><path class="cls-5" d="M623.06,224.46c-.08.38-.15.77-.24,1.15s-.18.33-.41.19c-.5-.31-1-.63-1.46-1a.53.53,0,0,1-.22-.57c.16-.77.31-1.54.48-2.31.06-.28.19-.32.44-.17.47.29.93.6,1.4.91a.56.56,0,0,1,.25.64C623.21,223.72,623.13,224.09,623.06,224.46Z"/><path class="cls-5" d="M617.32,252.07c-.08.38-.15.77-.24,1.15s-.18.34-.43.18c-.47-.3-.93-.6-1.4-.91a.57.57,0,0,1-.26-.63c.16-.76.31-1.51.47-2.27.06-.28.2-.34.44-.19.48.3,1,.62,1.43.94a.54.54,0,0,1,.22.61C617.47,251.32,617.4,251.7,617.32,252.07Z"/><path class="cls-5" d="M624.53,223.81a2.22,2.22,0,0,1,.38.16l1.28.87a.65.65,0,0,1,.28.74c-.15.7-.29,1.41-.44,2.11-.08.39-.2.44-.52.22l-1.27-.87a.62.62,0,0,1-.29-.7c.15-.73.3-1.46.46-2.19A2.39,2.39,0,0,1,624.53,223.81Z"/><path class="cls-5" d="M442.57,216.55l.09-.42Q445,205,447.29,193.78a.64.64,0,0,1,.48-.55,34.67,34.67,0,0,1,10.82-1.77,47.57,47.57,0,0,1,7.13.43,54.86,54.86,0,0,1,6.73,1.35,47.24,47.24,0,0,1,9.79,3.8l.41.22-4.82,23.22-.44-.21a46.24,46.24,0,0,0-5.95-2.61,52.82,52.82,0,0,0-8.29-2.17,47.86,47.86,0,0,0-12.1-.66,32,32,0,0,0-8,1.6l-.35.11Z"/><path class="cls-5" d="M460.75,217.3c.08-.37.15-.74.23-1.11s.21-.4.53-.36c.51.07,1,.15,1.53.24s.48.21.4.59q-.21,1.06-.44,2.11c-.08.36-.22.46-.57.41l-1.52-.25c-.37-.06-.45-.19-.38-.56S460.67,217.66,460.75,217.3Z"/><path class="cls-5" d="M472.71,191c-.07.36-.14.72-.22,1.07s-.21.43-.55.36q-.81-.18-1.62-.4a.35.35,0,0,1-.29-.46q.22-1.16.48-2.31a.36.36,0,0,1,.48-.32c.57.12,1.14.26,1.7.41.24.06.32.23.26.52S472.78,190.58,472.71,191Z"/><path class="cls-5" d="M467,218.56c-.07.36-.14.72-.22,1.07s-.2.44-.54.36l-1.51-.35c-.38-.09-.47-.23-.4-.61q.21-1.06.44-2.11c.08-.37.21-.46.57-.39s1,.21,1.47.34.49.24.41.68S467,218.22,467,218.56Z"/><path class="cls-5" d="M474,191.26c.07-.33.13-.66.21-1s.2-.46.57-.36,1,.31,1.51.48c.32.11.39.26.33.59q-.22,1.1-.45,2.19c-.07.32-.22.4-.53.31l-1.47-.47c-.39-.13-.46-.27-.38-.67S473.92,191.62,474,191.26Z"/><path class="cls-5" d="M470.65,219.68c-.08.37-.15.74-.23,1.11s-.18.39-.49.3c-.55-.16-1.09-.33-1.63-.51a.38.38,0,0,1-.28-.47q.23-1.18.49-2.35a.33.33,0,0,1,.47-.26c.55.16,1.09.33,1.62.52.27.1.34.26.29.55S470.73,219.3,470.65,219.68Z"/><path class="cls-5" d="M466.49,189.66c.07-.34.14-.69.22-1s.2-.45.53-.41q.81.11,1.6.26c.31.06.41.21.34.53q-.21,1.1-.45,2.19c-.07.34-.2.42-.55.37-.52-.08-1-.16-1.56-.26-.37-.07-.43-.17-.35-.53S466.41,190,466.49,189.66Z"/><path class="cls-5" d="M474.23,221.13c-.07.35-.14.69-.22,1s-.21.41-.52.29l-1.46-.61c-.34-.14-.41-.28-.35-.63q.21-1.08.45-2.15c.08-.36.22-.44.55-.31q.72.28,1.43.59c.35.16.43.3.36.67S474.31,220.76,474.23,221.13Z"/><path class="cls-5" d="M477.64,192.54c.08-.37.15-.74.23-1.11s.21-.4.53-.28q.74.28,1.47.59a.49.49,0,0,1,.33.65q-.21,1.08-.45,2.15c-.08.36-.2.42-.55.29s-1-.39-1.47-.6a.46.46,0,0,1-.32-.61C477.48,193.26,477.56,192.9,477.64,192.54Z"/><path class="cls-5" d="M461.31,189.24c-.07.36-.14.72-.22,1.07s-.21.47-.6.47H459c-.4,0-.49-.11-.42-.5q.21-1.06.44-2.11c.08-.37.22-.49.58-.5q.77,0,1.54,0c.37,0,.46.13.4.48S461.38,188.89,461.31,189.24Z"/><path class="cls-5" d="M455.56,216.92c-.07.33-.13.66-.21,1s-.21.49-.58.49h-1.58c-.31,0-.42-.12-.36-.43q.22-1.12.46-2.23a.46.46,0,0,1,.5-.43c.54,0,1.08,0,1.62,0,.37,0,.44.13.37.5S455.64,216.55,455.56,216.92Z"/><path class="cls-5" d="M456.92,216.92c.07-.36.14-.72.22-1.07s.2-.46.57-.43q.79,0,1.58.14c.31,0,.41.17.35.47q-.22,1.14-.47,2.27a.4.4,0,0,1-.49.37l-1.62-.15c-.36,0-.43-.14-.36-.51S456.84,217.28,456.92,216.92Z"/><path class="cls-5" d="M462.65,189.31c.08-.37.15-.74.23-1.11s.19-.41.51-.39c.54,0,1.08.08,1.62.13.3,0,.42.17.36.46q-.22,1.14-.47,2.27c-.07.3-.18.38-.49.37q-.85-.05-1.7-.14c-.26,0-.34-.16-.3-.43S462.57,189.7,462.65,189.31Z"/><path class="cls-5" d="M481.2,194c.08-.37.15-.74.23-1.11s.2-.35.44-.23c.51.25,1,.52,1.51.78a.5.5,0,0,1,.27.58c-.15.77-.31,1.54-.48,2.31-.06.27-.2.32-.46.19q-.74-.37-1.48-.77a.47.47,0,0,1-.28-.6C481,194.78,481.12,194.39,481.2,194Z"/><path class="cls-5" d="M475.46,221.65c.08-.37.15-.74.23-1.11s.19-.38.46-.25c.51.24,1,.51,1.51.78a.5.5,0,0,1,.26.59c-.15.76-.31,1.51-.47,2.27-.07.3-.19.35-.47.21q-.75-.37-1.48-.76a.48.48,0,0,1-.27-.61C475.3,222.39,475.39,222,475.46,221.65Z"/><path class="cls-5" d="M451.71,216.92c-.07.36-.14.72-.22,1.07s-.19.44-.51.48l-1.61.14c-.33,0-.42-.08-.35-.41.15-.74.31-1.48.46-2.22a.54.54,0,0,1,.53-.47c.52,0,1-.1,1.57-.13.35,0,.44.09.37.43S451.78,216.55,451.71,216.92Z"/><path class="cls-5" d="M457.44,189.29c-.07.36-.15.72-.22,1.07s-.19.46-.54.5l-1.62.13c-.31,0-.4-.07-.34-.38.15-.76.31-1.51.47-2.27a.52.52,0,0,1,.5-.45c.55-.05,1.1-.1,1.66-.13.28,0,.37.09.32.37s-.16.77-.24,1.15Z"/><path class="cls-5" d="M447.89,217.29c-.07.36-.16.71-.22,1.08a.61.61,0,0,1-.52.54l-1.6.3c-.31.06-.4,0-.34-.35.15-.74.31-1.49.46-2.23a.6.6,0,0,1,.51-.51c.53-.11,1.06-.22,1.6-.31.31-.05.4.06.34.36S448,216.92,447.89,217.29Z"/><path class="cls-5" d="M451.17,190.15c.08-.37.16-.74.23-1.11a.62.62,0,0,1,.53-.54c.52-.1,1-.21,1.55-.3.34-.06.43,0,.37.37-.15.74-.31,1.48-.46,2.22a.58.58,0,0,1-.51.5l-1.59.31c-.32.06-.4,0-.35-.34S451.09,190.52,451.17,190.15Z"/><path class="cls-5" d="M447.26,192.69a1.89,1.89,0,0,1,0-.35c.14-.72.3-1.43.44-2.15a.79.79,0,0,1,.55-.64c.49-.16,1-.33,1.46-.49.34-.1.44,0,.37.33-.14.73-.3,1.46-.45,2.19a.67.67,0,0,1-.44.54c-.57.2-1.15.39-1.73.58A.81.81,0,0,1,447.26,192.69Z"/><path class="cls-5" d="M441.52,220.31a2,2,0,0,1,0-.36c.14-.72.3-1.43.44-2.15a.79.79,0,0,1,.55-.64c.49-.16,1-.33,1.46-.48.33-.1.44,0,.37.33-.14.73-.3,1.46-.45,2.19a.67.67,0,0,1-.44.54l-1.69.56A1.19,1.19,0,0,1,441.52,220.31Z"/><path class="cls-5" d="M589.15,214.62l-4.82,23.21-.4,0c-4.57.33-9.12.79-13.63,1.56A75,75,0,0,0,556.64,243a39,39,0,0,0-6.27,2.89c-.31.18-.64.34-1,.55,0-.24.06-.39.09-.54l2.33-11.23q1.14-5.5,2.28-11a.82.82,0,0,1,.5-.67c.43-.2.84-.44,1.25-.67a44.09,44.09,0,0,1,8.12-3.42,80.87,80.87,0,0,1,13.77-3.13c3.69-.54,7.39-.89,11.11-1.15Z"/><path class="cls-5" d="M587.45,212.33c.07-.34.14-.69.22-1s.21-.47.59-.48,1,0,1.5,0,.5.13.42.54q-.21,1-.43,2.07c-.08.39-.22.5-.62.5h-1.5c-.39,0-.48-.11-.4-.51S587.38,212.69,587.45,212.33Z"/><path class="cls-5" d="M584.23,240c-.07.34-.14.69-.22,1s-.22.52-.64.52l-1.5,0c-.35,0-.45-.11-.39-.44q.21-1.1.45-2.19a.49.49,0,0,1,.57-.46c.53,0,1.06,0,1.58,0,.33,0,.43.13.36.47S584.31,239.62,584.23,240Z"/><path class="cls-5" d="M577.88,240.14c.07-.36.14-.72.22-1.07a.51.51,0,0,1,.55-.48c.51,0,1-.08,1.54-.1s.47.09.4.45q-.21,1.07-.45,2.14c-.08.37-.2.47-.58.5l-1.5.09c-.4,0-.49-.08-.41-.47S577.81,240.5,577.88,240.14Z"/><path class="cls-5" d="M583.62,212.52c.07-.34.14-.69.22-1s.21-.49.57-.52c.53,0,1.05-.08,1.58-.1.32,0,.42.1.36.42q-.22,1.12-.46,2.23a.48.48,0,0,1-.49.45c-.55,0-1.11.08-1.66.1-.31,0-.39-.08-.34-.39S583.54,212.91,583.62,212.52Z"/><path class="cls-5" d="M574.06,240.57c.07-.36.16-.71.22-1.07a.57.57,0,0,1,.54-.51c.52-.07,1-.14,1.57-.19.34,0,.44.08.37.43-.14.72-.3,1.43-.44,2.15a.58.58,0,0,1-.54.52l-1.61.2c-.34,0-.41,0-.34-.4S574,240.94,574.06,240.57Z"/><path class="cls-5" d="M579.8,212.95c.07-.34.15-.69.21-1a.59.59,0,0,1,.56-.54l1.57-.19c.32,0,.43.08.37.4-.15.74-.3,1.48-.46,2.23a.54.54,0,0,1-.49.46c-.55.07-1.1.15-1.65.21-.31,0-.4-.07-.34-.37S579.72,213.33,579.8,212.95Z"/><path class="cls-5" d="M572.23,214.42l.21-1a.68.68,0,0,1,.55-.57l1.54-.35c.34-.07.43,0,.36.36-.14.73-.3,1.46-.45,2.18a.65.65,0,0,1-.53.55l-1.58.36c-.31.07-.4,0-.34-.34S572.15,214.8,572.23,214.42Z"/><path class="cls-5" d="M568.93,241.59c-.07.33-.14.66-.2,1a.69.69,0,0,1-.58.59l-1.46.33c-.39.08-.48,0-.4-.39.14-.7.29-1.41.43-2.11a.7.7,0,0,1,.58-.6l1.46-.33c.39-.08.47,0,.4.39S569,241.22,568.93,241.59Z"/><path class="cls-5" d="M578.44,213.2c-.07.36-.16.71-.22,1.08a.59.59,0,0,1-.52.54l-1.56.28c-.36.06-.44,0-.37-.4.14-.72.3-1.43.44-2.15a.63.63,0,0,1,.57-.55l1.52-.27c.36-.06.44,0,.37.4S578.52,212.84,578.44,213.2Z"/><path class="cls-5" d="M572.71,240.83c-.07.36-.16.71-.22,1.07a.59.59,0,0,1-.53.52l-1.55.28c-.34.06-.43,0-.37-.36.15-.74.31-1.48.46-2.22a.59.59,0,0,1,.51-.5c.53-.1,1.06-.2,1.59-.29.33-.05.41,0,.34.39S572.78,240.46,572.71,240.83Z"/><path class="cls-5" d="M568.51,215.44c.07-.35.15-.69.21-1a.73.73,0,0,1,.57-.62l1.45-.4c.4-.1.48,0,.41.36-.14.7-.29,1.41-.43,2.11a.72.72,0,0,1-.57.61l-1.45.4c-.4.11-.48,0-.4-.36S568.44,215.8,568.51,215.44Z"/><path class="cls-5" d="M562.78,243.05c.07-.34.15-.69.21-1a.73.73,0,0,1,.57-.62L565,241c.34-.09.44,0,.37.33-.15.74-.3,1.49-.46,2.23a.61.61,0,0,1-.44.49c-.56.17-1.12.33-1.68.47-.26.07-.35,0-.3-.31s.16-.77.24-1.15Z"/><path class="cls-5" d="M559.11,244.2c.07-.36.15-.72.22-1.07a.7.7,0,0,1,.51-.58c.51-.17,1-.34,1.55-.5.29-.09.39,0,.34.29-.15.76-.31,1.51-.47,2.27a.66.66,0,0,1-.46.52c-.53.17-1.05.35-1.59.51-.31.09-.39,0-.32-.33S559,244.57,559.11,244.2Z"/><path class="cls-5" d="M564.84,216.6c.07-.34.15-.69.21-1a.75.75,0,0,1,.55-.64l1.47-.47c.36-.11.45,0,.38.35-.14.72-.3,1.43-.44,2.15a.72.72,0,0,1-.51.58l-1.55.49c-.32.1-.4,0-.34-.31S564.77,217,564.84,216.6Z"/><path class="cls-5" d="M558.1,243.23c0,.2,0,.32-.05.43-.14.68-.29,1.35-.42,2a.84.84,0,0,1-.6.7l-1.41.5a3.46,3.46,0,0,1-.36.08,1.83,1.83,0,0,1,0-.37c.14-.73.3-1.46.45-2.19a.75.75,0,0,1,.5-.59l1.53-.54A2,2,0,0,1,558.1,243.23Z"/><path class="cls-5" d="M560.94,219.35c0-.22,0-.35.06-.48.13-.66.28-1.32.41-2a.87.87,0,0,1,.63-.72c.45-.15.89-.32,1.34-.47a4.46,4.46,0,0,1,.44-.1,3.46,3.46,0,0,1,0,.44c-.14.69-.29,1.38-.42,2.07a.81.81,0,0,1-.57.67l-1.41.5A3.49,3.49,0,0,1,560.94,219.35Z"/><path class="cls-5" d="M551.69,248.39c0-.15,0-.25,0-.34.14-.7.3-1.4.43-2.11a1,1,0,0,1,.56-.75c.48-.22,1-.41,1.46-.61a.93.93,0,0,1,.28,0,3.51,3.51,0,0,1,0,.41c-.14.68-.29,1.35-.42,2a.88.88,0,0,1-.59.71c-.5.2-1,.43-1.49.64A1,1,0,0,1,551.69,248.39Z"/><path class="cls-5" d="M560.2,217c0,.14,0,.26,0,.38-.14.69-.29,1.38-.43,2.06a.83.83,0,0,1-.53.66l-1.56.67a1,1,0,0,1-.19,0,1.87,1.87,0,0,1,0-.32c.15-.73.3-1.46.45-2.18a.9.9,0,0,1,.38-.6,6.42,6.42,0,0,1,1.75-.73S560.1,217,560.2,217Z"/><path class="cls-5" d="M551,246.2c0,.21,0,.32-.05.42-.14.69-.29,1.38-.42,2.07a1,1,0,0,1-.56.74l-1.31.64a2.67,2.67,0,0,1-.42.11c0-.19,0-.3.05-.42.14-.69.29-1.38.42-2.07a.91.91,0,0,1,.54-.7l1.35-.66A3.81,3.81,0,0,1,551,246.2Z"/><path class="cls-5" d="M556.75,218.62c0,.16,0,.27,0,.37-.14.7-.3,1.4-.43,2.11a.92.92,0,0,1-.51.69l-1.42.7a1.78,1.78,0,0,1-.34.08,3.16,3.16,0,0,1,0-.36c.15-.72.3-1.43.44-2.15a.86.86,0,0,1,.48-.66l1.46-.71A1.6,1.6,0,0,1,556.75,218.62Z"/><path class="cls-5" d="M512.76,222.44l-4.82,23.19-.39-.18a54.8,54.8,0,0,1-16.13-12.22c-1.7-1.81-3.3-3.71-4.85-5.64a24.86,24.86,0,0,0-5.66-5.21.89.89,0,0,1-.23-.16.56.56,0,0,1-.1-.28,1,1,0,0,1,.05-.28l4.62-22.26.1-.5.4.26a25.77,25.77,0,0,1,6,5.68,76.9,76.9,0,0,0,7.77,8.47,51.59,51.59,0,0,0,12.82,8.92l.25.13Z"/><path class="cls-5" d="M505.56,246.81c.08-.37.15-.74.23-1.11s.19-.36.47-.22q.75.36,1.49.74a.49.49,0,0,1,.29.61q-.22,1.12-.46,2.23c-.07.31-.22.38-.5.25-.49-.23-1-.48-1.45-.73a.52.52,0,0,1-.29-.64C505.4,247.55,505.48,247.18,505.56,246.81Z"/><path class="cls-5" d="M513.54,220.32c-.08.37-.15.74-.23,1.11s-.2.39-.49.25c-.5-.24-1-.49-1.49-.74a.52.52,0,0,1-.27-.62c.16-.74.3-1.49.47-2.23.06-.29.2-.37.47-.24.51.25,1,.51,1.52.77a.49.49,0,0,1,.26.58Z"/><path class="cls-5" d="M508,217.29c.08-.37.15-.74.23-1.11s.2-.38.48-.22l1.39.83a.55.55,0,0,1,.28.65c-.16.74-.31,1.48-.47,2.22-.07.3-.19.37-.46.22-.48-.27-1-.56-1.43-.85a.57.57,0,0,1-.26-.67C507.81,218,507.88,217.65,508,217.29Z"/><path class="cls-5" d="M504.38,246.14c-.08.38-.15.77-.24,1.15s-.2.36-.47.21c-.48-.27-1-.56-1.42-.85A.56.56,0,0,1,502,246c.15-.74.3-1.48.46-2.22.07-.32.2-.37.49-.21.47.27.93.55,1.39.83a.54.54,0,0,1,.27.66C504.52,245.42,504.46,245.78,504.38,246.14Z"/><path class="cls-5" d="M501.11,244.17c-.07.34-.14.69-.22,1s-.2.44-.52.23-.84-.58-1.27-.88a.66.66,0,0,1-.29-.74c.15-.71.29-1.43.45-2.14.08-.37.19-.41.49-.21l1.3.9a.64.64,0,0,1,.28.74C501.25,243.45,501.18,243.81,501.11,244.17Z"/><path class="cls-5" d="M506.84,216.54c-.08.37-.15.74-.23,1.11s-.2.36-.46.19c-.46-.3-.91-.62-1.36-.95a.6.6,0,0,1-.25-.64c.15-.76.31-1.51.47-2.26.06-.29.19-.34.43-.18.46.31.91.63,1.36.95a.6.6,0,0,1,.27.67Z"/><path class="cls-5" d="M487.56,197.88c-.08.38-.15.77-.24,1.15s-.17.3-.38.16q-.74-.5-1.46-1a.54.54,0,0,1-.2-.58c.16-.76.31-1.51.48-2.27.06-.28.2-.35.43-.19.47.31.94.64,1.39,1a.59.59,0,0,1,.21.65c-.09.37-.16.74-.23,1.11Z"/><path class="cls-5" d="M481.83,225.48c-.08.38-.15.77-.24,1.15s-.18.31-.41.16c-.48-.33-1-.66-1.43-1a.53.53,0,0,1-.21-.58c.16-.76.31-1.51.47-2.27.07-.31.19-.36.46-.19.45.3.89.62,1.33.93a.63.63,0,0,1,.25.71C482,224.76,481.91,225.12,481.83,225.48Z"/><path class="cls-5" d="M501.74,212.76c.08-.37.15-.74.23-1.11s.19-.37.44-.18c.44.34.87.69,1.3,1a.63.63,0,0,1,.23.65c-.15.74-.3,1.49-.46,2.23-.07.34-.19.38-.47.16s-.8-.64-1.2-1a.72.72,0,0,1-.27-.79C501.61,213.46,501.67,213.11,501.74,212.76Z"/><path class="cls-5" d="M496,240.37c.07-.36.14-.72.22-1.07s.19-.42.48-.19l1.24,1a.65.65,0,0,1,.26.68c-.15.74-.3,1.49-.46,2.23-.07.34-.19.38-.48.16s-.83-.66-1.23-1a.68.68,0,0,1-.25-.73C495.87,241.09,495.94,240.73,496,240.37Z"/><path class="cls-5" d="M500.74,211.85c-.07.36-.14.72-.22,1.07s-.2.4-.48.14-.76-.69-1.13-1a.77.77,0,0,1-.24-.77c.15-.71.29-1.43.45-2.15.08-.37.19-.4.48-.14l1.13,1a.75.75,0,0,1,.25.77Z"/><path class="cls-5" d="M493.52,236.37a1.2,1.2,0,0,1,.22.12l1.28,1.18a.68.68,0,0,1,.21.67c-.15.76-.31,1.51-.47,2.27-.06.29-.19.33-.43.12-.41-.36-.8-.73-1.19-1.1a.75.75,0,0,1-.23-.74c.15-.73.3-1.46.46-2.19A1.79,1.79,0,0,1,493.52,236.37Z"/><path class="cls-5" d="M484.35,229.44a2.26,2.26,0,0,1-.3-.19l-1.13-1a.76.76,0,0,1-.26-.8c.16-.71.3-1.43.45-2.14.07-.35.19-.39.45-.16s.78.71,1.16,1.08a.69.69,0,0,1,.23.66q-.25,1.21-.51,2.42A.94.94,0,0,1,484.35,229.44Z"/><path class="cls-5" d="M489,197.33a1.72,1.72,0,0,1,.35.19c.38.34.76.69,1.13,1a.71.71,0,0,1,.24.69l-.49,2.34a1.64,1.64,0,0,1-.09.23,1.4,1.4,0,0,1-.28-.15l-1.22-1.13a.66.66,0,0,1-.23-.65q.24-1.17.49-2.34A1.3,1.3,0,0,1,489,197.33Z"/><path class="cls-5" d="M497.57,210.63a2.32,2.32,0,0,1-.29-.21l-1.09-1.15a.77.77,0,0,1-.22-.71q.24-1.16.48-2.31a1.28,1.28,0,0,1,.11-.24,1.15,1.15,0,0,1,.25.15l1.15,1.21a.72.72,0,0,1,.21.67l-.49,2.35A1.67,1.67,0,0,1,497.57,210.63Z"/><path class="cls-5" d="M491.83,238.24a2.3,2.3,0,0,1-.3-.22l-1.06-1.12a.8.8,0,0,1-.23-.74c.16-.76.31-1.51.47-2.27a1.73,1.73,0,0,1,.1-.25,1,1,0,0,1,.25.13l1.18,1.24a.69.69,0,0,1,.2.63l-.51,2.43A1,1,0,0,1,491.83,238.24Z"/><path class="cls-5" d="M489.21,235.41a1.67,1.67,0,0,1-.23-.18L487.92,234a.76.76,0,0,1-.18-.64c.17-.82.34-1.64.52-2.46a.6.6,0,0,1,.08-.13.9.9,0,0,1,.22.14l1.09,1.31a.8.8,0,0,1,.18.68q-.23,1.15-.48,2.31A1.32,1.32,0,0,1,489.21,235.41Z"/><path class="cls-5" d="M495,207.79a2.09,2.09,0,0,1-.29-.23l-1-1.22a.83.83,0,0,1-.18-.72q.24-1.15.48-2.3a1.25,1.25,0,0,1,.12-.24,2.19,2.19,0,0,1,.26.22l1,1.21a.86.86,0,0,1,.2.75q-.23,1.13-.47,2.26A1.58,1.58,0,0,1,495,207.79Z"/><path class="cls-5" d="M486,227.65c.09.05.15.07.18.11.38.49.77,1,1.12,1.49a.92.92,0,0,1,.11.62c-.13.77-.31,1.54-.47,2.31a1.24,1.24,0,0,1-.13.25,2.61,2.61,0,0,1-.24-.24l-1-1.26a.82.82,0,0,1-.2-.68q.24-1.19.49-2.38A1.11,1.11,0,0,1,486,227.65Z"/><path class="cls-5" d="M492.53,204.81a2.85,2.85,0,0,1-.26-.26l-1-1.26a.82.82,0,0,1-.19-.68q.24-1.18.49-2.35a1.35,1.35,0,0,1,.1-.22,1.26,1.26,0,0,1,.26.19q.51.66,1,1.33a.82.82,0,0,1,.16.65c-.16.8-.33,1.59-.5,2.39A1.25,1.25,0,0,1,492.53,204.81Z"/><path class="cls-6" d="M512.49,193.08c.89,2.26,1.73,4.54,2.66,6.78q15.61,37.69,31.27,75.37A43.47,43.47,0,0,0,555,289c3.68,3.82,8.29,6,13.24,7.56a68.84,68.84,0,0,1,15,6.33c8.29,5.05,12.92,14.63,11.27,23.68-1.87,10.27-9.17,17.78-19.07,19.61-11.12,2.06-21.86-4.14-26.33-15.09-3.84-9.41-7.77-18.78-11.66-28.17-.16-.4-.36-.78-.68-1.47-.57,1.33-1,2.4-1.49,3.48l-11.1,26.78a23.51,23.51,0,0,1-45.3-10.3c.72-8.8,5.15-15.23,12.85-19.24a100.7,100.7,0,0,1,12.8-5.32c5.56-2,10.86-4.25,14.86-8.83a42.75,42.75,0,0,0,6.74-10.73,2.76,2.76,0,0,0-.12-1.94c-6.15-14.92-12.36-29.82-18.51-44.74-2-5-4.09-10-5.87-15a19.19,19.19,0,0,1-.71-12.06c1.28-4.27,4.42-6.88,8.17-8.9l2.83-1.54ZM571.3,309a14,14,0,1,0,14,14.26A14.07,14.07,0,0,0,571.3,309Zm-69,28a14,14,0,1,0-14.13-14A14,14,0,0,0,502.33,337Zm34.4-55.73a4.58,4.58,0,0,0,4.69-4.59,4.65,4.65,0,1,0-9.3-.07A4.56,4.56,0,0,0,536.73,281.29Z"/><path class="cls-5" d="M199.83,153.44a14,14,0,0,1-14.11-14.26,14.23,14.23,0,1,1,28.45.21A14,14,0,0,1,199.83,153.44Z"/><polygon class="cls-8" points="61.84 239.28 58.86 338.6 47.72 338.6 44.59 239.31 61.84 239.28"/><polygon class="cls-8" points="7.15 239.31 99.04 239.28 88.77 338.6 16.94 338.6 7.15 239.31"/><path class="cls-9" d="M7.15,238.38C-7,231.59.81,205.62,22,216.59c-10-10,.6-21.58,17.35-7.71-14.39-12.79,3.42-27.8,17.5-7.52-8-13.6,16.23-8.85,16.23,2.8,11.29-4,18.28,5.65,14.52,9.41C106.21,208.19,112.31,229,99,238.35Z"/><path class="cls-10" d="M50.53,208.88c0,10.34,6.88,12.59,14.21,7.71"/><path class="cls-10" d="M41.6,221.32c-10.85-3.91-14.21-1-14.21,7.34"/><path class="cls-10" d="M76.45,219.12c0,8.5-4.4,11.53-14.61,8.5"/><line class="cls-8" x1="86.99" y1="240.11" x2="78" y2="338.6"/><line class="cls-8" x1="74.86" y1="239.94" x2="70.76" y2="338.76"/><line class="cls-8" x1="16.24" y1="239.31" x2="27.39" y2="338.6"/><line class="cls-8" x1="29.93" y1="239.94" x2="39.12" y2="338.6"/><ellipse class="cls-9" cx="53.08" cy="282.07" rx="42.24" ry="26.78"/><polygon class="cls-5" points="78.14 272.02 53.04 299.55 28.05 271.83 46.43 271.89 46.58 247.78 60 247.86 59.86 271.89 78.14 272.02"/><g id="Layer_2-2" data-name="Layer 2"><g id="Layer_1-2-2" data-name="Layer 1-2"><path class="cls-11" d="M351.51,278.75l12.07,37.7-1,.59c-16.72-.4-29.69-.59-38.79-.59h-5.24c-2.37-11.58-4-17.32-4.85-17.32-1.58,2-7.92,7.72-18.9,17.32H251.86l51.85-41.36-4.25-13.85a.35.35,0,0,1-.1.2H256.42c-.59.1-2.77,3.76-6.33,11h39.28v.49c-6.63,13.16-10.29,19.79-11,20.09H239.69c-.59,0-4.95,8.11-13.06,24.14-8.91-.4-15.34-.59-19.39-.59H180.42v-1L221.29,239h79.16c2.08,0,5.24.2,9.4.49,7.62-.1,16.62-.2,27-.49q1,1.19,4.16,15.73L358.83,239h42.45c-1.19,1.48-17.42,14.65-48.78,39.28C352.5,278.65,352.2,278.75,351.51,278.75Z"/></g></g><path class="cls-12" d="M48.87,396C51,477.51,63.5,477.51,194.53,477.51"/><polygon class="cls-7" points="29.14 402.17 48.43 367.26 69.02 401.42 29.14 402.17"/><path class="cls-12" d="M544.09,147.27C542,65.72,529.47,65.72,398.43,65.72"/><polygon class="cls-7" points="563.83 141.06 544.53 175.97 523.94 141.81 563.83 141.06"/><path class="cls-12" d="M168,76C50.42,77.29,50.29,84,48.43,179.34"/><polygon class="cls-7" points="161.96 56.18 196.72 75.73 162.41 96.07 161.96 56.18"/><path class="cls-12" d="M424.46,475.41c117.6-1.32,117.73-8,119.59-103.37"/><polygon class="cls-7" points="430.52 495.2 395.76 475.65 430.07 455.32 430.52 495.2"/></g></g></svg>