<?xml version="1.0" encoding="utf-8"?>
<!-- Generator: Adobe Illustrator 21.0.2, SVG Export Plug-In . SVG Version: 6.00 Build 0)  -->
<svg version="1.1" id="Layer_1" xmlns="http://www.w3.org/2000/svg" xmlns:xlink="http://www.w3.org/1999/xlink" x="0px" y="0px"
	 viewBox="0 0 256 256" style="enable-background:new 0 0 256 256;" xml:space="preserve">
<style type="text/css">
	.st0{fill:#FFFFFF;}
</style>
<path class="st0" d="M143.8,121.8l61-61c6.8-6.8,6.8-17.8,0-24.6l0,0c-6.8-6.8-17.8-6.8-24.6,0l-61,61L59.8,37.8
	C53,31,42,31,35.2,37.8h0c-6.8,6.8-6.8,17.8,0,24.6l59.4,59.4l-59.4,59.4c-6.8,6.8-6.8,17.8,0,24.6l0,0c6.8,6.8,17.8,6.8,24.6,0
	l59.4-59.4l61,61c6.8,6.8,17.8,6.8,24.6,0h0c6.8-6.8,6.8-17.8,0-24.6L143.8,121.8z"/>
</svg>
