<?xml version="1.0" encoding="utf-8"?>
<!-- Generator: Adobe Illustrator 21.0.2, SVG Export Plug-In . SVG Version: 6.00 Build 0)  -->
<svg version="1.1" id="Layer_1" xmlns="http://www.w3.org/2000/svg" xmlns:xlink="http://www.w3.org/1999/xlink" x="0px" y="0px"
	 viewBox="0 0 170.5 198.6" style="enable-background:new 0 0 170.5 198.6;" xml:space="preserve">
<style type="text/css">
	.st0{fill:none;stroke:#FFD23E;stroke-width:3.9694;stroke-miterlimit:10;}
	.st1{fill:#FFD23E;}
	.st2{fill:none;stroke:#FFFFFF;stroke-width:2.6463;stroke-linecap:round;stroke-miterlimit:10;}
	.st3{fill:#FFFFFF;}
</style>
<title>Asset 3</title>
<g id="Layer_2">
	<g id="Layer_1-2">
		<polygon class="st0" points="99.3,72.3 94.5,196.4 76.6,196.4 71.6,72.3 		"/>
		<polygon class="st0" points="11.5,72.3 159.1,72.3 142.6,196.4 27.2,196.4 		"/>
		<path class="st1" d="M11.5,71.2c-22.7-8.5-10.2-40.9,23.9-27.2c-16-12.4,1-27,27.9-9.6c-23.1-16,5.5-34.7,28.1-9.4
			c-12.8-17,26.1-11.1,26.1,3.5c18.1-5,29.4,7.1,23.3,11.8c29.8-6.7,39.6,19.2,18.3,31L11.5,71.2z"/>
		<path class="st2" d="M81.2,34.3c0,12.9,11.1,15.7,22.8,9.6"/>
		<path class="st2" d="M66.8,49.9C49.4,45,44,48.7,44,59"/>
		<path class="st2" d="M122.8,47.1c0,10.6-7.1,14.4-23.5,10.6"/>
		<line class="st0" x1="139.7" y1="73.3" x2="125.3" y2="196.4"/>
		<line class="st0" x1="120.2" y1="73.1" x2="113.6" y2="196.6"/>
		<line class="st0" x1="26.1" y1="72.3" x2="44" y2="196.4"/>
		<line class="st0" x1="48.1" y1="73.1" x2="62.8" y2="196.4"/>
		<ellipse class="st1" cx="85.2" cy="125.8" rx="67.8" ry="33.5"/>
		<polygon class="st3" points="125.5,113.2 85.2,147.6 45,113 74.6,113.1 74.8,82.9 96.4,83 96.1,113.1 		"/>
	</g>
</g>
</svg>
