<?xml version="1.0" encoding="utf-8"?>
<!-- Generator: Adobe Illustrator 21.0.2, SVG Export Plug-In . SVG Version: 6.00 Build 0)  -->
<svg version="1.1" id="Layer_1" xmlns="http://www.w3.org/2000/svg" xmlns:xlink="http://www.w3.org/1999/xlink" x="0px" y="0px"
	 viewBox="0 0 100 100" style="enable-background:new 0 0 100 100;" xml:space="preserve">
<style type="text/css">
	.st0{fill:#D8D8D8;}
</style>
<title>facebook</title>
<path class="st0" d="M100,50c0,27.6-22.4,50-50,50c-0.3,0-0.7,0-1,0C21.3,99.4-0.6,76.6,0,48.9S23.5-0.6,51.1,0
	C77.3,0.6,98.7,21.3,100,47.5C100,48.3,100,49.2,100,50z M59.3,29.1h7v-10h-10c-10,0-12.9,8-12.9,13.1v9.4h-9.7V53h9.7v27.9h11.4V53
	h9.5l1.5-11.4h-11v-8.1c0-2.4,1.9-4.4,4.3-4.4C59.1,29.1,59.2,29.1,59.3,29.1z"/>
</svg>
