<svg xmlns="http://www.w3.org/2000/svg" viewBox="0 0 265.08 200.51"><defs><style>.cls-1,.cls-2{fill:#b8db9e;}.cls-2{stroke:#fff;stroke-miterlimit:10;stroke-width:3.34px;}</style></defs><title>Asset 8</title><g id="Layer_2" data-name="Layer 2"><g id="Layer_1-2" data-name="Layer 1"><rect class="cls-1" x="57.49" y="119.53" width="141.17" height="80.98" rx="15.04" ry="15.04"/><rect class="cls-2" x="57.49" y="111.27" width="141.17" height="16.65"/><rect class="cls-2" x="54.28" y="83.43" width="141.17" height="16.65" transform="translate(-15.66 26.46) rotate(-11.39)"/><polygon class="cls-1" points="134.34 16.16 134.34 0 121.29 9.95 105.43 4.66 111.03 19.89 101.7 33.57 118.02 33.57 127.82 46.94 132.79 30.78 148.02 24.87 134.34 16.16"/><polygon class="cls-1" points="32.64 84.44 32.64 68.28 19.58 78.23 3.73 72.94 9.33 88.18 0 101.85 16.32 101.85 26.11 115.22 31.09 99.06 46.32 93.15 32.64 84.44"/><polygon class="cls-1" points="89.24 61.83 89.24 55.22 83.9 59.29 77.41 57.12 79.7 63.36 75.88 68.96 82.56 68.96 86.57 74.43 88.61 67.81 94.84 65.4 89.24 61.83"/><polygon class="cls-1" points="188.75 38.51 188.75 31.89 183.4 35.96 176.91 33.8 179.2 40.04 175.38 45.64 182.07 45.64 186.07 51.11 188.11 44.49 194.35 42.07 188.75 38.51"/><polygon class="cls-1" points="251.4 84.44 251.4 68.28 238.34 78.23 222.49 72.94 228.09 88.18 218.76 101.85 235.08 101.85 244.87 115.22 249.85 99.06 265.08 93.15 251.4 84.44"/></g></g></svg>