<svg xmlns="http://www.w3.org/2000/svg" viewBox="0 0 244.68 244.89"><defs><style>.cls-1{fill:#e81e25;}</style></defs><title>Asset 2</title><g id="Layer_2" data-name="Layer 2"><g id="Layer_1-2" data-name="Layer 1"><path class="cls-1" d="M41.68,0c1.8.21,2.55,1.59,3.53,2.57Q71.69,28.86,98.1,55.2c7,7,14.06,13.81,20.84,21,2.59,2.73,4.09,2.8,6.81,0C150,51.77,174.42,27.57,198.57,3.08c3.4-3.44,5.06-3.14,8.22.13,11.79,12.19,23.83,24.13,35.95,36,2.42,2.37,2.42,3.63,0,6C218.1,69.7,193.64,94.35,169,118.76c-3.09,3.05-2.9,4.55.06,7.49,24.56,24.31,48.9,48.85,73.45,73.18,2.8,2.78,3.08,4.3.1,7.19q-18.41,17.9-36.31,36.32c-2.79,2.87-4.2,2.38-6.74-.16-24.31-24.34-48.82-48.48-73.05-72.89-3.43-3.45-5.2-3-8.36.18C94,194.32,69.57,218.35,45.4,242.6c-2.72,2.73-4.15,3.22-7.1.17Q20.44,224.33,2,206.44c-2.79-2.72-2.58-4.18.07-6.81,24.65-24.45,49.12-49.09,73.78-73.53,2.79-2.76,3.06-4.22.11-7.15C51.4,94.65,27.07,70.1,2.51,45.78c-2.83-2.8-3-4.22-.06-7.08C14.64,26.92,26.54,14.83,38.56,2.87,39.58,1.86,40.68.92,41.68,0Z"/></g></g></svg>