<svg xmlns="http://www.w3.org/2000/svg" viewBox="0 0 198.68 191.42"><defs><style>.cls-1{fill:#4ab749;}</style></defs><title>Asset 1</title><g id="Layer_2" data-name="Layer 2"><g id="Layer_1-2" data-name="Layer 1"><path class="cls-1" d="M78.74,191.42c-5.17.07-9.34-2.07-12.9-5.6q-24-23.76-48-47.53Q10.51,131,3.43,123.44C-1,118.71-1.2,114,3.22,109.26c4.95-5.34,10.12-10.49,15.42-15.49,4.63-4.37,10-4.31,14.52.12,12,11.7,24,23.52,35.92,35.31,4.83,4.77,4.8,4.79,8.52-.67L158.91,9.17c1-1.5,2.09-3,3.19-4.44,3.68-4.9,8.81-6.15,14-3A163.85,163.85,0,0,1,195,14.94c4.38,3.54,4.93,8.88,1.51,14q-15.84,23.68-31.84,47.25-36.79,54-73.68,108C88,188.55,84.09,191.21,78.74,191.42Z"/></g></g></svg>