<?xml version="1.0" encoding="utf-8"?>
<!-- Generator: Adobe Illustrator 21.0.2, SVG Export Plug-In . SVG Version: 6.00 Build 0)  -->
<svg version="1.1" id="Layer_1" xmlns="http://www.w3.org/2000/svg" xmlns:xlink="http://www.w3.org/1999/xlink" x="0px" y="0px"
	 viewBox="0 0 223.2 78.9" style="enable-background:new 0 0 223.2 78.9;" xml:space="preserve">
<style type="text/css">
	.st0{fill:#FFFFFF;}
</style>
<title>Asset 1</title>
<g id="Layer_2">
	<g id="Layer_1-2">
		<path class="st0" d="M172.9,40.2l12.2,38.1l-1,0.6c-16.9-0.4-30-0.6-39.2-0.6h-5.3c-2.4-11.7-4-17.5-4.9-17.5
			c-1.6,2-8,7.8-19.1,17.5H72.2l52.4-41.8l-4.3-14c0,0.1-0.1,0.2-0.1,0.2H76.8c-0.6,0.1-2.8,3.8-6.4,11.1h39.7v0.5
			c-6.7,13.3-10.4,20-11.1,20.3H59.9c-0.6,0-5,8.2-13.2,24.4c-9-0.4-15.5-0.6-19.6-0.6H0v-1L41.3,0h80c2.1,0,5.3,0.2,9.5,0.5
			c7.7-0.1,16.8-0.2,27.3-0.5c0.7,0.8,2.1,6.1,4.2,15.9l18-15.9h42.9c-1.2,1.5-17.6,14.8-49.3,39.7
			C173.9,40.1,173.6,40.2,172.9,40.2z"/>
	</g>
</g>
</svg>
