<svg xmlns="http://www.w3.org/2000/svg" viewBox="0 0 225.3 187.94"><defs><style>.cls-1{fill:#726c7a;}.cls-2{fill:none;stroke:#726c7a;stroke-miterlimit:10;stroke-width:8px;}.cls-3{fill:#fff;}</style></defs><title>Asset 7</title><g id="Layer_2" data-name="Layer 2"><g id="Layer_1-2" data-name="Layer 1"><rect class="cls-1" x="5.22" y="71.16" width="162.57" height="97.85" rx="21.33" ry="21.33"/><path class="cls-1" d="M179.2,81.51h16.74a5,5,0,0,0,2.54-.69l19.24-11.25a5,5,0,0,1,7.59,4.35v59.73a5,5,0,0,1-7.6,4.34l-20.91-12.32a5,5,0,0,0-2.56-.7h-15a5,5,0,0,1-5-5V86.55A5,5,0,0,1,179.2,81.51Z"/><circle class="cls-2" cx="31.91" cy="45.81" r="27.91"/><circle class="cls-1" cx="28.72" cy="33.62" r="3.84"/><circle class="cls-1" cx="40.21" cy="41.3" r="3.84"/><circle class="cls-1" cx="39.16" cy="53.54" r="3.84"/><circle class="cls-1" cx="24.88" cy="55.42" r="3.84"/><circle class="cls-1" cx="21.04" cy="44.18" r="3.84"/><circle class="cls-2" cx="100.21" cy="39.99" r="35.99"/><circle class="cls-1" cx="83.9" cy="36.44" r="4.61"/><circle class="cls-1" cx="96.38" cy="21.81" r="4.61"/><circle class="cls-1" cx="113.2" cy="31.83" r="4.61"/><circle class="cls-1" cx="111.32" cy="50.26" r="4.61"/><circle class="cls-1" cx="91.78" cy="53.71" r="4.61"/><polygon class="cls-3" points="24.33 138.56 88.16 89.47 152.68 138.56 115.4 138.56 115.4 187.94 61.2 187.94 61.2 138.7 24.33 138.56"/></g></g></svg>