<?xml version="1.0" encoding="utf-8"?>
<!-- Generator: Adobe Illustrator 21.0.2, SVG Export Plug-In . SVG Version: 6.00 Build 0)  -->
<svg version="1.1" id="Layer_1" xmlns="http://www.w3.org/2000/svg" xmlns:xlink="http://www.w3.org/1999/xlink" x="0px" y="0px"
	 viewBox="0 0 100 100" style="enable-background:new 0 0 100 100;" xml:space="preserve">
<style type="text/css">
	.st0{fill:#D8D8D8;}
</style>
<title>instagram</title>
<path class="st0" d="M100,50c0,27.6-22.4,50-50,50S0,77.6,0,50S22.4,0,50,0S100,22.4,100,50z M77.7,38.7c-0.2-1.5-0.4-3.1-0.8-4.6
	c-1.4-6.5-7-11.2-13.7-11.5c-0.5,0-1.1-0.2-1.6-0.3H38.4c-1.7,0.3-3.4,0.5-5,0.9c-6.1,1.7-10.4,7.1-10.8,13.4c0,0.6-0.2,1.2-0.3,1.7
	v23.2c0.3,1.8,0.6,3.6,1.1,5.4c1.8,6,7.1,10.2,13.4,10.4c0.6,0,1.3,0.2,1.9,0.3h22.7c1.6-0.3,3.2-0.4,4.7-0.8
	c6.4-1.5,11-7.1,11.3-13.6c0-0.6,0.2-1.2,0.3-1.9L77.7,38.7z"/>
<path id="XMLID_1_" class="st0" d="M50,40.8c-5.1,0-9.1,4.1-9.1,9.2s4.1,9.1,9.1,9.1s9.2-4.1,9.2-9.1s-4-9.1-9-9.2
	C50.1,40.8,50,40.8,50,40.8z"/>
<path class="st0" d="M62.1,27.6c-8.1-0.1-16.1-0.1-24.2,0c-5.6,0.1-9.3,3.2-10,8.9C27.4,40.9,27.5,58,27.7,62
	c0.2,6.2,4.2,10.3,10.4,10.4c8,0.1,16,0.1,24,0c6.2-0.1,10.2-4.1,10.3-10.3c0.1-8.1,0.1-16.1,0-24.2C72.3,31.8,68.2,27.7,62.1,27.6z
	 M50,64.2c-7.9,0-14.2-6.4-14.3-14.2c0-7.9,6.4-14.2,14.2-14.3c7.9,0,14.2,6.4,14.3,14.2l0,0C64.2,57.9,57.9,64.2,50,64.2z
	 M64.7,38.6c-1.9-0.1-3.4-1.6-3.4-3.5c0.1-1.8,1.6-3.3,3.5-3.2c1.8,0,3.3,1.5,3.3,3.4C68.1,37.1,66.6,38.6,64.7,38.6z"/>
</svg>
