<svg xmlns="http://www.w3.org/2000/svg" viewBox="0 0 254.24 237.19"><defs><style>.cls-1{fill:none;stroke:#ffd23e;stroke-miterlimit:10;stroke-width:10px;}.cls-2{fill:#d4775e;}</style></defs><title>Asset 9</title><g id="Layer_2" data-name="Layer 2"><g id="Layer_1-2" data-name="Layer 1"><polygon class="cls-1" points="130.02 55.98 157.13 28.87 152.81 64.62 181.1 46.74 173.25 88.98 210.18 88.98 163.81 113.74 214.11 126.47 160.67 126.47 210.18 163.64 153.6 147.13 178.75 172.28 141.81 155.78 148.88 210 120.2 157.35 100.16 210 100.16 156.56 47.51 191.93 65.59 149.49 30.23 149.49 57.73 121.99 15.29 103.91 59.3 92.13 30.23 77.19 65.59 77.19 56.94 37.9 93.88 66.19 93.88 28.87 114.7 66.98 120.2 23.76 130.02 55.98"/><g id="Layer_2-2" data-name="Layer 2"><g id="Layer_1-2-2" data-name="Layer 1-2"><path class="cls-2" d="M164.42,109.82l8.76,27.35-.72.43c-12.13-.29-21.54-.43-28.14-.43h-3.81c-1.72-8.4-2.87-12.56-3.52-12.56-1.15,1.44-5.74,5.6-13.71,12.56H92.12l37.62-30-3.09-10.05a.25.25,0,0,1-.07.14H95.42c-.43.07-2,2.73-4.59,8h28.5v.36c-4.81,9.55-7.47,14.36-8,14.57H83.29c-.43,0-3.59,5.89-9.48,17.52-6.46-.29-11.13-.43-14.07-.43H40.29v-.72L69.94,81h57.44c1.51,0,3.81.14,6.82.36,5.53-.07,12.06-.14,19.6-.36q.75.86,3,11.42L169.73,81h30.8c-.86,1.08-12.64,10.63-35.39,28.5C165.14,109.75,164.92,109.82,164.42,109.82Z"/></g></g></g></g></svg>