<?xml version="1.0" encoding="utf-8"?>
<!-- Generator: Adobe Illustrator 21.0.2, SVG Export Plug-In . SVG Version: 6.00 Build 0)  -->
<svg version="1.1" id="Layer_1" xmlns="http://www.w3.org/2000/svg" xmlns:xlink="http://www.w3.org/1999/xlink" x="0px" y="0px"
	 viewBox="0 0 100 100" style="enable-background:new 0 0 100 100;" xml:space="preserve">
<style type="text/css">
	.st0{fill:#D8D8D8;}
</style>
<title>pinterest</title>
<path class="st0" d="M100,50c0,27.6-22.4,50-50,50S0,77.6,0,50S22.4,0,50,0S100,22.4,100,50z M47.8,63.2c2.1,1.6,4.7,2.5,7.3,2.4
	c3.8,0,7.5-1.4,10.4-3.8c3-2.5,5.2-5.8,6.5-9.5c1-3,1.6-6.1,1.8-9.3c0.3-3.9-0.6-7.8-2.6-11.2c-3-5-7.9-8.6-13.5-9.9
	c-3.5-0.8-7-1-10.5-0.5c-4,0.4-7.9,1.9-11.2,4.1c-6.4,4.5-9.9,10.6-9.8,18.6c0,2.5,0.6,5,1.7,7.2c1.1,2.4,3,4.3,5.5,5.3
	c0.6,0.4,1.4,0.2,1.7-0.4c0.1-0.2,0.2-0.3,0.2-0.5c0.2-0.8,0.4-1.7,0.7-2.5s0.1-1.7-0.5-2.3c-0.9-1-1.6-2.3-1.9-3.7
	c-0.5-2-0.5-4.1-0.1-6.1c0.7-4.7,3.5-8.9,7.6-11.4c4.3-2.6,9.5-3.4,14.4-2c5.5,1.2,9.6,5.9,9.8,11.6c0.3,3.9-0.3,7.7-1.6,11.4
	c-0.7,2.4-2,4.5-3.8,6.3c-1.7,1.8-4.1,2.7-6.6,2.5c-2.8-0.3-4.9-2.6-4.8-5.5c0.1-1,0.3-2,0.6-3c0.7-2.4,1.4-4.7,2.1-7.1
	c0.5-1.5,0.7-3.1,0.5-4.7c-0.1-1.2-0.6-2.3-1.5-3.1c-1.6-1.3-3.7-1.5-5.5-0.6c-1.7,0.8-3,2.3-3.7,4.1c-1.2,3.2-1.2,6.7,0.1,9.8
	c0.1,0.2,0.1,0.5,0,0.7c-1.3,5.6-2.6,11.2-4,16.8c-0.7,2.8-1.1,5.7-1.1,8.6c0,2.3,0.2,4.5,0.5,6.8c0,0.2,0.1,0.5,0.4,0.5
	c0.2,0,0.5-0.1,0.6-0.3c0.8-1.1,1.6-2.1,2.3-3.2c1.8-2.6,3.2-5.5,4.1-8.5c0.7-2.8,1.4-5.5,2.1-8.3l0.3-1
	C46.6,62.1,47.2,62.7,47.8,63.2z"/>
</svg>
