<?xml version="1.0" encoding="utf-8"?>
<!-- Generator: Adobe Illustrator 21.0.2, SVG Export Plug-In . SVG Version: 6.00 Build 0)  -->
<svg version="1.1" id="Layer_1" xmlns="http://www.w3.org/2000/svg" xmlns:xlink="http://www.w3.org/1999/xlink" x="0px" y="0px"
	 viewBox="0 0 100 100" style="enable-background:new 0 0 100 100;" xml:space="preserve">
<style type="text/css">
	.st0{fill:#663300;}
	.st1{fill:#D8D8D8;}
</style>
<title>twitter</title>
<path class="st0" d="M79.3,32.8L79.3,32.8z"/>
<path class="st1" d="M100,50c0,27.6-22.4,50-50,50c-0.3,0-0.7,0-1,0C21.3,99.4-0.6,76.6,0,48.9S23.5-0.6,51.1,0
	C77.3,0.6,98.7,21.3,100,47.5C100,48.3,100,49.2,100,50z M83.4,33.8l-7.6,2.5c0.2-0.1,0.4-0.2,0.5-0.3s0.2-0.1,0.3-0.2
	c0.2-0.1,0.4-0.3,0.5-0.5c2.3-2.2,4.1-6.9,4.2-7.2l-6.7,3.6c-5.7-7-10.6-6.5-16.5-3.9c-6.7,3-5.8,12.8-5.8,12.8
	c-21.9-0.5-27.4-10.4-27.4-10.4c-6.3,10.2,4,16.6,4,16.6C27.3,46.8,23,45,23,45c0.2,5.6,4.6,9.5,8.5,11.8l0,0
	c0.6,0.3,1.1,0.7,1.7,0.9l0.5,0.3l0.5,0.2c0.8,0.4,1.5,0.7,2.1,0.9l0.3,0.1l0.7,0.3L37,59.7l-0.2,0.1c-0.1,0-0.2,0.1-0.3,0.1
	L36.2,60l0,0c-0.5,0.1-0.9,0.2-1.4,0.2c-2.6,0.1-5.1-0.2-7.6-1c0.9,2.9,2.9,5.3,5.6,6.7l0.6,0.3l0.5,0.3l0.6,0.3
	c0.7,0.3,1.4,0.5,2.2,0.7c0.5,0.1,0.9,0.2,1.3,0.3l0,0l0.5,0.1H39h0.3c-0.2,0.2-0.5,0.4-0.7,0.5s-0.5,0.3-0.7,0.5
	c-0.5,0.3-1,0.6-1.5,0.9c-4.7,2.5-10,3.5-15.3,3.2l1.1,0.5c1,0.4,1.9,0.8,2.8,1.2c0.4,0.2,0.8,0.3,1.1,0.5c0.5,0.2,1.1,0.4,1.6,0.6
	s0.8,0.3,1.1,0.4c0.8,0.3,1.6,0.5,2.4,0.8l0.8,0.2c0.8,0.2,1.6,0.4,2.4,0.6l1,0.2l1.2,0.2c0.4,0.1,0.8,0.1,1.2,0.2l1,0.1
	c0.4,0,0.8,0.1,1.2,0.1c10.4,0.7,18.8-3.1,26.5-10.2c11.1-10.1,10.4-27.6,10.4-27.6c0.3-0.1,0.6-0.3,0.8-0.5
	c0.2-0.1,0.3-0.2,0.5-0.4C80.3,38,81.9,36,83.4,33.8L83.4,33.8L83.4,33.8z"/>
</svg>
