<svg xmlns="http://www.w3.org/2000/svg" viewBox="0 0 250.09 213.39"><defs><style>.cls-1{fill:#9ec4cd;}.cls-2{fill:#d4765d;}.cls-3{fill:#fff;}</style></defs><title>Asset 6</title><g id="Layer_2" data-name="Layer 2"><g id="Layer_1-2" data-name="Layer 1"><path class="cls-1" d="M171.36,9.74c1,.55,1.95,1.16,3,1.66,12.15,6,16.53,14.85,12.81,27.93-2.36,8.27-5.76,16.25-9,24.24-7,17.14-14.14,34.2-21.24,51.29-.24.59-.55,1.14-1,2-3.23-7.8-6.33-15.29-9.43-22.78-1.53-3.69-3.17-7.33-4.55-11.07a5.49,5.49,0,0,1,0-3.65q13.89-33.83,27.94-67.6c.27-.66.42-1.36.63-2Z"/><path class="cls-2" d="M100.39,88.94c-.51-.18-1-.36-1.53-.52-2.54-.8-5-1.78-7.47-2.79l-.16-.09,9-43.15.53.19a76,76,0,0,0,7.8,2.85c1.95.56,3.93,1,5.91,1.43a60.76,60.76,0,0,0,7.36,1,58.55,58.55,0,0,0,23.94-2.61l4.72-1.63.56-.19c0,.16,0,.27,0,.38s0,.25-.07.37l-8.66,41.7a2,2,0,0,0-.05.27.64.64,0,0,1-.51.61c-1.63.55-3.25,1.13-4.87,1.68A56.33,56.33,0,0,1,117,91.3a70.81,70.81,0,0,1-7.89-.64,4.79,4.79,0,0,0-.53,0Zm-6.2-8.6.8.32c2.28.88,4.58,1.71,6.93,2.37a65.12,65.12,0,0,0,9.22,1.78,67.3,67.3,0,0,0,7.2.53,62.13,62.13,0,0,0,11.08-.69,73.85,73.85,0,0,0,11.94-3.21c.3-.1.36-.31.41-.56L148,50.77c0-.13,0-.27,0-.45l-.57.18-2.68.88a56.41,56.41,0,0,1-13.47,2.75A68.65,68.65,0,0,1,120,54c-2-.19-4-.47-6-.8a43.31,43.31,0,0,1-6.19-1.41c-2-.65-4-1.39-6.05-2.09l-1.11-.39ZM106.12,87c.1-.48.21-1,.3-1.44s0-.63-.43-.73c-.72-.18-1.44-.35-2.17-.5-.39-.08-.58.05-.67.44q-.33,1.49-.62,3a.53.53,0,0,0,.45.72c.7.17,1.41.33,2.12.48.43.08.61,0,.7-.47S106,87.49,106.12,87Zm12.71-36c.1-.48.2-1,.3-1.44s0-.65-.47-.72q-1-.17-2.09-.31c-.46-.06-.64.07-.74.51q-.32,1.46-.61,2.92c-.09.44,0,.61.46.69.71.13,1.43.23,2.15.33.41.05.6-.09.7-.5S118.73,51.45,118.83,51Zm-5.07-.79c.1-.48.21-1,.3-1.44s0-.67-.49-.78l-2-.47c-.49-.11-.67,0-.78.49q-.31,1.43-.6,2.87c-.09.47,0,.64.46.76.68.18,1.37.34,2.06.48.46.1.65,0,.76-.53S113.67,50.62,113.77,50.16Zm-2.6,37.7c.1-.5.21-1,.31-1.49s0-.59-.46-.67c-.71-.12-1.43-.23-2.15-.33-.41-.06-.61.08-.7.49q-.33,1.48-.62,3c-.08.39.06.6.44.67q1.07.19,2.15.32c.45.05.63-.09.73-.53S111.07,88.33,111.17,87.85Zm-10.06-2c.1-.46.2-.92.29-1.38s0-.72-.51-.89S99.64,83.16,99,83s-.7-.11-.83.48q-.29,1.35-.56,2.71c-.12.59,0,.77.57,1s1.24.39,1.87.57c.45.13.64,0,.75-.44S101,86.3,101.11,85.82Zm4.45-37.88c-.1.5-.21,1-.31,1.49s0,.62.37.74q1.08.36,2.18.67a.44.44,0,0,0,.63-.35q.35-1.56.65-3.14a.51.51,0,0,0-.37-.64c-.72-.24-1.45-.47-2.18-.67-.4-.12-.57,0-.66.41S105.67,47.45,105.56,47.94ZM93.09,83c-.1.5-.21,1-.31,1.49a.62.62,0,0,0,.39.8q1,.44,2.07.81c.4.14.58,0,.67-.38q.33-1.48.62-3a.6.6,0,0,0-.42-.78c-.67-.27-1.34-.53-2-.78-.44-.16-.6-.07-.7.38S93.19,82.51,93.09,83Zm7.66-36.88c-.1.5-.22,1-.31,1.49a.63.63,0,0,0,.44.82c.65.27,1.31.52,2,.76.46.17.63.07.73-.41q.31-1.43.6-2.87a.63.63,0,0,0-.46-.85q-1-.4-2-.77c-.42-.16-.59-.06-.7.4S100.84,45.63,100.75,46.11Zm15.55,42.18c.1-.5.21-1,.31-1.49s0-.63-.52-.66L114,86c-.47,0-.66.1-.77.57q-.31,1.43-.6,2.87c-.1.49,0,.65.49.7.72.07,1.44.11,2.16.13.42,0,.58-.13.67-.55S116.19,88.77,116.29,88.29ZM124,51.38c.1-.5.21-1,.31-1.49s0-.57-.45-.61q-1.11-.11-2.22-.16a.54.54,0,0,0-.66.5q-.34,1.51-.63,3c-.07.38.05.56.43.6.74.07,1.48.13,2.22.16.43,0,.6-.15.7-.59S123.86,51.86,124,51.38Zm5.15,0c.1-.48.21-1,.3-1.44s0-.59-.5-.59l-2.11,0c-.45,0-.63.15-.73.58q-.33,1.48-.62,3c-.08.41.07.58.48.59q1.06,0,2.11,0c.49,0,.65-.17.77-.67S129,51.83,129.11,51.35Zm5.12-.37c.11-.51.23-1,.32-1.54s-.07-.52-.43-.49c-.76.06-1.51.14-2.27.22a.68.68,0,0,0-.64.57c-.22,1-.43,2-.63,3-.08.39.07.56.46.53.72-.05,1.44-.13,2.16-.2a.77.77,0,0,0,.74-.68C134,51.94,134.13,51.46,134.23,51ZM118.1,88.26c-.1.5-.22,1-.31,1.49s0,.61.5.61q1.06,0,2.11,0c.46,0,.63-.15.73-.58q.33-1.48.62-3c.08-.43,0-.58-.47-.58q-1.06,0-2.11,0c-.5,0-.67.16-.78.65S118.19,87.8,118.1,88.26Zm8.48-.42c.1-.48.21-1,.3-1.43s0-.61-.5-.57l-2.1.2a.71.71,0,0,0-.74.66q-.31,1.43-.6,2.87c-.1.5,0,.64.53.61.68-.05,1.37-.12,2-.2a.75.75,0,0,0,.77-.7C126.39,88.79,126.48,88.31,126.58,87.84Zm1.76-.26c-.1.5-.22,1-.31,1.49s.06.55.46.49c.73-.11,1.46-.25,2.18-.4a.81.81,0,0,0,.66-.7c.2-1,.41-1.95.6-2.92.09-.45,0-.57-.48-.5l-2.08.37a.84.84,0,0,0-.76.73C128.54,86.62,128.44,87.1,128.34,87.58Zm11-37.43c.11-.51.22-1,.32-1.54s-.06-.52-.43-.45c-.75.12-1.49.26-2.24.41a.74.74,0,0,0-.62.6c-.22,1-.43,2-.63,3-.08.41.06.55.46.49.71-.11,1.42-.25,2.13-.38a.86.86,0,0,0,.73-.77C139.1,51.07,139.2,50.61,139.3,50.15Zm5.32-3.21a1.58,1.58,0,0,0-.4,0c-.75.2-1.5.4-2.25.61a.83.83,0,0,0-.62.69c-.2,1-.41,1.95-.6,2.92-.1.48,0,.6.52.48s1.25-.35,1.89-.5a1.06,1.06,0,0,0,.85-.93c.17-.89.37-1.77.54-2.66C144.59,47.36,144.59,47.18,144.62,46.94ZM133.39,86.57c-.1.48-.2,1-.3,1.44s0,.61.5.5c.67-.17,1.33-.36,2-.53a.94.94,0,0,0,.74-.78c.2-1,.41-1.95.6-2.92.09-.43,0-.55-.45-.44-.7.18-1.4.37-2.09.56a.89.89,0,0,0-.69.75C133.6,85.62,133.49,86.09,133.39,86.57Zm5-1.46c-.11.51-.22,1-.32,1.54s0,.54.41.41c.72-.24,1.43-.51,2.14-.78a.9.9,0,0,0,.57-.68c.21-1,.43-2.05.64-3.08.07-.37-.05-.47-.42-.34q-1.08.37-2.14.78a.9.9,0,0,0-.59.72C138.56,84.16,138.45,84.63,138.35,85.11Zm11.13-39.85a2.93,2.93,0,0,0-.54.07c-.63.22-1.25.46-1.88.68a1.06,1.06,0,0,0-.77.88c-.17.92-.38,1.84-.57,2.76,0,.15,0,.31-.08.56a2.7,2.7,0,0,0,.55-.06c.65-.22,1.29-.46,1.93-.7a1.07,1.07,0,0,0,.72-.87c.18-.94.39-1.87.58-2.81C149.45,45.63,149.46,45.48,149.48,45.26Z"/><path class="cls-2" d="M250.09,50.79l-9,43.16-.62-.39c-4.28-2.81-8.61-5.54-13.07-8.05a114.7,114.7,0,0,0-13-6.37,82.7,82.7,0,0,0-8.25-2.88,41.61,41.61,0,0,0-6.73-1.47c-1.51-.18-3-.3-4.54-.45l-1.4-.12c0-.43,8.69-42.53,8.94-43.19.83.06,1.67.11,2.51.19,1.4.14,2.81.27,4.21.48s2.64.46,3.94.79a95.21,95.21,0,0,1,22.34,9.28c4.89,2.71,9.61,5.69,14.29,8.76C249.87,50.61,250,50.7,250.09,50.79ZM247.29,56l-.28-.2c-5.21-3.38-10.5-6.61-16-9.48a93.17,93.17,0,0,0-10.62-4.8c-2-.75-4.05-1.46-6.11-2.09a48,48,0,0,0-4.95-1.24c-1.56-.3-3.15-.43-4.73-.63-.51-.06-1-.11-1.56-.16l-6.44,31c.53.06,1,.1,1.53.17,1.78.24,3.57.39,5.32.75a65.24,65.24,0,0,1,10.43,3.17,105.11,105.11,0,0,1,11.58,5.32c5.1,2.7,10,5.72,14.87,8.84l.54.33ZM203.83,72.43h0c.11-.53.23-1.06.33-1.59.06-.34,0-.53-.32-.59-.78-.17-1.56-.31-2.35-.44a.48.48,0,0,0-.61.41q-.35,1.56-.65,3.13c-.07.35.06.5.41.58q1.09.22,2.19.41c.43.07.6,0,.7-.47S203.73,72.91,203.83,72.43Zm12.68-35.72c.1-.48.21-1,.3-1.43s0-.67-.49-.81c-.66-.19-1.33-.36-2-.52-.46-.11-.65,0-.74.46q-.31,1.46-.61,2.92c-.1.48,0,.62.46.75q1,.28,2,.53c.47.11.62,0,.73-.46S216.42,37.19,216.52,36.71ZM198.78,71.58c.1-.5.21-1,.31-1.49s0-.64-.51-.69c-.68-.08-1.37-.15-2.05-.2-.5,0-.68.11-.79.62q-.3,1.41-.58,2.82c-.1.49,0,.63.49.69.72.09,1.44.16,2.16.22.4,0,.59-.11.68-.53S198.68,72.06,198.78,71.58Zm10.09,2h0c.1-.5.22-1,.31-1.49a.55.55,0,0,0-.46-.73c-.68-.19-1.36-.37-2-.53-.46-.11-.63,0-.73.47q-.31,1.46-.61,2.92c-.09.45,0,.63.47.75l2,.52c.49.12.67,0,.78-.48S208.76,74.06,208.86,73.58ZM206.43,34.7c.11-.51.22-1,.32-1.54s-.06-.57-.42-.61q-1.13-.14-2.27-.22a.53.53,0,0,0-.64.46q-.34,1.54-.64,3.08c-.07.34.07.54.4.58.75.09,1.51.17,2.27.22.43,0,.58-.1.68-.53S206.33,35.18,206.43,34.7Zm11.79,2.52c-.1.5-.21,1-.31,1.49s0,.62.41.76q1,.38,2.11.71c.4.12.57,0,.66-.4q.33-1.48.62-3a.59.59,0,0,0-.44-.76c-.68-.24-1.37-.47-2.06-.68-.43-.13-.59,0-.69.43S218.32,36.73,218.22,37.21Zm-4.48,38h0c.1-.48.21-1,.3-1.44s0-.67-.46-.84q-1-.37-2-.69c-.43-.14-.63,0-.73.46q-.31,1.43-.6,2.87c-.09.45,0,.64.44.79q1,.37,2.05.71c.39.13.59,0,.68-.38S213.64,75.69,213.75,75.19Zm-2.24-39.7c.1-.48.2-1,.3-1.44s0-.66-.51-.76c-.67-.13-1.35-.24-2-.34-.46-.07-.64,0-.74.49q-.32,1.46-.61,2.92c-.09.46,0,.63.51.72.69.13,1.39.25,2.08.36.43.07.6,0,.69-.47S211.4,36,211.5,35.49Zm14.65,4.76c.11-.51.22-1,.32-1.54a.59.59,0,0,0-.36-.76c-.69-.31-1.39-.6-2.1-.88a.4.4,0,0,0-.61.32c-.23,1-.44,2.09-.65,3.13a.53.53,0,0,0,.31.63c.73.32,1.46.63,2.2.92.35.14.49,0,.58-.34S226,40.74,226.15,40.24ZM215.41,75.86c-.1.48-.21,1-.3,1.44a.62.62,0,0,0,.43.81l1.95.82c.43.18.6.09.7-.36q.32-1.49.62-3a.59.59,0,0,0-.4-.78c-.66-.3-1.32-.58-2-.84-.42-.16-.59-.05-.69.4S215.51,75.36,215.41,75.86Zm15.4-33.45c.1-.5.2-1,.31-1.49a.64.64,0,0,0-.34-.78c-.67-.35-1.35-.69-2-1-.35-.16-.55-.06-.63.33-.22,1-.42,2-.63,3a.63.63,0,0,0,.33.74c.69.36,1.39.7,2.09,1,.35.16.5.06.59-.3S230.7,42.92,230.81,42.41ZM223.15,79.3c.1-.5.21-1,.31-1.49a.64.64,0,0,0-.37-.81q-1-.5-1.94-1c-.43-.2-.6-.11-.7.34q-.32,1.46-.61,2.92a.66.66,0,0,0,.4.85c.64.33,1.29.64,1.95,1,.39.19.56.1.66-.33S223,79.8,223.15,79.3Zm4.52,2.49c.1-.5.2-1,.31-1.49a.74.74,0,0,0-.36-.88c-.64-.37-1.29-.73-1.94-1.08-.35-.18-.54-.08-.62.31-.22,1-.41,2-.62,3a.72.72,0,0,0,.4.86c.63.35,1.26.71,1.89,1,.39.21.54.13.65-.32S227.56,82.27,227.66,81.79Zm4.72-38.51c-.1.46-.19.92-.29,1.38a.76.76,0,0,0,.44,1l1.8,1c.43.23.58.17.68-.31.21-1,.41-1.95.61-2.92a.76.76,0,0,0-.43-.9c-.62-.34-1.23-.69-1.85-1-.38-.2-.56-.12-.66.3S232.49,42.79,232.39,43.28Zm-.31,41.13c.1-.5.2-1,.31-1.49a.75.75,0,0,0-.37-.88c-.61-.38-1.22-.77-1.85-1.13-.38-.22-.56-.14-.65.29-.21,1-.4,1.95-.61,2.92a.79.79,0,0,0,.4.92c.61.38,1.23.76,1.85,1.12.35.21.52.13.61-.28S232,84.91,232.07,84.42Zm7.66-36.88c.1-.5.2-1,.31-1.48a.76.76,0,0,0-.36-.88c-.61-.38-1.22-.76-1.85-1.13-.38-.22-.57-.14-.66.28-.22,1-.41,2-.62,3a.74.74,0,0,0,.35.84c.63.39,1.25.78,1.89,1.16.38.22.53.13.63-.32S239.63,48,239.73,47.54Zm.92,42.58c.1-.5.2-1,.31-1.48a.83.83,0,0,0-.37-.94c-.59-.41-1.18-.82-1.79-1.22-.36-.24-.52-.17-.61.25-.22,1-.43,2-.63,3a.75.75,0,0,0,.32.81c.62.44,1.24.87,1.87,1.28.32.21.49.13.58-.24S240.54,90.62,240.65,90.12ZM244,50.31c.1-.5.2-1,.31-1.49A.75.75,0,0,0,244,48c-.62-.41-1.24-.82-1.86-1.21-.34-.21-.51-.15-.59.22-.23,1-.43,2.05-.64,3.08a.7.7,0,0,0,.3.76c.64.44,1.29.87,2,1.28.3.19.46.1.54-.25C243.84,51.34,243.94,50.82,244,50.31Zm-7.66,36.87c.1-.5.2-1,.31-1.49a.72.72,0,0,0-.3-.81c-.63-.43-1.26-.85-1.9-1.25-.33-.2-.51-.13-.59.25-.22,1-.43,2-.63,3a.76.76,0,0,0,.35.84c.62.41,1.24.82,1.86,1.21.33.21.49.14.58-.24S236.28,87.69,236.39,87.18ZM246,49.44a3.19,3.19,0,0,0-.18.45c-.21,1-.41,1.95-.61,2.92a.83.83,0,0,0,.39.93c.57.38,1.13.78,1.7,1.16s.59.22.7-.29c.2-.94.38-1.88.59-2.82a.86.86,0,0,0-.38-1c-.57-.39-1.13-.78-1.7-1.16A3,3,0,0,0,246,49.44Z"/><path class="cls-2" d="M0,46.38l.13-.61Q4.47,24.83,8.81,3.9A1.09,1.09,0,0,1,9.58,3,44.55,44.55,0,0,1,25.87,0a63.75,63.75,0,0,1,8.77.51,71.08,71.08,0,0,1,8.8,1.68A63.27,63.27,0,0,1,58.73,8.26l.66.39-9,43.18-.53-.29a60.43,60.43,0,0,0-9.51-4.34,70.05,70.05,0,0,0-11.76-3,65,65,0,0,0-15.09-.8A41.9,41.9,0,0,0,.86,46.13l-.66.25A.94.94,0,0,1,0,46.38Zm3-6.65a1.06,1.06,0,0,0,.2,0l.47-.15a42.78,42.78,0,0,1,10.66-2.14,63.92,63.92,0,0,1,16.16.88,70.54,70.54,0,0,1,11.07,2.9,61.76,61.76,0,0,1,7.94,3.48l.59.28,6.44-31L56,13.68A63.09,63.09,0,0,0,42.9,8.61a73.26,73.26,0,0,0-9-1.81,63.53,63.53,0,0,0-9.53-.57A46.31,46.31,0,0,0,9.93,8.59a.85.85,0,0,0-.64.74Q6.21,24.25,3.1,39.17Zm24.28,1c-.1.48-.2,1-.3,1.44s0,.66.51.75l2,.33c.47.07.66-.06.76-.54q.31-1.41.59-2.82c.1-.51,0-.7-.54-.79-.68-.12-1.36-.22-2-.32-.42-.06-.61.07-.7.48S27.37,40.25,27.27,40.74Zm16-35.19c.1-.5.21-1,.31-1.49s0-.6-.35-.69c-.75-.2-1.51-.39-2.27-.55a.48.48,0,0,0-.64.42Q40,4.78,39.65,6.33a.47.47,0,0,0,.39.61q1.08.28,2.16.53c.45.1.63,0,.73-.48S43.14,6,43.24,5.55ZM35.59,42.42c.09-.44.19-.89.28-1.33s0-.76-.54-.91-1.3-.32-2-.45c-.48-.1-.65,0-.76.52q-.3,1.41-.59,2.82c-.1.5,0,.69.53.81l2,.47c.46.1.62,0,.72-.49S35.49,42.9,35.59,42.42ZM45,6c-.1.48-.2,1-.3,1.44s0,.73.51.9l2,.63c.42.13.61,0,.7-.41q.32-1.46.61-2.92c.09-.45,0-.64-.44-.79q-1-.35-2-.64c-.49-.14-.64,0-.76.48S45.06,5.52,45,6Zm-4.47,38c.1-.5.21-1,.31-1.49s0-.6-.38-.73c-.71-.25-1.44-.48-2.17-.7a.43.43,0,0,0-.62.34q-.35,1.56-.65,3.14a.5.5,0,0,0,.38.63c.72.24,1.44.48,2.17.69.42.12.56,0,.66-.4S40.39,44.41,40.5,43.91ZM34.93,3.82c-.1.5-.21,1-.31,1.49s0,.62.47.71c.69.13,1.39.24,2.09.34.47.07.64,0,.74-.5q.32-1.46.61-2.92c.08-.42,0-.63-.46-.71Q37,2,35.93,1.89c-.44-.06-.61.09-.71.55S35,3.36,34.93,3.82Zm10.34,42c.1-.5.21-1,.31-1.49s0-.68-.47-.89q-.94-.41-1.9-.79c-.43-.17-.63-.06-.73.42q-.31,1.43-.6,2.87c-.09.47,0,.65.46.84l2,.81c.41.17.59.07.7-.39S45.18,46.32,45.28,45.86ZM49.82,7.68c-.1.48-.21,1-.3,1.43a.62.62,0,0,0,.43.82q1,.42,2,.8c.47.18.63.1.74-.39q.31-1.43.6-2.87a.65.65,0,0,0-.44-.87q-1-.41-2-.79c-.43-.16-.6-.06-.71.37S49.93,7.18,49.82,7.68ZM28,3.27c.1-.48.21-1,.29-1.44s0-.64-.53-.65q-1,0-2.06,0c-.49,0-.67.17-.77.66q-.3,1.41-.58,2.82c-.1.51,0,.66.55.66h2c.51,0,.68-.13.79-.62S27.92,3.75,28,3.27Zm-7.68,37c.1-.5.21-1,.31-1.49s0-.65-.5-.67c-.72,0-1.44,0-2.17,0a.61.61,0,0,0-.67.57q-.33,1.48-.62,3c-.08.41.06.57.48.58l2.11,0c.49,0,.66-.15.78-.65S20.25,40.68,20.34,40.24Zm1.81,0c-.1.48-.2,1-.3,1.43s0,.63.48.68q1.08.11,2.16.2a.54.54,0,0,0,.66-.49q.33-1.51.63-3c.08-.41-.05-.58-.47-.63q-1.05-.12-2.11-.18c-.49,0-.65.1-.76.58S22.25,39.75,22.15,40.23ZM29.81,3.36c-.11.51-.22,1-.32,1.54-.06.35.05.53.4.57q1.13.12,2.27.19c.41,0,.57-.09.65-.49q.33-1.51.63-3c.08-.39-.07-.58-.48-.62-.72-.07-1.44-.13-2.16-.18-.42,0-.59.11-.68.53S29.91,2.86,29.81,3.36ZM54.59,9.63c-.11.51-.22,1-.32,1.54a.62.62,0,0,0,.37.8q1,.53,2,1c.34.17.53.1.61-.26.23-1,.44-2.05.64-3.08a.67.67,0,0,0-.36-.78c-.67-.36-1.34-.71-2-1-.32-.16-.5-.05-.59.31S54.69,9.14,54.59,9.63ZM46.92,46.55c-.1.5-.21,1-.31,1.49a.64.64,0,0,0,.36.81q1,.52,2,1c.38.19.54.12.63-.28.22-1,.43-2,.63-3a.67.67,0,0,0-.34-.79c-.67-.36-1.34-.72-2-1-.36-.17-.52-.07-.61.33S47,46.06,46.92,46.55ZM15.19,40.23c.1-.5.21-1,.31-1.49s0-.61-.5-.58c-.7,0-1.4.12-2.1.18a.72.72,0,0,0-.71.62c-.2,1-.42,2-.61,3-.09.44,0,.57.47.54.72,0,1.44-.11,2.16-.18.43,0,.59-.2.68-.63S15.09,40.71,15.19,40.23ZM22.85,3.33h0c.11-.51.22-1,.32-1.54s-.05-.52-.43-.5c-.74,0-1.48.11-2.21.18a.7.7,0,0,0-.67.6c-.21,1-.42,2-.62,3-.08.41,0,.53.45.51q1.08-.07,2.16-.18c.47,0,.61-.19.72-.66S22.76,3.8,22.85,3.33ZM10.09,40.72c.1-.5.21-1,.31-1.49s0-.55-.46-.48c-.71.12-1.42.26-2.13.41a.81.81,0,0,0-.68.68c-.2,1-.42,2-.61,3-.08.42,0,.54.45.47.71-.12,1.42-.26,2.13-.4a.81.81,0,0,0,.7-.72C9.88,41.68,10,41.2,10.09,40.72ZM14.47,4.47c-.1.49-.21,1-.31,1.48s0,.53.46.45L16.75,6a.78.78,0,0,0,.69-.66c.2-1,.41-2,.61-3,.09-.43,0-.57-.49-.49-.69.11-1.38.26-2.07.39a.83.83,0,0,0-.71.72C14.68,3.49,14.58,4,14.47,4.47ZM9.25,7.88a1.08,1.08,0,0,0,.28,0c.77-.25,1.55-.5,2.32-.77a.89.89,0,0,0,.59-.72c.2-1,.41-1.95.6-2.92.09-.45,0-.57-.5-.43-.66.2-1.3.43-2,.65a1.05,1.05,0,0,0-.74.85c-.19,1-.4,1.91-.59,2.87A2.52,2.52,0,0,0,9.25,7.88ZM1.59,44.77a1.58,1.58,0,0,0,.33,0c.76-.25,1.51-.49,2.26-.75a.89.89,0,0,0,.59-.72c.2-1,.41-1.95.6-2.92.09-.45-.05-.57-.5-.44-.66.2-1.3.43-2,.65a1.05,1.05,0,0,0-.74.85c-.19,1-.4,1.91-.59,2.87A2.66,2.66,0,0,0,1.59,44.77Z"/><path class="cls-2" d="M192.87,74.18l-3.32.2A155.25,155.25,0,0,0,168.2,77a87.81,87.81,0,0,0-18.66,5.85c-1.85.83-3.62,1.83-5.42,2.75l-1.48.73c0-.24,0-.37,0-.51.17-.85.35-1.7.53-2.55q4.1-19.73,8.19-39.47a1.21,1.21,0,0,1,.73-1c1.69-.83,3.33-1.76,5-2.58a76.4,76.4,0,0,1,12.35-4.6A119.41,119.41,0,0,1,189,32c4.06-.46,8.14-.76,12.22-1h.54C201.81,31.42,193.19,73.19,192.87,74.18Zm5.9-37h-.5c-5,.35-9.91.82-14.83,1.54A108,108,0,0,0,165,42.88a58.88,58.88,0,0,0-10.84,4.57c-.55.31-1.1.63-1.67.9a1.1,1.1,0,0,0-.66.89q-1.5,7.35-3,14.68l-3.11,15c0,.2-.07.41-.12.72.53-.28,1-.49,1.39-.73a52.1,52.1,0,0,1,8.37-3.86,100.19,100.19,0,0,1,18.25-4.77c6-1,12.11-1.63,18.21-2.08l.53-.05Zm-2.28-3.06c-.1.48-.21,1-.3,1.44s0,.67.54.68h2c.52,0,.71-.14.82-.66q.3-1.38.57-2.76c.11-.54,0-.7-.56-.72s-1.34,0-2,0c-.51,0-.67.15-.79.64S196.59,33.64,196.49,34.1ZM192.19,71c.1-.48.21-1,.3-1.44s0-.62-.49-.63c-.7,0-1.41,0-2.11,0a.66.66,0,0,0-.76.62q-.32,1.46-.61,2.92c-.09.44,0,.58.52.59l2,0c.57,0,.74-.14.86-.69S192.1,71.49,192.19,71Zm-8.48.21c-.1.48-.2,1-.3,1.43s0,.65.55.63l2-.12c.5,0,.67-.17.77-.67q.31-1.43.59-2.86c.1-.49,0-.63-.53-.61-.68,0-1.37.07-2.05.13a.68.68,0,0,0-.74.65C183.9,70.29,183.81,70.77,183.71,71.24Zm7.66-36.88c-.11.51-.22,1-.32,1.54s0,.54.45.52c.74,0,1.48-.07,2.22-.13a.63.63,0,0,0,.66-.6q.32-1.48.62-3c.08-.43,0-.58-.48-.56-.7,0-1.41.07-2.11.13-.48,0-.64.2-.76.7S191.47,33.9,191.37,34.36ZM178.61,71.82c-.1.5-.21,1-.31,1.49s0,.58.46.53l2.15-.26a.78.78,0,0,0,.72-.69c.19-1,.4-1.91.59-2.87.09-.46,0-.62-.5-.58-.7.07-1.4.17-2.09.26a.77.77,0,0,0-.72.69C178.81,70.87,178.7,71.35,178.61,71.82Zm7.66-36.9c-.11.51-.22,1-.32,1.54s0,.54.46.5c.74-.08,1.47-.18,2.2-.28a.72.72,0,0,0,.66-.62c.21-1,.42-2,.61-3,.08-.43-.06-.58-.49-.53-.7.07-1.4.18-2.09.26a.78.78,0,0,0-.75.72C186.47,34,186.36,34.47,186.27,34.93Zm-10.1,2c-.11.51-.22,1-.32,1.54s0,.55.46.46c.71-.15,1.41-.32,2.11-.48a.87.87,0,0,0,.71-.73c.2-1,.41-1.94.6-2.92.09-.46,0-.58-.48-.48-.69.14-1.37.31-2.06.47a.9.9,0,0,0-.74.77C176.36,36,176.26,36.43,176.17,36.89Zm-4.42,36.29c.1-.5.21-1,.31-1.49s0-.63-.53-.52-1.3.3-2,.45a.94.94,0,0,0-.78.8c-.19.94-.39,1.88-.58,2.82-.1.52,0,.63.53.52l2-.45a.92.92,0,0,0,.78-.79C171.56,74.06,171.66,73.62,171.75,73.18Zm12.71-37.92c.1-.48.2-1,.3-1.44s0-.61-.49-.53c-.68.11-1.35.25-2,.36a.84.84,0,0,0-.76.73c-.19,1-.4,1.91-.59,2.87-.1.49,0,.61.49.53.7-.11,1.39-.25,2.08-.37a.79.79,0,0,0,.7-.72C184.25,36.21,184.36,35.74,184.46,35.26ZM176.8,72.17c.1-.49.21-1,.31-1.48s0-.59-.46-.52c-.71.11-1.42.25-2.13.38a.79.79,0,0,0-.68.67c-.2,1-.42,2-.61,3-.09.45,0,.56.49.48l2.08-.37a.79.79,0,0,0,.71-.7C176.59,73.12,176.7,72.64,176.8,72.17Zm-5.6-33.91c-.1.48-.21,1-.3,1.44s0,.62.54.48l1.93-.54a1,1,0,0,0,.76-.82c.19-.94.39-1.88.58-2.82.1-.52,0-.62-.54-.48l-1.94.53a1,1,0,0,0-.76.83C171.4,37.34,171.29,37.8,171.2,38.26Zm-7.66,36.88h0c-.11.51-.22,1-.32,1.54s.06.5.4.41c.75-.19,1.5-.41,2.25-.63a.82.82,0,0,0,.58-.66c.21-1,.42-2,.62-3,.09-.45,0-.56-.5-.45-.66.17-1.32.37-2,.55a1,1,0,0,0-.76.82C163.74,74.22,163.64,74.68,163.54,75.14Zm-4.9,1.53c-.1.5-.21,1-.31,1.49s0,.56.43.43c.71-.21,1.41-.45,2.12-.68a.89.89,0,0,0,.62-.69c.21-1,.43-2,.63-3,.08-.39-.06-.51-.45-.39-.69.21-1.38.44-2.07.66a.94.94,0,0,0-.68.77C158.85,75.71,158.74,76.19,158.64,76.67Zm7.65-36.86c-.1.5-.21,1-.31,1.49s0,.54.45.41c.69-.21,1.38-.44,2.07-.66a1,1,0,0,0,.68-.77c.19-1,.4-1.91.59-2.87.1-.5,0-.61-.5-.46-.66.2-1.31.41-2,.62a1,1,0,0,0-.73.85C166.5,38.89,166.39,39.35,166.3,39.81Zm-9,35.57a2.7,2.7,0,0,0-.5.06l-2,.73a1,1,0,0,0-.66.79c-.2,1-.41,1.95-.6,2.92a2.44,2.44,0,0,0,0,.5,4.62,4.62,0,0,0,.48-.11l1.89-.67a1.12,1.12,0,0,0,.8-.93c.17-.91.37-1.8.56-2.71C157.25,75.8,157.25,75.64,157.28,75.37Zm3.8-31.89a4.66,4.66,0,0,0,.57-.11c.63-.22,1.25-.46,1.89-.67a1.08,1.08,0,0,0,.77-.89c.18-.92.38-1.84.57-2.76a4.62,4.62,0,0,0,0-.59,6,6,0,0,0-.58.13c-.6.21-1.19.43-1.79.63a1.16,1.16,0,0,0-.83,1c-.17.89-.37,1.77-.54,2.65C161.13,43,161.12,43.19,161.09,43.48ZM148.73,82.26a1.34,1.34,0,0,0,.32,0c.66-.28,1.32-.58,2-.85a1.18,1.18,0,0,0,.79-.95c.18-.91.37-1.81.56-2.71a4.69,4.69,0,0,0,0-.54,1.24,1.24,0,0,0-.38,0c-.65.26-1.31.52-1.95.81a1.29,1.29,0,0,0-.74,1c-.18.94-.39,1.88-.58,2.82C148.75,81.93,148.75,82.06,148.73,82.26Zm11.37-41.94c-.13,0-.19-.07-.23-.06a8.57,8.57,0,0,0-2.33,1,1.21,1.21,0,0,0-.51.8c-.2,1-.41,1.94-.6,2.92a2.5,2.5,0,0,0,0,.43,1.32,1.32,0,0,0,.26,0c.7-.3,1.39-.6,2.09-.89a1.11,1.11,0,0,0,.71-.88c.18-.92.38-1.84.57-2.76C160.07,40.67,160.07,40.51,160.09,40.32Zm-12.25,39a5.08,5.08,0,0,0-.54.18c-.6.29-1.2.6-1.8.88a1.21,1.21,0,0,0-.72.94c-.17.92-.38,1.84-.57,2.76,0,.15,0,.31-.07.56a3.56,3.56,0,0,0,.56-.15c.59-.28,1.17-.57,1.75-.86a1.3,1.3,0,0,0,.75-1c.18-.92.38-1.84.57-2.76C147.8,79.76,147.81,79.62,147.84,79.34Zm7.64-36.83a2.14,2.14,0,0,0-.44.09l-1.95,1a1.15,1.15,0,0,0-.65.87c-.18,1-.39,1.91-.59,2.87a4.22,4.22,0,0,0,0,.47,2.38,2.38,0,0,0,.46-.11l1.9-.93a1.23,1.23,0,0,0,.68-.92c.18-.94.39-1.88.58-2.81C155.46,42.86,155.46,42.72,155.48,42.51Z"/><path class="cls-2" d="M50.91,52.08,59.86,9a2.49,2.49,0,0,1,.34.16c1.19.82,2.4,1.62,3.57,2.46a30.91,30.91,0,0,1,6,5.91,108.74,108.74,0,0,0,9.59,10.64,75.17,75.17,0,0,0,11.6,9.27,83,83,0,0,0,8.16,4.41l.57.28-9,43.13a1.13,1.13,0,0,1-.26-.06,76.48,76.48,0,0,1-10-5.58A81.08,81.08,0,0,1,66.15,67c-2-2.27-4-4.63-5.94-7a34.82,34.82,0,0,0-8.54-7.4L51,52.21A1,1,0,0,1,50.91,52.08Zm45.83-4.47-.14-.11-.34-.18A68.91,68.91,0,0,1,79.14,35.41,102.71,102.71,0,0,1,68.76,24.1a34.41,34.41,0,0,0-8.07-7.59l-.53-.34-.14.67L53.84,46.57a1.36,1.36,0,0,0-.07.37.75.75,0,0,0,.14.37,1.18,1.18,0,0,0,.31.22,33.2,33.2,0,0,1,7.56,7c2.07,2.59,4.2,5.12,6.47,7.54,6.27,6.64,13.25,12.36,21.54,16.33l.51.24ZM87.12,80.15c-.1.5-.21,1-.31,1.49a.69.69,0,0,0,.39.86c.64.34,1.28.67,1.94,1,.38.18.58.08.67-.33q.33-1.48.62-3a.65.65,0,0,0-.39-.81q-1-.51-2-1c-.37-.17-.53-.09-.63.3S87.22,79.66,87.12,80.15ZM97.78,44.77l.31-1.49a.66.66,0,0,0-.35-.78c-.67-.35-1.35-.7-2-1-.36-.17-.54-.08-.62.32-.22,1-.41,2-.62,3a.69.69,0,0,0,.36.83c.65.35,1.32.68,2,1,.39.18.56.09.66-.33S97.68,45.27,97.78,44.77Zm-7.46-4c-.1.48-.2,1-.3,1.43a.76.76,0,0,0,.35.89c.63.39,1.26.78,1.91,1.14.36.2.52.12.61-.29.21-1,.41-2,.62-3a.74.74,0,0,0-.37-.87L91.27,39c-.38-.22-.54-.15-.65.29S90.42,40.23,90.32,40.73ZM85.55,79.26c.1-.48.19-1,.3-1.43a.73.73,0,0,0-.36-.88c-.62-.37-1.23-.75-1.86-1.11-.39-.22-.57-.15-.66.28-.22,1-.41,2-.62,3a.75.75,0,0,0,.35.84c.63.39,1.26.77,1.9,1.14.36.2.53.12.62-.27S85.44,79.77,85.55,79.26Zm-4.38-2.63c.1-.48.19-1,.3-1.43a.86.86,0,0,0-.37-1L79.36,73c-.4-.27-.55-.21-.66.28-.21,1-.4,1.91-.6,2.86a.89.89,0,0,0,.39,1c.56.39,1.12.79,1.69,1.17s.58.21.69-.31S81.08,77.08,81.17,76.62Zm7.66-36.9.31-1.48a.81.81,0,0,0-.36-.89c-.61-.42-1.21-.85-1.82-1.26-.32-.21-.49-.15-.58.23-.22,1-.43,2-.63,3a.8.8,0,0,0,.33.86c.6.43,1.2.86,1.82,1.27.34.23.52.15.62-.26S88.73,40.22,88.83,39.72ZM63.08,14.81h0c.1-.5.2-1,.31-1.49a.79.79,0,0,0-.28-.87c-.61-.45-1.23-.89-1.86-1.31-.32-.21-.5-.12-.58.25-.22,1-.42,2-.63,3a.72.72,0,0,0,.27.77q1,.71,2,1.37c.28.19.42.12.5-.21C62.87,15.84,63,15.32,63.08,14.81ZM55.43,51.66c.1-.48.19-1,.3-1.44a.84.84,0,0,0-.34-1c-.59-.42-1.18-.84-1.78-1.24-.36-.24-.52-.17-.61.25-.22,1-.42,2-.63,3a.71.71,0,0,0,.28.77c.63.46,1.26.91,1.91,1.35.3.2.46.13.54-.22C55.22,52.69,55.32,52.18,55.43,51.66ZM82,34.68c-.1.46-.18.92-.29,1.38a1,1,0,0,0,.36,1.06c.54.43,1.06.87,1.61,1.29.37.29.53.24.63-.21.22-1,.42-2,.62-3a.84.84,0,0,0-.31-.87c-.57-.47-1.15-.94-1.73-1.39-.33-.26-.48-.19-.58.24S82.12,34.19,82,34.68ZM74.36,71.56c-.1.48-.19,1-.3,1.43a.91.91,0,0,0,.33,1c.54.45,1.09.89,1.65,1.33.38.29.54.24.64-.21.22-1,.42-2,.62-3a.86.86,0,0,0-.34-.91L75.3,69.87c-.39-.31-.53-.25-.64.26S74.46,71.08,74.36,71.56Zm6.32-38.1L81,32a1,1,0,0,0-.33-1l-1.51-1.39c-.38-.35-.54-.3-.64.19-.21,1-.4,1.91-.6,2.87a1,1,0,0,0,.32,1c.5.47,1,.94,1.52,1.39s.53.3.65-.19S80.58,33.94,80.68,33.46ZM71,66.21a2.39,2.39,0,0,0-.19.43c-.21,1-.41,1.95-.61,2.92a1,1,0,0,0,.3,1c.53.49,1.05,1,1.59,1.47.31.28.48.23.57-.16.22-1,.43-2,.63-3a.91.91,0,0,0-.28-.89c-.57-.53-1.14-1.05-1.72-1.58A1.6,1.6,0,0,0,71,66.21ZM58.8,57a1.26,1.26,0,0,0,.13-.24q.34-1.62.67-3.24a.92.92,0,0,0-.31-.88c-.51-.49-1-1-1.55-1.44-.35-.31-.51-.25-.61.21-.2,1-.39,1.91-.6,2.86a1,1,0,0,0,.35,1.06c.51.46,1,.93,1.51,1.39A3,3,0,0,0,58.8,57ZM65,14.06a1.73,1.73,0,0,0-.14.3q-.33,1.56-.65,3.13a.88.88,0,0,0,.31.87c.54.5,1.08,1,1.63,1.51a1.87,1.87,0,0,0,.37.2,2.19,2.19,0,0,0,.13-.31c.22-1,.43-2.09.65-3.13a1,1,0,0,0-.32-.93c-.5-.47-1-.94-1.51-1.4A2.3,2.3,0,0,0,65,14.06ZM76.45,31.84a2.23,2.23,0,0,0,.15-.33c.22-1,.44-2.09.66-3.14a1,1,0,0,0-.28-.89q-.76-.81-1.53-1.61a1.54,1.54,0,0,0-.33-.19,1.72,1.72,0,0,0-.15.32q-.33,1.54-.64,3.08a1,1,0,0,0,.29.95l1.46,1.54A3.1,3.1,0,0,0,76.45,31.84ZM68.78,68.7a1.38,1.38,0,0,0,.13-.24q.34-1.62.68-3.24a.92.92,0,0,0-.26-.85q-.78-.83-1.57-1.65a1.31,1.31,0,0,0-.33-.17,2.3,2.3,0,0,0-.14.34c-.21,1-.42,2-.63,3a1.06,1.06,0,0,0,.3,1c.47.5.94,1,1.42,1.49A3.07,3.07,0,0,0,68.78,68.7Zm-3.5-3.77a1.76,1.76,0,0,0,.18-.34q.33-1.54.64-3.08a1.07,1.07,0,0,0-.24-.91q-.72-.88-1.46-1.75a1.2,1.2,0,0,0-.3-.19.8.8,0,0,0-.11.18c-.23,1.1-.47,2.19-.69,3.29a1,1,0,0,0,.25.86q.7.86,1.42,1.71A2.23,2.23,0,0,0,65.29,64.93ZM73,28a2.11,2.11,0,0,0,.16-.35q.32-1.51.63-3a1.15,1.15,0,0,0-.27-1L72.13,22a2.92,2.92,0,0,0-.35-.29,1.67,1.67,0,0,0-.16.33q-.33,1.54-.64,3.08a1.11,1.11,0,0,0,.24,1c.45.54.89,1.09,1.35,1.62A2.78,2.78,0,0,0,73,28ZM61,54.56a1.48,1.48,0,0,0-.14.28q-.34,1.59-.66,3.18a1.09,1.09,0,0,0,.27.9l1.28,1.68a3.49,3.49,0,0,0,.33.32,1.66,1.66,0,0,0,.17-.33c.22-1,.45-2,.63-3.08a1.23,1.23,0,0,0-.14-.82c-.46-.69-1-1.33-1.5-2C61.17,54.65,61.09,54.63,61,54.56Zm8.75-30.5a1.67,1.67,0,0,0,.14-.28c.22-1.06.45-2.13.66-3.19a1.09,1.09,0,0,0-.21-.87q-.66-.9-1.35-1.77a1.69,1.69,0,0,0-.35-.25,1.8,1.8,0,0,0-.14.3q-.33,1.57-.65,3.14a1.1,1.1,0,0,0,.25.91l1.28,1.68A3.8,3.8,0,0,0,69.72,24.06Z"/><path class="cls-3" d="M94.19,80.34l6.44-31,1.11.39c2,.7,4,1.44,6.05,2.09A43.31,43.31,0,0,0,114,53.22c2,.33,4,.6,6,.8a68.65,68.65,0,0,0,11.38.12,56.41,56.41,0,0,0,13.47-2.75l2.68-.88.57-.18c0,.18,0,.32,0,.45l-6.25,30.1c-.05.26-.11.46-.41.56a73.85,73.85,0,0,1-11.94,3.21,62.13,62.13,0,0,1-11.08.69,67.3,67.3,0,0,1-7.2-.53A65.12,65.12,0,0,1,101.93,83c-2.35-.66-4.65-1.49-6.93-2.37Z"/><path class="cls-3" d="M106.12,87c-.1.5-.2,1-.31,1.49s-.28.55-.7.47c-.71-.14-1.42-.3-2.12-.48a.53.53,0,0,1-.45-.72q.29-1.49.62-3c.09-.39.28-.52.67-.44.73.15,1.45.31,2.17.5.41.1.51.3.43.73S106.22,86.52,106.12,87Z"/><path class="cls-3" d="M118.83,51c-.1.5-.2,1-.31,1.49s-.29.55-.7.5c-.72-.1-1.43-.2-2.15-.33-.44-.08-.55-.25-.46-.69q.29-1.47.61-2.92c.1-.44.28-.57.74-.51q1,.14,2.09.31c.46.07.56.25.47.72S118.93,50.47,118.83,51Z"/><path class="cls-3" d="M113.77,50.16c-.1.46-.19.92-.29,1.38s-.3.63-.76.53c-.69-.14-1.38-.3-2.06-.48-.46-.12-.55-.3-.46-.76q.29-1.44.6-2.87c.1-.48.29-.6.78-.49l2,.47c.47.11.58.29.49.78S113.86,49.68,113.77,50.16Z"/><path class="cls-3" d="M111.17,87.85c-.1.48-.19,1-.3,1.43s-.27.59-.73.53q-1.08-.13-2.15-.32c-.39-.07-.52-.27-.44-.67q.29-1.49.62-3c.09-.42.29-.55.7-.49.72.1,1.43.2,2.15.33.46.08.55.22.46.67S111.27,87.36,111.17,87.85Z"/><path class="cls-3" d="M101.11,85.82c-.1.48-.19,1-.3,1.43s-.3.57-.75.44q-.94-.27-1.87-.57c-.59-.19-.69-.36-.57-1q.28-1.36.56-2.71c.12-.59.23-.65.83-.48s1.25.36,1.87.56.62.34.51.89S101.21,85.36,101.11,85.82Z"/><path class="cls-3" d="M105.56,47.94c.1-.5.2-1,.31-1.49s.26-.52.66-.41c.73.21,1.46.44,2.18.67a.51.51,0,0,1,.37.64q-.3,1.57-.65,3.14a.44.44,0,0,1-.63.35q-1.1-.31-2.18-.67c-.34-.12-.45-.35-.37-.74S105.46,48.44,105.56,47.94Z"/><path class="cls-3" d="M93.09,83c.1-.48.19-1,.3-1.43s.26-.54.7-.38c.68.25,1.35.51,2,.78a.6.6,0,0,1,.42.78q-.29,1.49-.62,3c-.09.42-.27.52-.67.38q-1-.37-2.07-.81a.62.62,0,0,1-.39-.8C92.87,84,93,83.48,93.09,83Z"/><path class="cls-3" d="M100.75,46.11c.1-.48.19-1,.3-1.43s.28-.55.7-.4q1,.37,2,.77a.63.63,0,0,1,.46.85q-.28,1.44-.6,2.87c-.11.48-.27.58-.73.41-.66-.24-1.32-.5-2-.76a.63.63,0,0,1-.44-.82C100.53,47.1,100.64,46.61,100.75,46.11Z"/><path class="cls-3" d="M116.29,88.29c-.1.48-.19,1-.3,1.43s-.26.56-.67.55c-.72,0-1.44-.07-2.16-.13-.48,0-.58-.21-.49-.7q.28-1.44.6-2.87c.1-.47.3-.6.77-.57l2.06.14c.48,0,.61.19.52.66S116.4,87.79,116.29,88.29Z"/><path class="cls-3" d="M124,51.38c-.1.48-.19,1-.3,1.43s-.27.61-.7.59c-.74,0-1.48-.09-2.22-.16-.38,0-.5-.21-.43-.6q.29-1.52.63-3a.54.54,0,0,1,.66-.5q1.11.05,2.22.16c.44,0,.53.18.45.61S124.06,50.88,124,51.38Z"/><path class="cls-3" d="M129.11,51.35c-.1.48-.19,1-.3,1.43s-.27.66-.77.67q-1.06,0-2.11,0c-.42,0-.56-.18-.48-.59q.29-1.49.62-3c.09-.42.28-.56.73-.58l2.11,0c.48,0,.59.12.5.59S129.21,50.87,129.11,51.35Z"/><path class="cls-3" d="M134.23,51c-.1.48-.2,1-.3,1.43a.77.77,0,0,1-.74.68c-.72.07-1.44.15-2.16.2-.39,0-.53-.13-.46-.53.2-1,.41-2,.63-3a.68.68,0,0,1,.64-.57c.75-.08,1.51-.16,2.27-.22.37,0,.5.12.43.49S134.34,50.47,134.23,51Z"/><path class="cls-3" d="M118.1,88.26c.1-.46.19-.92.29-1.38s.28-.64.78-.65q1.06,0,2.11,0c.43,0,.55.15.47.58q-.29,1.49-.62,3c-.09.43-.27.56-.73.58q-1.06,0-2.11,0c-.46,0-.58-.16-.5-.61S118,88.75,118.1,88.26Z"/><path class="cls-3" d="M126.58,87.84c-.1.48-.19,1-.3,1.43a.75.75,0,0,1-.77.7c-.68.08-1.36.15-2,.2-.5,0-.62-.11-.53-.61q.28-1.44.6-2.87a.71.71,0,0,1,.74-.66l2.1-.2c.47,0,.59.1.5.57S126.68,87.36,126.58,87.84Z"/><path class="cls-3" d="M128.34,87.58c.1-.48.2-1,.3-1.43a.84.84,0,0,1,.76-.73l2.08-.37c.44-.07.56,0,.48.5-.19,1-.4,1.95-.6,2.92a.81.81,0,0,1-.66.7c-.73.14-1.45.28-2.18.4-.4.06-.53-.08-.46-.49S128.23,88.07,128.34,87.58Z"/><path class="cls-3" d="M139.3,50.15c-.1.46-.2.92-.28,1.38a.86.86,0,0,1-.73.77c-.71.13-1.42.27-2.13.38-.4.06-.54-.08-.46-.49.2-1,.41-2,.63-3a.74.74,0,0,1,.62-.6c.74-.14,1.49-.28,2.24-.41.38-.06.5.08.43.45S139.4,49.64,139.3,50.15Z"/><path class="cls-3" d="M144.62,46.94c0,.24,0,.41-.07.59-.18.89-.38,1.77-.54,2.66a1.06,1.06,0,0,1-.85.93c-.63.15-1.25.34-1.89.5s-.61,0-.52-.48c.19-1,.41-1.95.6-2.92a.83.83,0,0,1,.62-.69c.75-.21,1.5-.41,2.25-.61A1.58,1.58,0,0,1,144.62,46.94Z"/><path class="cls-3" d="M133.39,86.57c.1-.48.21-1,.3-1.44a.89.89,0,0,1,.69-.75c.7-.19,1.39-.39,2.09-.56.42-.1.54,0,.45.44-.19,1-.4,1.95-.6,2.92a.94.94,0,0,1-.74.78c-.66.18-1.32.37-2,.53-.48.12-.59,0-.5-.5S133.29,87,133.39,86.57Z"/><path class="cls-3" d="M138.35,85.11c.1-.48.21-1,.29-1.43a.9.9,0,0,1,.59-.72q1.06-.41,2.14-.78c.37-.13.49,0,.42.34-.2,1-.42,2.05-.64,3.08a.9.9,0,0,1-.57.68c-.71.28-1.42.54-2.14.78-.38.13-.49,0-.41-.41S138.25,85.62,138.35,85.11Z"/><path class="cls-3" d="M149.48,45.26c0,.22,0,.37-.06.5-.19.94-.4,1.87-.58,2.81a1.07,1.07,0,0,1-.72.87c-.64.24-1.29.48-1.93.7a2.7,2.7,0,0,1-.55.06c0-.24,0-.4.08-.56.19-.92.39-1.84.57-2.76a1.06,1.06,0,0,1,.77-.88c.63-.22,1.25-.46,1.88-.68A2.93,2.93,0,0,1,149.48,45.26Z"/><path class="cls-3" d="M247.29,56l-6.44,31-.54-.33c-4.85-3.12-9.77-6.14-14.87-8.84a105.11,105.11,0,0,0-11.58-5.32,65.24,65.24,0,0,0-10.43-3.17c-1.75-.35-3.55-.51-5.32-.75-.5-.07-1-.11-1.53-.17l6.44-31c.53.05,1,.1,1.56.16,1.58.2,3.17.33,4.73.63a48,48,0,0,1,4.95,1.24c2.06.63,4.09,1.34,6.11,2.09A93.17,93.17,0,0,1,231,46.28c5.51,2.86,10.8,6.1,16,9.48Z"/><path class="cls-3" d="M203.83,72.43c-.1.48-.19,1-.3,1.43s-.27.54-.7.47q-1.1-.18-2.19-.41c-.36-.07-.48-.23-.41-.58q.3-1.57.65-3.13a.48.48,0,0,1,.61-.41c.79.12,1.57.27,2.35.44.29.06.38.25.32.59-.1.53-.22,1.06-.33,1.59Z"/><path class="cls-3" d="M216.52,36.71c-.1.48-.19,1-.3,1.43s-.26.57-.73.46q-1-.25-2-.53c-.47-.13-.56-.27-.46-.75q.29-1.46.61-2.92c.1-.45.28-.57.74-.46.67.16,1.33.33,2,.52.47.13.58.33.49.81S216.62,36.23,216.52,36.71Z"/><path class="cls-3" d="M198.78,71.58c-.1.48-.19,1-.3,1.43s-.28.56-.68.53c-.72-.06-1.44-.13-2.16-.22-.49-.06-.59-.2-.49-.69q.28-1.41.58-2.82c.11-.51.29-.66.79-.62.68.05,1.37.12,2.05.2.47.06.6.24.51.69S198.88,71.08,198.78,71.58Z"/><path class="cls-3" d="M208.86,73.58c-.1.48-.19,1-.3,1.44s-.29.6-.78.48l-2-.52c-.45-.12-.56-.3-.47-.75q.29-1.46.61-2.92c.1-.46.27-.58.73-.47.69.16,1.37.34,2,.53a.55.55,0,0,1,.46.73c-.09.5-.2,1-.31,1.49Z"/><path class="cls-3" d="M206.43,34.7c-.1.48-.19,1-.3,1.44s-.25.56-.68.53c-.76-.06-1.51-.13-2.27-.22-.33,0-.47-.24-.4-.58q.3-1.55.64-3.08a.53.53,0,0,1,.64-.46q1.14.08,2.27.22c.36,0,.49.24.42.61S206.54,34.18,206.43,34.7Z"/><path class="cls-3" d="M218.22,37.21c.1-.48.19-1,.3-1.43s.26-.56.69-.43c.69.21,1.38.44,2.06.68a.59.59,0,0,1,.44.76q-.29,1.49-.62,3c-.09.42-.26.53-.66.4q-1.06-.33-2.11-.71c-.39-.14-.49-.35-.41-.76S218.12,37.71,218.22,37.21Z"/><path class="cls-3" d="M213.75,75.19c-.1.5-.19,1-.31,1.49s-.29.5-.68.38q-1-.34-2.05-.71c-.43-.16-.53-.34-.44-.79q.29-1.44.6-2.87c.1-.47.3-.6.73-.46q1,.32,2,.69c.45.17.55.36.46.84s-.2,1-.3,1.44Z"/><path class="cls-3" d="M211.5,35.49c-.1.5-.2,1-.31,1.49s-.26.54-.69.47c-.7-.11-1.39-.23-2.08-.36-.47-.09-.59-.26-.51-.72q.29-1.46.61-2.92c.1-.45.28-.56.74-.49.68.1,1.36.21,2,.34.5.1.6.27.51.76S211.6,35,211.5,35.49Z"/><path class="cls-3" d="M226.15,40.24c-.1.5-.2,1-.31,1.49s-.23.47-.58.34c-.74-.28-1.47-.59-2.2-.92a.53.53,0,0,1-.31-.63c.21-1,.42-2.09.65-3.13a.4.4,0,0,1,.61-.32c.71.28,1.41.57,2.1.88a.59.59,0,0,1,.36.76C226.37,39.22,226.26,39.73,226.15,40.24Z"/><path class="cls-3" d="M215.41,75.86c.1-.5.2-1,.31-1.49s.27-.56.69-.4c.67.26,1.34.55,2,.84a.59.59,0,0,1,.4.78q-.3,1.49-.62,3c-.1.45-.27.53-.7.36l-1.95-.82a.62.62,0,0,1-.43-.81C215.2,76.81,215.31,76.34,215.41,75.86Z"/><path class="cls-3" d="M230.81,42.41c-.11.51-.2,1-.32,1.54s-.24.46-.59.3c-.71-.32-1.4-.66-2.09-1a.63.63,0,0,1-.33-.74c.21-1,.41-2,.63-3,.09-.39.28-.49.63-.33.69.32,1.37.66,2,1a.64.64,0,0,1,.34.78C231,41.41,230.91,41.91,230.81,42.41Z"/><path class="cls-3" d="M223.15,79.3c-.1.5-.2,1-.31,1.49s-.27.51-.66.33c-.65-.31-1.3-.63-1.95-1a.66.66,0,0,1-.4-.85q.29-1.46.61-2.92c.1-.45.27-.54.7-.34q1,.45,1.94,1a.64.64,0,0,1,.37.81C223.36,78.31,223.25,78.8,223.15,79.3Z"/><path class="cls-3" d="M227.66,81.79c-.1.48-.19,1-.3,1.43s-.25.52-.65.32c-.64-.34-1.26-.7-1.89-1a.72.72,0,0,1-.4-.86c.21-1,.41-2,.62-3,.09-.39.28-.49.62-.31.66.34,1.3.71,1.94,1.08a.74.74,0,0,1,.36.88C227.87,80.8,227.77,81.3,227.66,81.79Z"/><path class="cls-3" d="M232.39,43.28c.1-.5.2-1,.31-1.49s.27-.51.66-.3c.62.33,1.23.68,1.85,1a.76.76,0,0,1,.43.9c-.2,1-.4,1.95-.61,2.92-.11.48-.25.54-.68.31l-1.8-1a.76.76,0,0,1-.44-1C232.19,44.2,232.29,43.74,232.39,43.28Z"/><path class="cls-3" d="M232.07,84.42c-.1.5-.2,1-.31,1.49s-.26.48-.61.28c-.62-.36-1.24-.75-1.85-1.12a.79.79,0,0,1-.4-.92c.21-1,.4-1.95.61-2.92.09-.43.28-.51.65-.29.62.36,1.24.75,1.85,1.13a.75.75,0,0,1,.37.88C232.27,83.42,232.17,83.92,232.07,84.42Z"/><path class="cls-3" d="M239.73,47.54c-.1.48-.19,1-.3,1.43s-.26.54-.63.32c-.64-.37-1.27-.76-1.89-1.16a.74.74,0,0,1-.35-.84c.21-1,.4-2,.62-3,.09-.42.28-.5.66-.28.62.36,1.24.74,1.85,1.13a.76.76,0,0,1,.36.88C239.92,46.55,239.83,47,239.73,47.54Z"/><path class="cls-3" d="M240.65,90.12c-.1.49-.2,1-.31,1.48s-.26.45-.58.24c-.63-.42-1.25-.85-1.87-1.28a.75.75,0,0,1-.32-.81c.2-1,.41-2,.63-3,.09-.42.25-.49.61-.25.6.39,1.19.81,1.79,1.22a.83.83,0,0,1,.37.94C240.85,89.13,240.75,89.63,240.65,90.12Z"/><path class="cls-3" d="M244,50.31c-.11.51-.2,1-.32,1.54-.08.35-.24.44-.54.25-.66-.41-1.31-.84-2-1.28a.7.7,0,0,1-.3-.76c.21-1,.41-2.06.64-3.08.08-.37.26-.43.59-.22.63.39,1.25.8,1.86,1.21a.75.75,0,0,1,.33.85C244.24,49.31,244.15,49.81,244,50.31Z"/><path class="cls-3" d="M236.39,87.18c-.11.51-.2,1-.32,1.54s-.24.45-.58.24c-.63-.39-1.25-.81-1.86-1.21a.76.76,0,0,1-.35-.84c.21-1,.41-2,.63-3,.08-.37.26-.45.59-.25.65.4,1.28.82,1.9,1.25a.72.72,0,0,1,.3.81C236.59,86.18,236.49,86.68,236.39,87.18Z"/><path class="cls-3" d="M246,49.44a3,3,0,0,1,.51.21c.57.38,1.14.77,1.7,1.16a.86.86,0,0,1,.38,1c-.21.94-.39,1.88-.59,2.82-.11.52-.26.58-.7.29s-1.13-.78-1.7-1.16a.83.83,0,0,1-.39-.93c.2-1,.4-2,.61-2.92A3.19,3.19,0,0,1,246,49.44Z"/><path class="cls-3" d="M3,39.73l.12-.56Q6.2,24.25,9.29,9.33a.85.85,0,0,1,.64-.74A46.31,46.31,0,0,1,24.38,6.23a63.53,63.53,0,0,1,9.53.57,73.26,73.26,0,0,1,9,1.81A63.09,63.09,0,0,1,56,13.68l.54.29L50.08,45l-.59-.28a61.76,61.76,0,0,0-7.94-3.48,70.54,70.54,0,0,0-11.07-2.9,63.92,63.92,0,0,0-16.16-.88A42.78,42.78,0,0,0,3.65,39.58l-.47.15A1.06,1.06,0,0,1,3,39.73Z"/><path class="cls-3" d="M27.27,40.74c.1-.5.2-1,.31-1.49s.28-.54.7-.48c.68.1,1.36.2,2,.32.52.09.64.28.54.79q-.28,1.41-.59,2.82c-.11.49-.29.62-.76.54l-2-.33c-.5-.09-.6-.25-.51-.75S27.17,41.22,27.27,40.74Z"/><path class="cls-3" d="M43.24,5.55c-.1.48-.19,1-.3,1.44s-.29.58-.73.48Q41.12,7.22,40,6.94a.47.47,0,0,1-.39-.61q.3-1.55.64-3.08a.48.48,0,0,1,.64-.42c.76.16,1.52.35,2.27.55.32.09.42.31.35.69S43.34,5.06,43.24,5.55Z"/><path class="cls-3" d="M35.59,42.42c-.1.48-.19,1-.3,1.44s-.27.59-.72.49l-2-.47c-.51-.12-.63-.31-.53-.81q.28-1.41.59-2.82c.11-.5.28-.62.76-.52.66.14,1.31.29,2,.45s.66.33.54.91S35.68,42,35.59,42.42Z"/><path class="cls-3" d="M45,6c.09-.44.18-.89.28-1.33s.27-.62.76-.48q1,.3,2,.64c.43.15.53.34.44.79q-.29,1.46-.61,2.92c-.09.43-.29.54-.7.41l-2-.63c-.52-.17-.62-.35-.51-.9S44.87,6.44,45,6Z"/><path class="cls-3" d="M40.5,43.91c-.1.5-.2,1-.31,1.49s-.24.52-.66.4c-.73-.21-1.45-.45-2.17-.69a.5.5,0,0,1-.38-.63q.3-1.57.65-3.14a.43.43,0,0,1,.62-.34c.73.21,1.45.44,2.17.7.36.13.45.34.38.73S40.6,43.42,40.5,43.91Z"/><path class="cls-3" d="M34.93,3.82c.1-.46.19-.92.29-1.38s.27-.61.71-.55Q37,2,38.07,2.24c.41.08.54.28.46.71q-.29,1.46-.61,2.92c-.1.45-.27.56-.74.5-.7-.1-1.39-.21-2.09-.34-.49-.09-.57-.22-.47-.71S34.83,4.32,34.93,3.82Z"/><path class="cls-3" d="M45.28,45.86c-.1.46-.18.92-.29,1.38s-.28.55-.7.39l-2-.81c-.45-.19-.55-.37-.46-.84q.28-1.44.6-2.87c.1-.48.3-.59.73-.42q1,.38,1.9.79c.47.21.57.4.47.89S45.38,45.37,45.28,45.86Z"/><path class="cls-3" d="M49.82,7.68c.1-.5.2-1,.31-1.49s.28-.53.71-.37q1,.37,2,.79a.65.65,0,0,1,.44.87q-.29,1.44-.6,2.87c-.1.48-.26.57-.74.39q-1-.38-2-.8a.62.62,0,0,1-.43-.82C49.62,8.63,49.72,8.16,49.82,7.68Z"/><path class="cls-3" d="M28,3.27c-.1.48-.19,1-.3,1.43s-.28.62-.79.62h-2c-.53,0-.66-.15-.55-.66q.28-1.41.58-2.82c.11-.5.29-.66.77-.66q1,0,2.06,0c.49,0,.62.17.53.65S28.11,2.79,28,3.27Z"/><path class="cls-3" d="M20.34,40.24c-.09.44-.18.89-.28,1.33s-.29.65-.78.65l-2.11,0c-.42,0-.56-.17-.48-.58q.29-1.49.62-3a.61.61,0,0,1,.67-.57c.72,0,1.45,0,2.17,0,.49,0,.59.17.5.67S20.44,39.74,20.34,40.24Z"/><path class="cls-3" d="M22.15,40.23c.1-.48.19-1,.3-1.43s.26-.61.76-.58q1.06.06,2.11.18c.42,0,.55.22.47.63q-.29,1.52-.63,3a.54.54,0,0,1-.66.49q-1.08-.08-2.16-.2c-.49-.05-.57-.18-.48-.68S22.05,40.71,22.15,40.23Z"/><path class="cls-3" d="M29.81,3.36c.1-.5.2-1,.31-1.49s.26-.55.68-.53c.72,0,1.44.11,2.16.18.41,0,.55.22.48.62q-.29,1.52-.63,3c-.09.4-.24.51-.65.49Q31,5.59,29.89,5.47c-.34,0-.46-.22-.4-.57C29.59,4.38,29.7,3.87,29.81,3.36Z"/><path class="cls-3" d="M54.59,9.63c.1-.5.2-1,.31-1.49s.27-.46.59-.31c.68.33,1.35.69,2,1a.67.67,0,0,1,.36.78c-.21,1-.41,2.06-.64,3.08-.08.36-.27.43-.61.26q-1-.5-2-1a.62.62,0,0,1-.37-.8C54.37,10.66,54.48,10.15,54.59,9.63Z"/><path class="cls-3" d="M46.92,46.55c.1-.5.2-1,.31-1.49s.25-.51.61-.33c.68.32,1.35.68,2,1a.67.67,0,0,1,.34.79c-.2,1-.41,2-.63,3-.09.4-.25.47-.63.28q-1-.49-2-1a.64.64,0,0,1-.36-.81C46.71,47.54,46.82,47,46.92,46.55Z"/><path class="cls-3" d="M15.19,40.23c-.1.48-.19,1-.3,1.43s-.26.59-.68.63c-.72.07-1.44.13-2.16.18-.44,0-.56-.1-.47-.54.2-1,.41-2,.61-3a.72.72,0,0,1,.71-.62c.7-.06,1.4-.13,2.1-.18.47,0,.58.12.5.58S15.29,39.74,15.19,40.23Z"/><path class="cls-3" d="M22.85,3.33c-.1.48-.19,1-.3,1.43s-.25.62-.72.66q-1.08.11-2.16.18c-.42,0-.53-.1-.45-.51.2-1,.42-2,.62-3a.7.7,0,0,1,.67-.6c.74-.07,1.47-.14,2.21-.18.37,0,.5.13.43.5s-.21,1-.32,1.54Z"/><path class="cls-3" d="M10.09,40.72c-.1.48-.21,1-.29,1.44a.81.81,0,0,1-.7.72c-.71.14-1.42.28-2.13.4-.42.07-.53,0-.45-.47.2-1,.41-2,.61-3a.81.81,0,0,1,.68-.68c.71-.14,1.42-.29,2.13-.41.41-.07.53.07.46.48S10.19,40.23,10.09,40.72Z"/><path class="cls-3" d="M14.47,4.47c.1-.49.21-1,.31-1.48a.83.83,0,0,1,.71-.72c.69-.14,1.38-.28,2.07-.39.45-.07.58.06.49.49-.2,1-.41,2-.61,3a.78.78,0,0,1-.69.66l-2.12.41c-.43.08-.54,0-.46-.45S14.37,5,14.47,4.47Z"/><path class="cls-3" d="M9.25,7.88a2.52,2.52,0,0,1,0-.47c.19-1,.4-1.91.59-2.87a1.05,1.05,0,0,1,.74-.85c.65-.22,1.3-.45,2-.65.45-.14.59,0,.5.43-.19,1-.4,1.95-.6,2.92a.89.89,0,0,1-.59.72c-.77.27-1.54.52-2.32.77A1.08,1.08,0,0,1,9.25,7.88Z"/><path class="cls-3" d="M1.59,44.77a2.66,2.66,0,0,1,0-.48c.19-1,.4-1.91.59-2.87a1.05,1.05,0,0,1,.74-.85c.65-.22,1.3-.45,2-.65.45-.14.58,0,.5.44-.19,1-.4,1.95-.6,2.92a.89.89,0,0,1-.59.72c-.75.26-1.51.51-2.26.75A1.58,1.58,0,0,1,1.59,44.77Z"/><path class="cls-3" d="M198.77,37.16l-6.44,31-.53.05c-6.1.45-12.18,1-18.21,2.08a100.19,100.19,0,0,0-18.25,4.77A52.1,52.1,0,0,0,147,78.92c-.41.25-.85.45-1.39.73.05-.32.08-.52.12-.72l3.11-15q1.52-7.34,3-14.68a1.1,1.1,0,0,1,.66-.89c.57-.27,1.12-.59,1.67-.9A58.88,58.88,0,0,1,165,42.88a108,108,0,0,1,18.39-4.17c4.92-.72,9.87-1.19,14.83-1.54Z"/><path class="cls-3" d="M196.49,34.1c.1-.46.18-.92.29-1.38s.28-.63.79-.64c.67,0,1.34,0,2,0s.67.17.56.72q-.28,1.38-.57,2.76c-.11.52-.3.67-.82.66h-2c-.52,0-.64-.15-.54-.68S196.39,34.58,196.49,34.1Z"/><path class="cls-3" d="M192.19,71c-.1.46-.19.92-.29,1.38s-.29.69-.86.69l-2,0c-.47,0-.6-.15-.52-.59q.28-1.47.61-2.92a.66.66,0,0,1,.76-.62c.7,0,1.41,0,2.11,0,.45,0,.57.18.49.63S192.29,70.55,192.19,71Z"/><path class="cls-3" d="M183.71,71.24c.1-.48.19-1,.3-1.43a.68.68,0,0,1,.74-.65c.68-.06,1.37-.1,2.05-.13.51,0,.63.11.53.61q-.28,1.43-.59,2.86c-.11.5-.27.63-.77.67l-2,.12c-.54,0-.65-.1-.55-.63S183.61,71.72,183.71,71.24Z"/><path class="cls-3" d="M191.37,34.36c.1-.46.18-.92.29-1.38s.27-.66.76-.7c.7-.06,1.4-.1,2.11-.13.43,0,.56.14.48.56q-.29,1.49-.62,3a.63.63,0,0,1-.66.6c-.74.06-1.48.1-2.22.13-.41,0-.52-.11-.45-.52S191.27,34.88,191.37,34.36Z"/><path class="cls-3" d="M178.61,71.82c.1-.48.21-1,.29-1.43a.77.77,0,0,1,.72-.69c.7-.09,1.39-.19,2.09-.26.46,0,.59.11.5.58-.19,1-.4,1.91-.59,2.87a.78.78,0,0,1-.72.69l-2.15.26c-.45,0-.54-.06-.46-.53S178.5,72.32,178.61,71.82Z"/><path class="cls-3" d="M186.27,34.93c.1-.46.2-.92.28-1.38a.78.78,0,0,1,.75-.72c.7-.08,1.4-.18,2.09-.26.43,0,.57.1.49.53-.19,1-.41,2-.61,3a.72.72,0,0,1-.66.62c-.73.1-1.47.2-2.2.28-.41,0-.53-.1-.46-.5S186.16,35.44,186.27,34.93Z"/><path class="cls-3" d="M176.17,36.89c.1-.46.19-.92.29-1.38a.9.9,0,0,1,.74-.77c.69-.15,1.37-.32,2.06-.47.45-.09.57,0,.48.48-.19,1-.4,1.94-.6,2.92a.87.87,0,0,1-.71.73c-.7.16-1.4.33-2.11.48-.41.09-.53,0-.46-.46S176.06,37.4,176.17,36.89Z"/><path class="cls-3" d="M171.75,73.18c-.09.44-.19.88-.27,1.33a.92.92,0,0,1-.78.79l-2,.45c-.52.11-.64,0-.53-.52.19-.94.39-1.88.58-2.82a.94.94,0,0,1,.78-.8c.65-.15,1.3-.31,2-.45s.63,0,.53.52S171.85,72.68,171.75,73.18Z"/><path class="cls-3" d="M184.46,35.26c-.1.48-.21,1-.29,1.44a.79.79,0,0,1-.7.72c-.69.12-1.39.26-2.08.37-.48.08-.59,0-.49-.53.19-1,.4-1.91.59-2.87a.84.84,0,0,1,.76-.73c.68-.11,1.35-.25,2-.36.48-.08.58,0,.49.53S184.56,34.78,184.46,35.26Z"/><path class="cls-3" d="M176.8,72.17c-.1.48-.21,1-.29,1.43a.79.79,0,0,1-.71.7l-2.08.37c-.46.08-.58,0-.49-.48.19-1,.41-2,.61-3a.79.79,0,0,1,.68-.67c.71-.13,1.42-.27,2.13-.38.44-.07.55.06.46.52S176.9,71.67,176.8,72.17Z"/><path class="cls-3" d="M171.2,38.26c.1-.46.2-.92.28-1.38a1,1,0,0,1,.76-.83l1.94-.53c.53-.14.65,0,.54.48-.19.94-.39,1.88-.58,2.82a1,1,0,0,1-.76.82l-1.93.54c-.53.14-.64,0-.54-.48S171.1,38.74,171.2,38.26Z"/><path class="cls-3" d="M163.54,75.14c.1-.46.2-.92.28-1.38a1,1,0,0,1,.76-.82c.66-.18,1.32-.38,2-.55.46-.12.59,0,.5.45-.19,1-.41,2-.62,3a.82.82,0,0,1-.58.66c-.75.22-1.49.43-2.25.63-.34.09-.47,0-.4-.41s.21-1,.32-1.54Z"/><path class="cls-3" d="M158.64,76.67c.1-.48.21-1,.3-1.44a.94.94,0,0,1,.68-.77c.69-.23,1.37-.45,2.07-.66.39-.12.53,0,.45.39-.2,1-.41,2-.63,3a.89.89,0,0,1-.62.69c-.7.23-1.41.46-2.12.68-.41.12-.52,0-.43-.43S158.54,77.17,158.64,76.67Z"/><path class="cls-3" d="M166.3,39.81c.1-.46.2-.92.28-1.38a1,1,0,0,1,.73-.85c.65-.21,1.31-.43,2-.62.48-.15.6,0,.5.46-.19,1-.4,1.91-.59,2.87a1,1,0,0,1-.68.77c-.69.22-1.37.45-2.07.66-.42.13-.53,0-.45-.41S166.19,40.3,166.3,39.81Z"/><path class="cls-3" d="M157.28,75.37c0,.27,0,.43-.07.58-.18.9-.38,1.8-.56,2.71a1.12,1.12,0,0,1-.8.93l-1.89.67a4.62,4.62,0,0,1-.48.11,2.44,2.44,0,0,1,0-.5c.19-1,.4-1.95.6-2.92a1,1,0,0,1,.66-.79l2-.73A2.7,2.7,0,0,1,157.28,75.37Z"/><path class="cls-3" d="M161.09,43.48c0-.29,0-.47.07-.64.18-.89.38-1.77.54-2.65a1.16,1.16,0,0,1,.83-1c.6-.2,1.19-.43,1.79-.63a6,6,0,0,1,.58-.13,4.62,4.62,0,0,1,0,.59c-.18.92-.38,1.84-.57,2.76a1.08,1.08,0,0,1-.77.89c-.63.21-1.26.45-1.89.67A4.66,4.66,0,0,1,161.09,43.48Z"/><path class="cls-3" d="M148.73,82.26c0-.2,0-.33,0-.45.19-.94.4-1.88.58-2.82a1.29,1.29,0,0,1,.74-1c.64-.29,1.3-.55,1.95-.81a1.24,1.24,0,0,1,.38,0,4.69,4.69,0,0,1,0,.54c-.18.9-.38,1.8-.56,2.71a1.18,1.18,0,0,1-.79.95c-.67.27-1.33.57-2,.85A1.34,1.34,0,0,1,148.73,82.26Z"/><path class="cls-3" d="M160.09,40.32c0,.19,0,.35-.05.5-.19.92-.38,1.84-.57,2.76a1.11,1.11,0,0,1-.71.88c-.7.29-1.39.6-2.09.89a1.32,1.32,0,0,1-.26,0,2.5,2.5,0,0,1,0-.43c.2-1,.4-1.94.6-2.92a1.21,1.21,0,0,1,.51-.8,8.57,8.57,0,0,1,2.33-1S160,40.29,160.09,40.32Z"/><path class="cls-3" d="M147.84,79.34c0,.28,0,.42-.07.56-.19.92-.39,1.84-.57,2.76a1.3,1.3,0,0,1-.75,1c-.58.28-1.16.58-1.75.86a3.56,3.56,0,0,1-.56.15c0-.25,0-.41.07-.56.19-.92.39-1.84.57-2.76a1.21,1.21,0,0,1,.72-.94c.6-.29,1.2-.59,1.8-.88A5.08,5.08,0,0,1,147.84,79.34Z"/><path class="cls-3" d="M155.48,42.51c0,.22,0,.36,0,.49-.19.94-.39,1.87-.58,2.81a1.23,1.23,0,0,1-.68.92l-1.9.93a2.38,2.38,0,0,1-.46.11,4.22,4.22,0,0,1,0-.47c.19-1,.4-1.91.59-2.87a1.15,1.15,0,0,1,.65-.87l1.95-1A2.14,2.14,0,0,1,155.48,42.51Z"/><path class="cls-3" d="M96.74,47.61l-6.43,31-.51-.24c-8.3-4-15.27-9.68-21.54-16.33-2.28-2.41-4.4-4.95-6.47-7.54a33.2,33.2,0,0,0-7.56-7,1.18,1.18,0,0,1-.31-.22.75.75,0,0,1-.14-.37,1.36,1.36,0,0,1,.07-.37L60,16.84l.14-.67.53.34a34.41,34.41,0,0,1,8.07,7.59A102.71,102.71,0,0,0,79.14,35.41,68.91,68.91,0,0,0,96.26,47.33l.34.18Z"/><path class="cls-3" d="M87.12,80.15c.1-.5.2-1,.31-1.49s.26-.47.63-.3q1,.48,2,1a.65.65,0,0,1,.39.81q-.29,1.49-.62,3c-.09.41-.29.51-.67.33-.65-.31-1.3-.64-1.94-1a.69.69,0,0,1-.39-.86C86.91,81.14,87,80.65,87.12,80.15Z"/><path class="cls-3" d="M97.78,44.77c-.1.5-.2,1-.31,1.49s-.27.52-.66.33c-.67-.31-1.33-.65-2-1a.69.69,0,0,1-.36-.83c.21-1,.41-2,.62-3,.09-.39.27-.49.62-.32.68.33,1.36.68,2,1a.66.66,0,0,1,.35.78Z"/><path class="cls-3" d="M90.32,40.73c.1-.5.2-1,.31-1.49s.27-.51.65-.29l1.86,1.1a.74.74,0,0,1,.37.87c-.22,1-.41,2-.62,3-.09.41-.25.49-.61.29-.64-.36-1.28-.75-1.91-1.14a.76.76,0,0,1-.35-.89C90.12,41.69,90.22,41.21,90.32,40.73Z"/><path class="cls-3" d="M85.55,79.26c-.11.51-.2,1-.32,1.54s-.26.48-.62.27c-.64-.37-1.28-.75-1.9-1.14a.75.75,0,0,1-.35-.84c.2-1,.4-2,.62-3,.09-.42.27-.5.66-.28.62.36,1.24.74,1.86,1.11a.73.73,0,0,1,.36.88C85.74,78.3,85.65,78.78,85.55,79.26Z"/><path class="cls-3" d="M81.17,76.62c-.1.46-.18.92-.29,1.38s-.27.59-.69.31-1.13-.78-1.69-1.17a.89.89,0,0,1-.39-1c.2-1,.39-1.91.6-2.86.11-.49.26-.55.66-.28l1.74,1.2a.86.86,0,0,1,.37,1C81.36,75.66,81.27,76.14,81.17,76.62Z"/><path class="cls-3" d="M88.83,39.72c-.1.49-.2,1-.31,1.48s-.27.48-.62.26c-.62-.41-1.22-.83-1.82-1.27a.8.8,0,0,1-.33-.86c.2-1,.41-2,.63-3,.08-.38.26-.45.58-.23.61.41,1.22.84,1.82,1.26a.81.81,0,0,1,.36.89Z"/><path class="cls-3" d="M63.08,14.81c-.11.51-.2,1-.32,1.54-.08.33-.22.4-.5.21q-1-.67-2-1.37a.72.72,0,0,1-.27-.77c.21-1,.41-2,.63-3,.08-.38.26-.46.58-.25.63.42,1.25.86,1.86,1.31a.79.79,0,0,1,.28.87c-.11.49-.21,1-.31,1.49Z"/><path class="cls-3" d="M55.43,51.66c-.11.51-.2,1-.32,1.54-.08.35-.24.42-.54.22-.64-.44-1.28-.89-1.91-1.35a.71.71,0,0,1-.28-.77c.21-1,.41-2,.63-3,.09-.42.25-.49.61-.25.6.4,1.19.82,1.78,1.24a.84.84,0,0,1,.34,1C55.62,50.7,55.53,51.18,55.43,51.66Z"/><path class="cls-3" d="M82,34.68c.1-.5.2-1,.31-1.49s.25-.5.58-.24c.59.45,1.16.93,1.73,1.39a.84.84,0,0,1,.31.87c-.2,1-.4,2-.62,3-.1.45-.26.5-.63.21-.54-.42-1.07-.86-1.61-1.29a1,1,0,0,1-.36-1.06C81.84,35.61,81.92,35.14,82,34.68Z"/><path class="cls-3" d="M74.36,71.56c.1-.48.19-1,.3-1.44s.25-.56.64-.26L77,71.19a.86.86,0,0,1,.34.91c-.2,1-.4,2-.62,3-.1.45-.26.5-.64.21-.56-.43-1.11-.88-1.65-1.33a.91.91,0,0,1-.33-1C74.17,72.52,74.26,72,74.36,71.56Z"/><path class="cls-3" d="M80.68,33.46c-.1.48-.19,1-.3,1.43s-.26.54-.65.19-1-.93-1.52-1.39a1,1,0,0,1-.32-1c.2-1,.39-1.91.6-2.87.11-.49.26-.53.64-.19L80.65,31A1,1,0,0,1,81,32Z"/><path class="cls-3" d="M71,66.21a1.6,1.6,0,0,1,.3.16c.58.52,1.15,1,1.72,1.58a.91.91,0,0,1,.28.89c-.21,1-.41,2-.63,3-.09.39-.26.44-.57.16-.54-.48-1.07-1-1.59-1.47a1,1,0,0,1-.3-1c.2-1,.4-1.95.61-2.92A2.39,2.39,0,0,1,71,66.21Z"/><path class="cls-3" d="M58.8,57a3,3,0,0,1-.4-.26c-.51-.46-1-.94-1.51-1.39a1,1,0,0,1-.35-1.06c.21-1,.4-1.91.6-2.86.1-.47.25-.53.61-.21.53.47,1,1,1.55,1.44a.92.92,0,0,1,.31.88q-.33,1.62-.67,3.24A1.26,1.26,0,0,1,58.8,57Z"/><path class="cls-3" d="M65,14.06a2.3,2.3,0,0,1,.46.25c.51.46,1,.93,1.51,1.4a1,1,0,0,1,.32.93c-.22,1-.43,2.09-.65,3.13a2.19,2.19,0,0,1-.13.31,1.87,1.87,0,0,1-.37-.2c-.55-.5-1.09-1-1.63-1.51a.88.88,0,0,1-.31-.87q.33-1.56.65-3.13A1.73,1.73,0,0,1,65,14.06Z"/><path class="cls-3" d="M76.45,31.84a3.1,3.1,0,0,1-.39-.28L74.6,30a1,1,0,0,1-.29-.95q.32-1.54.64-3.08a1.72,1.72,0,0,1,.15-.32,1.54,1.54,0,0,1,.33.19q.78.8,1.53,1.61a1,1,0,0,1,.28.89c-.22,1-.43,2.09-.66,3.14A2.23,2.23,0,0,1,76.45,31.84Z"/><path class="cls-3" d="M68.78,68.7a3.07,3.07,0,0,1-.41-.29c-.48-.49-1-1-1.42-1.49a1.06,1.06,0,0,1-.3-1c.21-1,.42-2,.63-3a2.3,2.3,0,0,1,.14-.34,1.31,1.31,0,0,1,.33.17q.8.82,1.57,1.65a.92.92,0,0,1,.26.85q-.34,1.62-.68,3.24A1.38,1.38,0,0,1,68.78,68.7Z"/><path class="cls-3" d="M65.29,64.93a2.23,2.23,0,0,1-.3-.24q-.72-.85-1.42-1.71a1,1,0,0,1-.25-.86c.22-1.1.46-2.19.69-3.29a.8.8,0,0,1,.11-.18,1.2,1.2,0,0,1,.3.19q.74.87,1.46,1.75a1.07,1.07,0,0,1,.24.91q-.31,1.54-.64,3.08A1.76,1.76,0,0,1,65.29,64.93Z"/><path class="cls-3" d="M73,28a2.78,2.78,0,0,1-.39-.31c-.46-.54-.9-1.08-1.35-1.62a1.11,1.11,0,0,1-.24-1q.31-1.54.64-3.08a1.67,1.67,0,0,1,.16-.33,2.92,2.92,0,0,1,.35.29l1.35,1.62a1.15,1.15,0,0,1,.27,1q-.31,1.51-.63,3A2.11,2.11,0,0,1,73,28Z"/><path class="cls-3" d="M61,54.56c.12.07.2.09.23.15.51.66,1,1.3,1.5,2a1.23,1.23,0,0,1,.14.82c-.18,1-.41,2.05-.63,3.08a1.66,1.66,0,0,1-.17.33,3.49,3.49,0,0,1-.33-.32l-1.28-1.68a1.09,1.09,0,0,1-.27-.9q.32-1.59.66-3.18A1.48,1.48,0,0,1,61,54.56Z"/><path class="cls-3" d="M69.72,24.06a3.8,3.8,0,0,1-.35-.34L68.08,22a1.1,1.1,0,0,1-.25-.91q.32-1.57.65-3.14a1.8,1.8,0,0,1,.14-.3,1.69,1.69,0,0,1,.35.25q.69.88,1.35,1.77a1.09,1.09,0,0,1,.21.87c-.21,1.06-.44,2.13-.66,3.19A1.67,1.67,0,0,1,69.72,24.06Z"/><path class="cls-1" d="M96.37,8.4c1.18,3,2.32,6.06,3.56,9.06q20.85,50.34,41.76,100.66a58.06,58.06,0,0,0,11.5,18.36c4.91,5.1,11.07,8,17.68,10.1,6.91,2.23,13.72,4.64,20,8.46,11.08,6.75,17.26,19.54,15.05,31.63-2.5,13.72-12.25,23.74-25.47,26.19-14.85,2.75-29.2-5.52-35.17-20.15-5.13-12.57-10.38-25.08-15.58-37.62-.22-.53-.48-1-.91-2-.76,1.78-1.39,3.21-2,4.65L112,193.54a31.53,31.53,0,0,1-30.13,19.8c-17.54-.28-31.8-16.05-30.38-33.56,1-11.76,6.87-20.34,17.16-25.7A134.5,134.5,0,0,1,85.71,147c7.43-2.64,14.51-5.68,19.84-11.8a57.09,57.09,0,0,0,9-14.33,3.68,3.68,0,0,0-.17-2.59c-8.22-19.93-16.51-39.83-24.73-59.76-2.74-6.64-5.46-13.29-7.84-20.07-1.82-5.2-2.59-10.64-1-16.11,1.71-5.7,5.9-9.19,10.92-11.88L95.57,8.4Zm78.54,154.83a18.72,18.72,0,1,0,18.75,19A18.79,18.79,0,0,0,174.92,163.22ZM82.8,200.64a18.72,18.72,0,1,0-18.87-18.71A18.76,18.76,0,0,0,82.8,200.64Zm46-74.44a6.12,6.12,0,0,0,6.26-6.13,6.21,6.21,0,1,0-12.42-.09A6.09,6.09,0,0,0,128.75,126.21Z"/></g></g></svg>